<?xml version="1.0" encoding="utf-8" standalone="no"?>
<!DOCTYPE svg PUBLIC "-//W3C//DTD SVG 1.1//EN"
  "http://www.w3.org/Graphics/SVG/1.1/DTD/svg11.dtd">
<svg xmlns:xlink="http://www.w3.org/1999/xlink" width="186.074646pt" height="140.280945pt" viewBox="0 0 186.074646 140.280945" xmlns="http://www.w3.org/2000/svg" version="1.1">
 <metadata>
  <rdf:RDF xmlns:dc="http://purl.org/dc/elements/1.1/" xmlns:cc="http://creativecommons.org/ns#" xmlns:rdf="http://www.w3.org/1999/02/22-rdf-syntax-ns#">
   <cc:Work>
    <dc:type rdf:resource="http://purl.org/dc/dcmitype/StillImage"/>
    <dc:date>2026-09-01T14:06:50.349535</dc:date>
    <dc:format>image/svg+xml</dc:format>
    <dc:creator>
     <cc:Agent>
      <dc:title>Matplotlib v3.10.1, https://matplotlib.org/</dc:title>
     </cc:Agent>
    </dc:creator>
   </cc:Work>
  </rdf:RDF>
 </metadata>
 <defs>
  <style type="text/css">*{stroke-linejoin: round; stroke-linecap: butt}</style>
 </defs>
 <g id="figure_1">
  <g id="patch_1">
   <path d="M 0 140.280945 
L 186.074646 140.280945 
L 186.074646 0 
L 0 0 
z
" style="fill: #ffffff"/>
  </g>
  <g id="axes_1">
   <g id="patch_2">
    <path d="M 0 140.280945 
L 186.074646 140.280945 
L 186.074646 0 
L 0 0 
z
" style="fill: #ffffff"/>
   </g>
   <g id="line2d_1">
    <path d="M 77.492465 75.502018 
L 84.545223 71.436752 
" clip-path="url(#pbae78fea04)" style="fill: none; stroke: #808080; stroke-width: 0.8; stroke-linecap: square"/>
   </g>
   <g id="line2d_2">
    <path d="M 77.492465 75.502018 
L 77.485953 83.642318 
" clip-path="url(#pbae78fea04)" style="fill: none; stroke: #808080; stroke-width: 0.8; stroke-linecap: square"/>
   </g>
   <g id="line2d_3">
    <path d="M 77.492465 75.502018 
L 70.446221 71.425355 
" clip-path="url(#pbae78fea04)" style="fill: none; stroke: #808080; stroke-width: 0.8; stroke-linecap: square"/>
   </g>
   <g id="line2d_4">
    <path d="M 84.545223 71.436752 
L 91.591467 75.513414 
" clip-path="url(#pbae78fea04)" style="fill: none; stroke: #808080; stroke-width: 0.8; stroke-linecap: square"/>
   </g>
   <g id="line2d_5">
    <path d="M 91.591467 75.513414 
L 98.644223 71.448148 
" clip-path="url(#pbae78fea04)" style="fill: none; stroke: #808080; stroke-width: 0.8; stroke-linecap: square"/>
   </g>
   <g id="line2d_6">
    <path d="M 98.644223 71.448148 
L 105.690468 75.524811 
" clip-path="url(#pbae78fea04)" style="fill: none; stroke: #808080; stroke-width: 0.8; stroke-linecap: square"/>
   </g>
   <g id="line2d_7">
    <path d="M 98.644223 71.448148 
L 98.650735 63.307846 
" clip-path="url(#pbae78fea04)" style="fill: none; stroke: #808080; stroke-width: 0.8; stroke-linecap: square"/>
   </g>
   <g id="line2d_8">
    <path d="M 105.690468 75.524811 
L 112.743224 71.459545 
" clip-path="url(#pbae78fea04)" style="fill: none; stroke: #808080; stroke-width: 0.8; stroke-linecap: square"/>
   </g>
   <g id="line2d_9">
    <path d="M 105.690468 75.524811 
L 105.683955 83.665111 
" clip-path="url(#pbae78fea04)" style="fill: none; stroke: #808080; stroke-width: 0.8; stroke-linecap: square"/>
   </g>
   <g id="matplotlib.axis_1"/>
   <g id="matplotlib.axis_2"/>
   <g id="patch_3">
    <path d="M 68.235683 56.998468 
C 67.95482 56.677514 67.653833 56.36444 67.339953 56.066772 
C 67.026073 55.769104 66.701835 55.489245 66.375032 55.23392 
" clip-path="url(#pbae78fea04)" style="fill: none; opacity: 0.82; stroke: #2e8b57; stroke-linejoin: miter"/>
   </g>
   <g id="patch_4">
    <path d="M 68.858179 56.302666 
C 68.591064 55.99783 68.305 55.700414 68.006801 55.417502 
C 67.708602 55.134589 67.400654 54.868444 67.09029 54.625406 
" clip-path="url(#pbae78fea04)" style="fill: none; opacity: 0.82; stroke: #2e8b57; stroke-linejoin: miter"/>
   </g>
   <g id="patch_5">
    <path d="M 69.480671 55.606865 
C 69.227307 55.318146 68.95617 55.036388 68.673652 54.768233 
C 68.391134 54.500079 68.099473 54.247652 67.805548 54.016906 
" clip-path="url(#pbae78fea04)" style="fill: none; opacity: 0.82; stroke: #2e8b57; stroke-linejoin: miter"/>
   </g>
   <g id="patch_6">
    <path d="M 70.103157 54.911066 
C 69.86355 54.638464 69.607341 54.372362 69.340504 54.118967 
C 69.073667 53.865573 68.798294 53.626869 68.520804 53.408423 
" clip-path="url(#pbae78fea04)" style="fill: none; opacity: 0.82; stroke: #2e8b57; stroke-linejoin: miter"/>
   </g>
   <g id="patch_7">
    <path d="M 70.922667 54.154238 
C 70.669303 53.86552 70.398166 53.583761 70.115648 53.315607 
C 69.83313 53.047452 69.541469 52.795025 69.247544 52.564279 
" clip-path="url(#pbae78fea04)" style="fill: none; opacity: 0.82; stroke: #2e8b57; stroke-linejoin: miter"/>
   </g>
   <g id="patch_8">
    <path d="M 71.742171 53.397412 
C 71.475056 53.092576 71.188992 52.795161 70.890793 52.512248 
C 70.592594 52.229336 70.284646 51.963191 69.974282 51.720152 
" clip-path="url(#pbae78fea04)" style="fill: none; opacity: 0.82; stroke: #2e8b57; stroke-linejoin: miter"/>
   </g>
   <g id="patch_9">
    <path d="M 72.56167 52.640588 
C 72.280808 52.319634 71.97982 52.00656 71.66594 51.708892 
C 71.35206 51.411224 71.027823 51.131365 70.70102 50.87604 
" clip-path="url(#pbae78fea04)" style="fill: none; opacity: 0.82; stroke: #2e8b57; stroke-linejoin: miter"/>
   </g>
   <g id="patch_10">
    <path d="M 51.10752 75.205051 
C 50.681034 75.207214 50.247328 75.22975 49.816826 75.272116 
C 49.386324 75.314483 48.962502 75.376338 48.555545 75.456195 
" clip-path="url(#pbae78fea04)" style="fill: none; opacity: 0.82; stroke: #2e8b57; stroke-linejoin: miter"/>
   </g>
   <g id="patch_11">
    <path d="M 50.989138 74.278969 
C 50.583836 74.281294 50.171736 74.3028 49.762654 74.342974 
C 49.353572 74.383149 48.950781 74.44167 48.563874 74.517145 
" clip-path="url(#pbae78fea04)" style="fill: none; opacity: 0.82; stroke: #2e8b57; stroke-linejoin: miter"/>
   </g>
   <g id="patch_12">
    <path d="M 50.870754 73.352891 
C 50.486638 73.355374 50.096146 73.375849 49.708485 73.413832 
C 49.320825 73.451816 48.939067 73.507007 48.572214 73.578105 
" clip-path="url(#pbae78fea04)" style="fill: none; opacity: 0.82; stroke: #2e8b57; stroke-linejoin: miter"/>
   </g>
   <g id="patch_13">
    <path d="M 50.752367 72.426819 
C 50.38944 72.429455 50.020556 72.448897 49.654319 72.484691 
C 49.288082 72.520484 48.927361 72.57235 48.580566 72.639077 
" clip-path="url(#pbae78fea04)" style="fill: none; opacity: 0.82; stroke: #2e8b57; stroke-linejoin: miter"/>
   </g>
   <g id="patch_14">
    <path d="M 50.716846 71.311865 
C 50.332729 71.314348 49.942237 71.334822 49.554577 71.372806 
C 49.166916 71.410789 48.785159 71.465981 48.418306 71.537079 
" clip-path="url(#pbae78fea04)" style="fill: none; opacity: 0.82; stroke: #2e8b57; stroke-linejoin: miter"/>
   </g>
   <g id="patch_15">
    <path d="M 50.681321 70.196916 
C 50.276019 70.199241 49.863919 70.220747 49.454837 70.260921 
C 49.045755 70.301096 48.642964 70.359617 48.256057 70.435092 
" clip-path="url(#pbae78fea04)" style="fill: none; opacity: 0.82; stroke: #2e8b57; stroke-linejoin: miter"/>
   </g>
   <g id="patch_16">
    <path d="M 50.645795 69.081972 
C 50.219309 69.084135 49.785603 69.106671 49.355101 69.149037 
C 48.924599 69.191403 48.500776 69.253259 48.09382 69.333116 
" clip-path="url(#pbae78fea04)" style="fill: none; opacity: 0.82; stroke: #2e8b57; stroke-linejoin: miter"/>
   </g>
   <g id="patch_17">
    <path d="M 75.64637 84.434015 
Q 65.908141 88.768812 57.664629 95.526746 
" clip-path="url(#pbae78fea04)" style="fill: none; opacity: 0.82; stroke-dasharray: 3.7,1.6; stroke-dashoffset: 0; stroke: #1f77b4; stroke-linecap: round"/>
   </g>
   <g id="patch_18">
    <path d="M 68.511736 70.917555 
Q 60.284789 68.889148 51.812489 69.023542 
" clip-path="url(#pbae78fea04)" style="fill: none; opacity: 0.82; stroke-dasharray: 3.7,1.6; stroke-dashoffset: 0; stroke: #1f77b4; stroke-linecap: round"/>
   </g>
   <g id="patch_19">
    <path d="M 69.21574 73.00642 
Q 61.516322 83.120105 56.849764 94.943467 
" clip-path="url(#pbae78fea04)" style="fill: none; opacity: 0.82; stroke-dasharray: 3.7,1.6; stroke-dashoffset: 0; stroke: #1f77b4; stroke-linecap: round"/>
   </g>
   <g id="patch_20">
    <path d="M 68.446893 71.31906 
Q 47.424272 70.344508 27.001689 75.42575 
" clip-path="url(#pbae78fea04)" style="fill: none; opacity: 0.82; stroke-dasharray: 3.7,1.6; stroke-dashoffset: 0; stroke: #1f77b4; stroke-linecap: round"/>
   </g>
   <g id="patch_21">
    <path d="M 99.590993 61.545879 
Q 105.243314 50.66836 107.747676 38.668527 
" clip-path="url(#pbae78fea04)" style="fill: none; opacity: 0.82; stroke-dasharray: 3.7,1.6; stroke-dashoffset: 0; stroke: #1f77b4; stroke-linecap: round"/>
   </g>
   <g id="patch_22">
    <path d="M 100.180008 64.598992 
Q 113.32557 75.51424 129.006608 82.300446 
" clip-path="url(#pbae78fea04)" style="fill: none; opacity: 0.82; stroke-dasharray: 3.7,1.6; stroke-dashoffset: 0; stroke: #1f77b4; stroke-linecap: round"/>
   </g>
   <g id="patch_23">
    <path d="M 114.278631 72.738373 
Q 131.126684 86.584759 151.239854 95.013274 
" clip-path="url(#pbae78fea04)" style="fill: none; opacity: 0.82; stroke-dasharray: 3.7,1.6; stroke-dashoffset: 0; stroke: #1f77b4; stroke-linecap: round"/>
   </g>
   <g id="patch_24">
    <path d="M 114.402518 70.341283 
Q 121.63465 65.313166 127.335127 58.598233 
" clip-path="url(#pbae78fea04)" style="fill: none; opacity: 0.82; stroke-dasharray: 3.7,1.6; stroke-dashoffset: 0; stroke: #1f77b4; stroke-linecap: round"/>
   </g>
   <g id="patch_25">
    <path d="M 114.005702 69.911678 
Q 127.456001 53.194891 135.550739 33.324455 
" clip-path="url(#pbae78fea04)" style="fill: none; opacity: 0.82; stroke-dasharray: 3.7,1.6; stroke-dashoffset: 0; stroke: #1f77b4; stroke-linecap: round"/>
   </g>
   <g id="patch_26">
    <path d="M 107.666115 83.910499 
Q 118.305747 85.094852 128.878955 83.418429 
" clip-path="url(#pbae78fea04)" style="fill: none; opacity: 0.82; stroke-dasharray: 3.7,1.6; stroke-dashoffset: 0; stroke: #1f77b4; stroke-linecap: round"/>
   </g>
   <g id="PathCollection_1">
    <path d="M 56.746936 54.448503 
C 59.55984 54.448503 62.257913 53.330925 64.246936 51.341902 
C 66.23596 49.352878 67.353538 46.654805 67.353538 43.841902 
C 67.353538 41.028998 66.23596 38.330925 64.246936 36.341902 
C 62.257913 34.352878 59.55984 33.2353 56.746936 33.2353 
C 53.934033 33.2353 51.23596 34.352878 49.246936 36.341902 
C 47.257913 38.330925 46.140335 41.028998 46.140335 43.841902 
C 46.140335 46.654805 47.257913 49.352878 49.246936 51.341902 
C 51.23596 53.330925 53.934033 54.448503 56.746936 54.448503 
z
" clip-path="url(#pbae78fea04)" style="fill: #e0e0e0; fill-opacity: 0.62"/>
   </g>
   <g id="PathCollection_2">
    <path d="M 25.06276 86.52877 
C 27.875664 86.52877 30.573737 85.411191 32.56276 83.422168 
C 34.551783 81.433145 35.669362 78.735071 35.669362 75.922168 
C 35.669362 73.109264 34.551783 70.411191 32.56276 68.422168 
C 30.573737 66.433145 27.875664 65.315566 25.06276 65.315566 
C 22.249856 65.315566 19.551783 66.433145 17.56276 68.422168 
C 15.573737 70.411191 14.456158 73.109264 14.456158 75.922168 
C 14.456158 78.735071 15.573737 81.433145 17.56276 83.422168 
C 19.551783 85.411191 22.249856 86.52877 25.06276 86.52877 
z
" clip-path="url(#pbae78fea04)" style="fill: #e0e0e0; fill-opacity: 0.62"/>
   </g>
   <g id="PathCollection_3">
    <path d="M 108.134762 47.312859 
C 110.947666 47.312859 113.645739 46.19528 115.634762 44.206257 
C 117.623785 42.217234 118.741364 39.519161 118.741364 36.706257 
C 118.741364 33.893353 117.623785 31.19528 115.634762 29.206257 
C 113.645739 27.217234 110.947666 26.099655 108.134762 26.099655 
C 105.321859 26.099655 102.623785 27.217234 100.634762 29.206257 
C 98.645739 31.19528 97.52816 33.893353 97.52816 36.706257 
C 97.52816 39.519161 98.645739 42.217234 100.634762 44.206257 
C 102.623785 46.19528 105.321859 47.312859 108.134762 47.312859 
z
" clip-path="url(#pbae78fea04)" style="fill: #e0e0e0; fill-opacity: 0.62"/>
   </g>
   <g id="PathCollection_4">
    <path d="M 49.816429 79.691663 
C 52.629333 79.691663 55.327406 78.574085 57.316429 76.585062 
C 59.305453 74.596038 60.423031 71.897965 60.423031 69.085062 
C 60.423031 66.272158 59.305453 63.574085 57.316429 61.585062 
C 55.327406 59.596038 52.629333 58.47846 49.816429 58.47846 
C 47.003526 58.47846 44.305453 59.596038 42.316429 61.585062 
C 40.327406 63.574085 39.209828 66.272158 39.209828 69.085062 
C 39.209828 71.897965 40.327406 74.596038 42.316429 76.585062 
C 44.305453 78.574085 47.003526 79.691663 49.816429 79.691663 
z
" clip-path="url(#pbae78fea04)" style="fill: #e0e0e0; fill-opacity: 0.62"/>
   </g>
   <g id="PathCollection_5">
    <path d="M 153.087651 106.37999 
C 155.900554 106.37999 158.598627 105.262411 160.587651 103.273388 
C 162.576674 101.284365 163.694252 98.586292 163.694252 95.773388 
C 163.694252 92.960484 162.576674 90.262411 160.587651 88.273388 
C 158.598627 86.284365 155.900554 85.166786 153.087651 85.166786 
C 150.274747 85.166786 147.576674 86.284365 145.587651 88.273388 
C 143.598627 90.262411 142.481049 92.960484 142.481049 95.773388 
C 142.481049 98.586292 143.598627 101.284365 145.587651 103.273388 
C 147.576674 105.262411 150.274747 106.37999 153.087651 106.37999 
z
" clip-path="url(#pbae78fea04)" style="fill: #e0e0e0; fill-opacity: 0.62"/>
   </g>
   <g id="PathCollection_6">
    <path d="M 130.851065 93.687357 
C 133.663968 93.687357 136.362041 92.569779 138.351065 90.580756 
C 140.340088 88.591732 141.457666 85.893659 141.457666 83.080756 
C 141.457666 80.267852 140.340088 77.569779 138.351065 75.580756 
C 136.362041 73.591732 133.663968 72.474154 130.851065 72.474154 
C 128.038161 72.474154 125.340088 73.591732 123.351065 75.580756 
C 121.362041 77.569779 120.244463 80.267852 120.244463 83.080756 
C 120.244463 85.893659 121.362041 88.591732 123.351065 90.580756 
C 125.340088 92.569779 128.038161 93.687357 130.851065 93.687357 
z
" clip-path="url(#pbae78fea04)" style="fill: #e0e0e0; fill-opacity: 0.62"/>
   </g>
   <g id="PathCollection_7">
    <path d="M 128.607701 67.660942 
C 131.420605 67.660942 134.118678 66.543363 136.107701 64.55434 
C 138.096725 62.565317 139.214303 59.867244 139.214303 57.05434 
C 139.214303 54.241436 138.096725 51.543363 136.107701 49.55434 
C 134.118678 47.565317 131.420605 46.447738 128.607701 46.447738 
C 125.794798 46.447738 123.096725 47.565317 121.107701 49.55434 
C 119.118678 51.543363 118.0011 54.241436 118.0011 57.05434 
C 118.0011 59.867244 119.118678 62.565317 121.107701 64.55434 
C 123.096725 66.543363 125.794798 67.660942 128.607701 67.660942 
z
" clip-path="url(#pbae78fea04)" style="fill: #e0e0e0; fill-opacity: 0.62"/>
   </g>
   <g id="PathCollection_8">
    <path d="M 136.293015 42.073622 
C 139.105919 42.073622 141.803992 40.956043 143.793015 38.96702 
C 145.782038 36.977997 146.899617 34.279924 146.899617 31.46702 
C 146.899617 28.654116 145.782038 25.956043 143.793015 23.96702 
C 141.803992 21.977997 139.105919 20.860418 136.293015 20.860418 
C 133.480111 20.860418 130.782038 21.977997 128.793015 23.96702 
C 126.803992 25.956043 125.686413 28.654116 125.686413 31.46702 
C 125.686413 34.279924 126.803992 36.977997 128.793015 38.96702 
C 130.782038 40.956043 133.480111 42.073622 136.293015 42.073622 
z
" clip-path="url(#pbae78fea04)" style="fill: #e0e0e0; fill-opacity: 0.62"/>
   </g>
   <g id="PathCollection_9">
    <path d="M 56.13488 107.419368 
C 58.947783 107.419368 61.645856 106.301789 63.63488 104.312766 
C 65.623903 102.323743 66.741481 99.62567 66.741481 96.812766 
C 66.741481 93.999863 65.623903 91.301789 63.63488 89.312766 
C 61.645856 87.323743 58.947783 86.206165 56.13488 86.206165 
C 53.321976 86.206165 50.623903 87.323743 48.63488 89.312766 
C 46.645856 91.301789 45.528278 93.999863 45.528278 96.812766 
C 45.528278 99.62567 46.645856 102.323743 48.63488 104.312766 
C 50.623903 106.301789 53.321976 107.419368 56.13488 107.419368 
z
" clip-path="url(#pbae78fea04)" style="fill: #e0e0e0; fill-opacity: 0.62"/>
   </g>
   <g id="text_1">
    <!-- Class 1 -->
    <g transform="translate(8.373359 126.797299) scale(0.075 -0.075)">
     <defs>
      <path id="DejaVuSans-Bold-43" d="M 4288 256 
Q 3956 84 3597 -3 
Q 3238 -91 2847 -91 
Q 1681 -91 1000 561 
Q 319 1213 319 2328 
Q 319 3447 1000 4098 
Q 1681 4750 2847 4750 
Q 3238 4750 3597 4662 
Q 3956 4575 4288 4403 
L 4288 3438 
Q 3953 3666 3628 3772 
Q 3303 3878 2944 3878 
Q 2300 3878 1931 3465 
Q 1563 3053 1563 2328 
Q 1563 1606 1931 1193 
Q 2300 781 2944 781 
Q 3303 781 3628 887 
Q 3953 994 4288 1222 
L 4288 256 
z
" transform="scale(0.015625)"/>
      <path id="DejaVuSans-Bold-6c" d="M 538 4863 
L 1656 4863 
L 1656 0 
L 538 0 
L 538 4863 
z
" transform="scale(0.015625)"/>
      <path id="DejaVuSans-Bold-61" d="M 2106 1575 
Q 1756 1575 1579 1456 
Q 1403 1338 1403 1106 
Q 1403 894 1545 773 
Q 1688 653 1941 653 
Q 2256 653 2472 879 
Q 2688 1106 2688 1447 
L 2688 1575 
L 2106 1575 
z
M 3816 1997 
L 3816 0 
L 2688 0 
L 2688 519 
Q 2463 200 2181 54 
Q 1900 -91 1497 -91 
Q 953 -91 614 226 
Q 275 544 275 1050 
Q 275 1666 698 1953 
Q 1122 2241 2028 2241 
L 2688 2241 
L 2688 2328 
Q 2688 2594 2478 2717 
Q 2269 2841 1825 2841 
Q 1466 2841 1156 2769 
Q 847 2697 581 2553 
L 581 3406 
Q 941 3494 1303 3539 
Q 1666 3584 2028 3584 
Q 2975 3584 3395 3211 
Q 3816 2838 3816 1997 
z
" transform="scale(0.015625)"/>
      <path id="DejaVuSans-Bold-73" d="M 3272 3391 
L 3272 2541 
Q 2913 2691 2578 2766 
Q 2244 2841 1947 2841 
Q 1628 2841 1473 2761 
Q 1319 2681 1319 2516 
Q 1319 2381 1436 2309 
Q 1553 2238 1856 2203 
L 2053 2175 
Q 2913 2066 3209 1816 
Q 3506 1566 3506 1031 
Q 3506 472 3093 190 
Q 2681 -91 1863 -91 
Q 1516 -91 1145 -36 
Q 775 19 384 128 
L 384 978 
Q 719 816 1070 734 
Q 1422 653 1784 653 
Q 2113 653 2278 743 
Q 2444 834 2444 1013 
Q 2444 1163 2330 1236 
Q 2216 1309 1875 1350 
L 1678 1375 
Q 931 1469 631 1722 
Q 331 1975 331 2491 
Q 331 3047 712 3315 
Q 1094 3584 1881 3584 
Q 2191 3584 2531 3537 
Q 2872 3491 3272 3391 
z
" transform="scale(0.015625)"/>
      <path id="DejaVuSans-Bold-20" transform="scale(0.015625)"/>
      <path id="DejaVuSans-Bold-31" d="M 750 831 
L 1813 831 
L 1813 3847 
L 722 3622 
L 722 4441 
L 1806 4666 
L 2950 4666 
L 2950 831 
L 4013 831 
L 4013 0 
L 750 0 
L 750 831 
z
" transform="scale(0.015625)"/>
     </defs>
     <use xlink:href="#DejaVuSans-Bold-43"/>
     <use xlink:href="#DejaVuSans-Bold-6c" transform="translate(73.388672 0)"/>
     <use xlink:href="#DejaVuSans-Bold-61" transform="translate(107.666016 0)"/>
     <use xlink:href="#DejaVuSans-Bold-73" transform="translate(175.146484 0)"/>
     <use xlink:href="#DejaVuSans-Bold-73" transform="translate(234.667969 0)"/>
     <use xlink:href="#DejaVuSans-Bold-20" transform="translate(294.189453 0)"/>
     <use xlink:href="#DejaVuSans-Bold-31" transform="translate(329.003906 0)"/>
    </g>
   </g>
   <g id="text_2">
    <!-- n=1 -->
    <g style="fill: #444444" transform="translate(9.303732 17.564269) scale(0.065 -0.065)">
     <defs>
      <path id="DejaVuSans-6e" d="M 3513 2113 
L 3513 0 
L 2938 0 
L 2938 2094 
Q 2938 2591 2744 2837 
Q 2550 3084 2163 3084 
Q 1697 3084 1428 2787 
Q 1159 2491 1159 1978 
L 1159 0 
L 581 0 
L 581 3500 
L 1159 3500 
L 1159 2956 
Q 1366 3272 1645 3428 
Q 1925 3584 2291 3584 
Q 2894 3584 3203 3211 
Q 3513 2838 3513 2113 
z
" transform="scale(0.015625)"/>
      <path id="DejaVuSans-3d" d="M 678 2906 
L 4684 2906 
L 4684 2381 
L 678 2381 
L 678 2906 
z
M 678 1631 
L 4684 1631 
L 4684 1100 
L 678 1100 
L 678 1631 
z
" transform="scale(0.015625)"/>
      <path id="DejaVuSans-31" d="M 794 531 
L 1825 531 
L 1825 4091 
L 703 3866 
L 703 4441 
L 1819 4666 
L 2450 4666 
L 2450 531 
L 3481 531 
L 3481 0 
L 794 0 
L 794 531 
z
" transform="scale(0.015625)"/>
     </defs>
     <use xlink:href="#DejaVuSans-6e"/>
     <use xlink:href="#DejaVuSans-3d" transform="translate(63.378906 0)"/>
     <use xlink:href="#DejaVuSans-31" transform="translate(147.167969 0)"/>
    </g>
   </g>
   <g id="text_3">
    <!-- candidate -->
    <g style="fill: #ff9900" transform="translate(142.32916 17.564269) scale(0.065 -0.065)">
     <defs>
      <path id="DejaVuSans-Bold-63" d="M 3366 3391 
L 3366 2478 
Q 3138 2634 2908 2709 
Q 2678 2784 2431 2784 
Q 1963 2784 1702 2511 
Q 1441 2238 1441 1747 
Q 1441 1256 1702 982 
Q 1963 709 2431 709 
Q 2694 709 2930 787 
Q 3166 866 3366 1019 
L 3366 103 
Q 3103 6 2833 -42 
Q 2563 -91 2291 -91 
Q 1344 -91 809 395 
Q 275 881 275 1747 
Q 275 2613 809 3098 
Q 1344 3584 2291 3584 
Q 2566 3584 2833 3536 
Q 3100 3488 3366 3391 
z
" transform="scale(0.015625)"/>
      <path id="DejaVuSans-Bold-6e" d="M 4056 2131 
L 4056 0 
L 2931 0 
L 2931 347 
L 2931 1631 
Q 2931 2084 2911 2256 
Q 2891 2428 2841 2509 
Q 2775 2619 2662 2680 
Q 2550 2741 2406 2741 
Q 2056 2741 1856 2470 
Q 1656 2200 1656 1722 
L 1656 0 
L 538 0 
L 538 3500 
L 1656 3500 
L 1656 2988 
Q 1909 3294 2193 3439 
Q 2478 3584 2822 3584 
Q 3428 3584 3742 3212 
Q 4056 2841 4056 2131 
z
" transform="scale(0.015625)"/>
      <path id="DejaVuSans-Bold-64" d="M 2919 2988 
L 2919 4863 
L 4044 4863 
L 4044 0 
L 2919 0 
L 2919 506 
Q 2688 197 2409 53 
Q 2131 -91 1766 -91 
Q 1119 -91 703 423 
Q 288 938 288 1747 
Q 288 2556 703 3070 
Q 1119 3584 1766 3584 
Q 2128 3584 2408 3439 
Q 2688 3294 2919 2988 
z
M 2181 722 
Q 2541 722 2730 984 
Q 2919 1247 2919 1747 
Q 2919 2247 2730 2509 
Q 2541 2772 2181 2772 
Q 1825 2772 1636 2509 
Q 1447 2247 1447 1747 
Q 1447 1247 1636 984 
Q 1825 722 2181 722 
z
" transform="scale(0.015625)"/>
      <path id="DejaVuSans-Bold-69" d="M 538 3500 
L 1656 3500 
L 1656 0 
L 538 0 
L 538 3500 
z
M 538 4863 
L 1656 4863 
L 1656 3950 
L 538 3950 
L 538 4863 
z
" transform="scale(0.015625)"/>
      <path id="DejaVuSans-Bold-74" d="M 1759 4494 
L 1759 3500 
L 2913 3500 
L 2913 2700 
L 1759 2700 
L 1759 1216 
Q 1759 972 1856 886 
Q 1953 800 2241 800 
L 2816 800 
L 2816 0 
L 1856 0 
Q 1194 0 917 276 
Q 641 553 641 1216 
L 641 2700 
L 84 2700 
L 84 3500 
L 641 3500 
L 641 4494 
L 1759 4494 
z
" transform="scale(0.015625)"/>
      <path id="DejaVuSans-Bold-65" d="M 4031 1759 
L 4031 1441 
L 1416 1441 
Q 1456 1047 1700 850 
Q 1944 653 2381 653 
Q 2734 653 3104 758 
Q 3475 863 3866 1075 
L 3866 213 
Q 3469 63 3072 -14 
Q 2675 -91 2278 -91 
Q 1328 -91 801 392 
Q 275 875 275 1747 
Q 275 2603 792 3093 
Q 1309 3584 2216 3584 
Q 3041 3584 3536 3087 
Q 4031 2591 4031 1759 
z
M 2881 2131 
Q 2881 2450 2695 2645 
Q 2509 2841 2209 2841 
Q 1884 2841 1681 2658 
Q 1478 2475 1428 2131 
L 2881 2131 
z
" transform="scale(0.015625)"/>
     </defs>
     <use xlink:href="#DejaVuSans-Bold-63"/>
     <use xlink:href="#DejaVuSans-Bold-61" transform="translate(59.277344 0)"/>
     <use xlink:href="#DejaVuSans-Bold-6e" transform="translate(126.757812 0)"/>
     <use xlink:href="#DejaVuSans-Bold-64" transform="translate(197.949219 0)"/>
     <use xlink:href="#DejaVuSans-Bold-69" transform="translate(269.53125 0)"/>
     <use xlink:href="#DejaVuSans-Bold-64" transform="translate(303.808594 0)"/>
     <use xlink:href="#DejaVuSans-Bold-61" transform="translate(375.390625 0)"/>
     <use xlink:href="#DejaVuSans-Bold-74" transform="translate(442.871094 0)"/>
     <use xlink:href="#DejaVuSans-Bold-65" transform="translate(490.673828 0)"/>
    </g>
   </g>
   <g id="PathCollection_10">
    <path d="M 77.492465 81.311493 
C 79.033156 81.311493 80.510952 80.69937 81.600385 79.609937 
C 82.689818 78.520504 83.301941 77.042709 83.301941 75.502018 
C 83.301941 73.961327 82.689818 72.483532 81.600385 71.394099 
C 80.510952 70.304666 79.033156 69.692543 77.492465 69.692543 
C 75.951775 69.692543 74.473979 70.304666 73.384546 71.394099 
C 72.295113 72.483532 71.68299 73.961327 71.68299 75.502018 
C 71.68299 77.042709 72.295113 78.520504 73.384546 79.609937 
C 74.473979 80.69937 75.951775 81.311493 77.492465 81.311493 
z
" clip-path="url(#pbae78fea04)" style="fill: #333333; fill-opacity: 0.82"/>
   </g>
   <g id="PathCollection_11">
    <path d="M 84.545223 77.246227 
C 86.085913 77.246227 87.563709 76.634104 88.653142 75.544671 
C 89.742575 74.455238 90.354698 72.977443 90.354698 71.436752 
C 90.354698 69.896061 89.742575 68.418265 88.653142 67.328833 
C 87.563709 66.2394 86.085913 65.627277 84.545223 65.627277 
C 83.004532 65.627277 81.526736 66.2394 80.437303 67.328833 
C 79.34787 68.418265 78.735748 69.896061 78.735748 71.436752 
C 78.735748 72.977443 79.34787 74.455238 80.437303 75.544671 
C 81.526736 76.634104 83.004532 77.246227 84.545223 77.246227 
z
" clip-path="url(#pbae78fea04)" style="fill: #333333; fill-opacity: 0.82"/>
   </g>
   <g id="PathCollection_12">
    <path d="M 77.485953 89.451793 
C 79.026644 89.451793 80.504439 88.83967 81.593872 87.750237 
C 82.683305 86.660804 83.295428 85.183009 83.295428 83.642318 
C 83.295428 82.101627 82.683305 80.623832 81.593872 79.534399 
C 80.504439 78.444966 79.026644 77.832843 77.485953 77.832843 
C 75.945262 77.832843 74.467467 78.444966 73.378034 79.534399 
C 72.288601 80.623832 71.676478 82.101627 71.676478 83.642318 
C 71.676478 85.183009 72.288601 86.660804 73.378034 87.750237 
C 74.467467 88.83967 75.945262 89.451793 77.485953 89.451793 
z
" clip-path="url(#pbae78fea04)" style="fill: #3050f8; fill-opacity: 0.82"/>
   </g>
   <g id="PathCollection_13">
    <path d="M 70.446221 77.23483 
C 71.986912 77.23483 73.464708 76.622707 74.554141 75.533275 
C 75.643574 74.443842 76.255696 72.966046 76.255696 71.425355 
C 76.255696 69.884665 75.643574 68.406869 74.554141 67.317436 
C 73.464708 66.228003 71.986912 65.61588 70.446221 65.61588 
C 68.905531 65.61588 67.427735 66.228003 66.338302 67.317436 
C 65.248869 68.406869 64.636746 69.884665 64.636746 71.425355 
C 64.636746 72.966046 65.248869 74.443842 66.338302 75.533275 
C 67.427735 76.622707 68.905531 77.23483 70.446221 77.23483 
z
" clip-path="url(#pbae78fea04)" style="fill: #ff2000; fill-opacity: 0.82"/>
   </g>
   <g id="PathCollection_14">
    <path d="M 91.591467 81.32289 
C 93.132157 81.32289 94.609953 80.710767 95.699386 79.621334 
C 96.788819 78.531901 97.400942 77.054105 97.400942 75.513414 
C 97.400942 73.972724 96.788819 72.494928 95.699386 71.405495 
C 94.609953 70.316062 93.132157 69.703939 91.591467 69.703939 
C 90.050776 69.703939 88.57298 70.316062 87.483547 71.405495 
C 86.394115 72.494928 85.781992 73.972724 85.781992 75.513414 
C 85.781992 77.054105 86.394115 78.531901 87.483547 79.621334 
C 88.57298 80.710767 90.050776 81.32289 91.591467 81.32289 
z
" clip-path="url(#pbae78fea04)" style="fill: #333333; fill-opacity: 0.82"/>
   </g>
   <g id="PathCollection_15">
    <path d="M 98.644223 77.257623 
C 100.184914 77.257623 101.662709 76.6455 102.752142 75.556067 
C 103.841575 74.466634 104.453698 72.988839 104.453698 71.448148 
C 104.453698 69.907457 103.841575 68.429662 102.752142 67.340229 
C 101.662709 66.250796 100.184914 65.638673 98.644223 65.638673 
C 97.103532 65.638673 95.625737 66.250796 94.536304 67.340229 
C 93.446871 68.429662 92.834748 69.907457 92.834748 71.448148 
C 92.834748 72.988839 93.446871 74.466634 94.536304 75.556067 
C 95.625737 76.6455 97.103532 77.257623 98.644223 77.257623 
z
" clip-path="url(#pbae78fea04)" style="fill: #333333; fill-opacity: 0.82"/>
   </g>
   <g id="PathCollection_16">
    <path d="M 105.690468 81.334286 
C 107.231158 81.334286 108.708954 80.722163 109.798387 79.63273 
C 110.88782 78.543297 111.499943 77.065502 111.499943 75.524811 
C 111.499943 73.98412 110.88782 72.506325 109.798387 71.416892 
C 108.708954 70.327459 107.231158 69.715336 105.690468 69.715336 
C 104.149777 69.715336 102.671981 70.327459 101.582548 71.416892 
C 100.493116 72.506325 99.880993 73.98412 99.880993 75.524811 
C 99.880993 77.065502 100.493116 78.543297 101.582548 79.63273 
C 102.671981 80.722163 104.149777 81.334286 105.690468 81.334286 
z
" clip-path="url(#pbae78fea04)" style="fill: #333333; fill-opacity: 0.82"/>
   </g>
   <g id="PathCollection_17">
    <path d="M 98.650735 69.117321 
C 100.191426 69.117321 101.669222 68.505198 102.758655 67.415765 
C 103.848087 66.326333 104.46021 64.848537 104.46021 63.307846 
C 104.46021 61.767155 103.848087 60.28936 102.758655 59.199927 
C 101.669222 58.110494 100.191426 57.498371 98.650735 57.498371 
C 97.110045 57.498371 95.632249 58.110494 94.542816 59.199927 
C 93.453383 60.28936 92.84126 61.767155 92.84126 63.307846 
C 92.84126 64.848537 93.453383 66.326333 94.542816 67.415765 
C 95.632249 68.505198 97.110045 69.117321 98.650735 69.117321 
z
" clip-path="url(#pbae78fea04)" style="fill: #3050f8; fill-opacity: 0.82"/>
   </g>
   <g id="PathCollection_18">
    <path d="M 112.743224 77.26902 
C 114.283915 77.26902 115.76171 76.656897 116.851143 75.567464 
C 117.940576 74.478031 118.552699 73.000235 118.552699 71.459545 
C 118.552699 69.918854 117.940576 68.441058 116.851143 67.351625 
C 115.76171 66.262192 114.283915 65.650069 112.743224 65.650069 
C 111.202533 65.650069 109.724738 66.262192 108.635305 67.351625 
C 107.545872 68.441058 106.933749 69.918854 106.933749 71.459545 
C 106.933749 73.000235 107.545872 74.478031 108.635305 75.567464 
C 109.724738 76.656897 111.202533 77.26902 112.743224 77.26902 
z
" clip-path="url(#pbae78fea04)" style="fill: #ff2000; fill-opacity: 0.82"/>
   </g>
   <g id="PathCollection_19">
    <path d="M 105.683955 89.474586 
C 107.224646 89.474586 108.702442 88.862463 109.791874 87.77303 
C 110.881307 86.683597 111.49343 85.205802 111.49343 83.665111 
C 111.49343 82.12442 110.881307 80.646625 109.791874 79.557192 
C 108.702442 78.467759 107.224646 77.855636 105.683955 77.855636 
C 104.143264 77.855636 102.665469 78.467759 101.576036 79.557192 
C 100.486603 80.646625 99.87448 82.12442 99.87448 83.665111 
C 99.87448 85.205802 100.486603 86.683597 101.576036 87.77303 
C 102.665469 88.862463 104.143264 89.474586 105.683955 89.474586 
z
" clip-path="url(#pbae78fea04)" style="fill: #ff2000; fill-opacity: 0.82"/>
   </g>
   <g id="text_4">
    <!-- C1 -->
    <g style="fill: #ffffff" transform="translate(74.275669 76.743737) scale(0.045 -0.045)">
     <use xlink:href="#DejaVuSans-Bold-43"/>
     <use xlink:href="#DejaVuSans-Bold-31" transform="translate(73.388672 0)"/>
    </g>
   </g>
   <g id="text_5">
    <!-- C2 -->
    <g style="fill: #ffffff" transform="translate(81.328426 72.678471) scale(0.045 -0.045)">
     <defs>
      <path id="DejaVuSans-Bold-32" d="M 1844 884 
L 3897 884 
L 3897 0 
L 506 0 
L 506 884 
L 2209 2388 
Q 2438 2594 2547 2791 
Q 2656 2988 2656 3200 
Q 2656 3528 2436 3728 
Q 2216 3928 1850 3928 
Q 1569 3928 1234 3808 
Q 900 3688 519 3450 
L 519 4475 
Q 925 4609 1322 4679 
Q 1719 4750 2100 4750 
Q 2938 4750 3402 4381 
Q 3866 4013 3866 3353 
Q 3866 2972 3669 2642 
Q 3472 2313 2841 1759 
L 1844 884 
z
" transform="scale(0.015625)"/>
     </defs>
     <use xlink:href="#DejaVuSans-Bold-43"/>
     <use xlink:href="#DejaVuSans-Bold-32" transform="translate(73.388672 0)"/>
    </g>
   </g>
   <g id="text_6">
    <!-- N1 -->
    <g style="fill: #ffffff" transform="translate(74.037477 84.884037) scale(0.045 -0.045)">
     <defs>
      <path id="DejaVuSans-Bold-4e" d="M 588 4666 
L 1931 4666 
L 3628 1466 
L 3628 4666 
L 4769 4666 
L 4769 0 
L 3425 0 
L 1728 3200 
L 1728 0 
L 588 0 
L 588 4666 
z
" transform="scale(0.015625)"/>
     </defs>
     <use xlink:href="#DejaVuSans-Bold-4e"/>
     <use xlink:href="#DejaVuSans-Bold-31" transform="translate(83.691406 0)"/>
    </g>
   </g>
   <g id="text_7">
    <!-- O1 -->
    <g style="fill: #ffffff" transform="translate(66.967862 72.667074) scale(0.045 -0.045)">
     <defs>
      <path id="DejaVuSans-Bold-4f" d="M 2719 3878 
Q 2169 3878 1866 3472 
Q 1563 3066 1563 2328 
Q 1563 1594 1866 1187 
Q 2169 781 2719 781 
Q 3272 781 3575 1187 
Q 3878 1594 3878 2328 
Q 3878 3066 3575 3472 
Q 3272 3878 2719 3878 
z
M 2719 4750 
Q 3844 4750 4481 4106 
Q 5119 3463 5119 2328 
Q 5119 1197 4481 553 
Q 3844 -91 2719 -91 
Q 1597 -91 958 553 
Q 319 1197 319 2328 
Q 319 3463 958 4106 
Q 1597 4750 2719 4750 
z
" transform="scale(0.015625)"/>
     </defs>
     <use xlink:href="#DejaVuSans-Bold-4f"/>
     <use xlink:href="#DejaVuSans-Bold-31" transform="translate(85.009766 0)"/>
    </g>
   </g>
   <g id="text_8">
    <!-- C3 -->
    <g style="fill: #ffffff" transform="translate(88.37467 76.755133) scale(0.045 -0.045)">
     <defs>
      <path id="DejaVuSans-Bold-33" d="M 2981 2516 
Q 3453 2394 3698 2092 
Q 3944 1791 3944 1325 
Q 3944 631 3412 270 
Q 2881 -91 1863 -91 
Q 1503 -91 1142 -33 
Q 781 25 428 141 
L 428 1069 
Q 766 900 1098 814 
Q 1431 728 1753 728 
Q 2231 728 2486 893 
Q 2741 1059 2741 1369 
Q 2741 1688 2480 1852 
Q 2219 2016 1709 2016 
L 1228 2016 
L 1228 2791 
L 1734 2791 
Q 2188 2791 2409 2933 
Q 2631 3075 2631 3366 
Q 2631 3634 2415 3781 
Q 2200 3928 1806 3928 
Q 1516 3928 1219 3862 
Q 922 3797 628 3669 
L 628 4550 
Q 984 4650 1334 4700 
Q 1684 4750 2022 4750 
Q 2931 4750 3382 4451 
Q 3834 4153 3834 3553 
Q 3834 3144 3618 2883 
Q 3403 2622 2981 2516 
z
" transform="scale(0.015625)"/>
     </defs>
     <use xlink:href="#DejaVuSans-Bold-43"/>
     <use xlink:href="#DejaVuSans-Bold-33" transform="translate(73.388672 0)"/>
    </g>
   </g>
   <g id="text_9">
    <!-- C4 -->
    <g style="fill: #ffffff" transform="translate(95.427426 72.689867) scale(0.045 -0.045)">
     <defs>
      <path id="DejaVuSans-Bold-34" d="M 2356 3675 
L 1038 1722 
L 2356 1722 
L 2356 3675 
z
M 2156 4666 
L 3494 4666 
L 3494 1722 
L 4159 1722 
L 4159 850 
L 3494 850 
L 3494 0 
L 2356 0 
L 2356 850 
L 288 850 
L 288 1881 
L 2156 4666 
z
" transform="scale(0.015625)"/>
     </defs>
     <use xlink:href="#DejaVuSans-Bold-43"/>
     <use xlink:href="#DejaVuSans-Bold-34" transform="translate(73.388672 0)"/>
    </g>
   </g>
   <g id="text_10">
    <!-- C5 -->
    <g style="fill: #ffffff" transform="translate(102.473671 76.76653) scale(0.045 -0.045)">
     <defs>
      <path id="DejaVuSans-Bold-35" d="M 678 4666 
L 3669 4666 
L 3669 3781 
L 1638 3781 
L 1638 3059 
Q 1775 3097 1914 3117 
Q 2053 3138 2203 3138 
Q 3056 3138 3531 2711 
Q 4006 2284 4006 1522 
Q 4006 766 3489 337 
Q 2972 -91 2053 -91 
Q 1656 -91 1267 -14 
Q 878 63 494 219 
L 494 1166 
Q 875 947 1217 837 
Q 1559 728 1863 728 
Q 2300 728 2551 942 
Q 2803 1156 2803 1522 
Q 2803 1891 2551 2103 
Q 2300 2316 1863 2316 
Q 1603 2316 1309 2248 
Q 1016 2181 678 2041 
L 678 4666 
z
" transform="scale(0.015625)"/>
     </defs>
     <use xlink:href="#DejaVuSans-Bold-43"/>
     <use xlink:href="#DejaVuSans-Bold-35" transform="translate(73.388672 0)"/>
    </g>
   </g>
   <g id="text_11">
    <!-- N2 -->
    <g style="fill: #ffffff" transform="translate(95.202259 64.549565) scale(0.045 -0.045)">
     <use xlink:href="#DejaVuSans-Bold-4e"/>
     <use xlink:href="#DejaVuSans-Bold-32" transform="translate(83.691406 0)"/>
    </g>
   </g>
   <g id="text_12">
    <!-- O2 -->
    <g style="fill: #ffffff" transform="translate(109.264865 72.701263) scale(0.045 -0.045)">
     <use xlink:href="#DejaVuSans-Bold-4f"/>
     <use xlink:href="#DejaVuSans-Bold-32" transform="translate(85.009766 0)"/>
    </g>
   </g>
   <g id="text_13">
    <!-- O3 -->
    <g style="fill: #ffffff" transform="translate(102.205596 84.90683) scale(0.045 -0.045)">
     <use xlink:href="#DejaVuSans-Bold-4f"/>
     <use xlink:href="#DejaVuSans-Bold-33" transform="translate(85.009766 0)"/>
    </g>
   </g>
   <g id="text_14">
    <!-- F247 -->
    <g transform="translate(47.742913 45.635495) scale(0.065 -0.065)">
     <defs>
      <path id="DejaVuSans-Bold-46" d="M 588 4666 
L 3834 4666 
L 3834 3756 
L 1791 3756 
L 1791 2888 
L 3713 2888 
L 3713 1978 
L 1791 1978 
L 1791 0 
L 588 0 
L 588 4666 
z
" transform="scale(0.015625)"/>
      <path id="DejaVuSans-Bold-37" d="M 428 4666 
L 3944 4666 
L 3944 3988 
L 2125 0 
L 953 0 
L 2675 3781 
L 428 3781 
L 428 4666 
z
" transform="scale(0.015625)"/>
     </defs>
     <use xlink:href="#DejaVuSans-Bold-46"/>
     <use xlink:href="#DejaVuSans-Bold-32" transform="translate(68.310547 0)"/>
     <use xlink:href="#DejaVuSans-Bold-34" transform="translate(137.890625 0)"/>
     <use xlink:href="#DejaVuSans-Bold-37" transform="translate(207.470703 0)"/>
    </g>
   </g>
   <g id="text_15">
    <!-- V413 -->
    <g transform="translate(15.763698 77.715762) scale(0.065 -0.065)">
     <defs>
      <path id="DejaVuSans-Bold-56" d="M 31 4666 
L 1241 4666 
L 2478 1222 
L 3713 4666 
L 4922 4666 
L 3194 0 
L 1759 0 
L 31 4666 
z
" transform="scale(0.015625)"/>
     </defs>
     <use xlink:href="#DejaVuSans-Bold-56"/>
     <use xlink:href="#DejaVuSans-Bold-34" transform="translate(77.392578 0)"/>
     <use xlink:href="#DejaVuSans-Bold-31" transform="translate(146.972656 0)"/>
     <use xlink:href="#DejaVuSans-Bold-33" transform="translate(216.552734 0)"/>
    </g>
   </g>
   <g id="text_16">
    <!-- Y178 -->
    <g transform="translate(98.997692 38.499851) scale(0.065 -0.065)">
     <defs>
      <path id="DejaVuSans-Bold-59" d="M -63 4666 
L 1253 4666 
L 2316 3003 
L 3378 4666 
L 4697 4666 
L 2919 1966 
L 2919 0 
L 1716 0 
L 1716 1966 
L -63 4666 
z
" transform="scale(0.015625)"/>
      <path id="DejaVuSans-Bold-38" d="M 2228 2088 
Q 1891 2088 1709 1903 
Q 1528 1719 1528 1375 
Q 1528 1031 1709 848 
Q 1891 666 2228 666 
Q 2563 666 2741 848 
Q 2919 1031 2919 1375 
Q 2919 1722 2741 1905 
Q 2563 2088 2228 2088 
z
M 1350 2484 
Q 925 2613 709 2878 
Q 494 3144 494 3541 
Q 494 4131 934 4440 
Q 1375 4750 2228 4750 
Q 3075 4750 3515 4442 
Q 3956 4134 3956 3541 
Q 3956 3144 3739 2878 
Q 3522 2613 3097 2484 
Q 3572 2353 3814 2058 
Q 4056 1763 4056 1313 
Q 4056 619 3595 264 
Q 3134 -91 2228 -91 
Q 1319 -91 855 264 
Q 391 619 391 1313 
Q 391 1763 633 2058 
Q 875 2353 1350 2484 
z
M 1631 3419 
Q 1631 3141 1786 2991 
Q 1941 2841 2228 2841 
Q 2509 2841 2662 2991 
Q 2816 3141 2816 3419 
Q 2816 3697 2662 3845 
Q 2509 3994 2228 3994 
Q 1941 3994 1786 3844 
Q 1631 3694 1631 3419 
z
" transform="scale(0.015625)"/>
     </defs>
     <use xlink:href="#DejaVuSans-Bold-59"/>
     <use xlink:href="#DejaVuSans-Bold-31" transform="translate(72.412109 0)"/>
     <use xlink:href="#DejaVuSans-Bold-37" transform="translate(141.992188 0)"/>
     <use xlink:href="#DejaVuSans-Bold-38" transform="translate(211.572266 0)"/>
    </g>
   </g>
   <g id="text_17">
    <!-- S215 -->
    <g transform="translate(40.692054 70.878655) scale(0.065 -0.065)">
     <defs>
      <path id="DejaVuSans-Bold-53" d="M 3834 4519 
L 3834 3531 
Q 3450 3703 3084 3790 
Q 2719 3878 2394 3878 
Q 1963 3878 1756 3759 
Q 1550 3641 1550 3391 
Q 1550 3203 1689 3098 
Q 1828 2994 2194 2919 
L 2706 2816 
Q 3484 2659 3812 2340 
Q 4141 2022 4141 1434 
Q 4141 663 3683 286 
Q 3225 -91 2284 -91 
Q 1841 -91 1394 -6 
Q 947 78 500 244 
L 500 1259 
Q 947 1022 1364 901 
Q 1781 781 2169 781 
Q 2563 781 2772 912 
Q 2981 1044 2981 1288 
Q 2981 1506 2839 1625 
Q 2697 1744 2272 1838 
L 1806 1941 
Q 1106 2091 782 2419 
Q 459 2747 459 3303 
Q 459 4000 909 4375 
Q 1359 4750 2203 4750 
Q 2588 4750 2994 4692 
Q 3400 4634 3834 4519 
z
" transform="scale(0.015625)"/>
     </defs>
     <use xlink:href="#DejaVuSans-Bold-53"/>
     <use xlink:href="#DejaVuSans-Bold-32" transform="translate(72.021484 0)"/>
     <use xlink:href="#DejaVuSans-Bold-31" transform="translate(141.601562 0)"/>
     <use xlink:href="#DejaVuSans-Bold-35" transform="translate(211.181641 0)"/>
    </g>
   </g>
   <g id="text_18">
    <!-- N264 -->
    <g transform="translate(143.58394 97.566982) scale(0.065 -0.065)">
     <defs>
      <path id="DejaVuSans-Bold-36" d="M 2316 2303 
Q 2000 2303 1842 2098 
Q 1684 1894 1684 1484 
Q 1684 1075 1842 870 
Q 2000 666 2316 666 
Q 2634 666 2792 870 
Q 2950 1075 2950 1484 
Q 2950 1894 2792 2098 
Q 2634 2303 2316 2303 
z
M 3803 4544 
L 3803 3681 
Q 3506 3822 3243 3889 
Q 2981 3956 2731 3956 
Q 2194 3956 1894 3657 
Q 1594 3359 1544 2772 
Q 1750 2925 1990 3001 
Q 2231 3078 2516 3078 
Q 3231 3078 3670 2659 
Q 4109 2241 4109 1563 
Q 4109 813 3618 361 
Q 3128 -91 2303 -91 
Q 1394 -91 895 523 
Q 397 1138 397 2266 
Q 397 3422 980 4083 
Q 1563 4744 2578 4744 
Q 2900 4744 3203 4694 
Q 3506 4644 3803 4544 
z
" transform="scale(0.015625)"/>
     </defs>
     <use xlink:href="#DejaVuSans-Bold-4e"/>
     <use xlink:href="#DejaVuSans-Bold-32" transform="translate(83.691406 0)"/>
     <use xlink:href="#DejaVuSans-Bold-36" transform="translate(153.271484 0)"/>
     <use xlink:href="#DejaVuSans-Bold-34" transform="translate(222.851562 0)"/>
    </g>
   </g>
   <g id="text_19">
    <!-- E310 -->
    <g transform="translate(121.847041 84.874349) scale(0.065 -0.065)">
     <defs>
      <path id="DejaVuSans-Bold-45" d="M 588 4666 
L 3834 4666 
L 3834 3756 
L 1791 3756 
L 1791 2888 
L 3713 2888 
L 3713 1978 
L 1791 1978 
L 1791 909 
L 3903 909 
L 3903 0 
L 588 0 
L 588 4666 
z
" transform="scale(0.015625)"/>
      <path id="DejaVuSans-Bold-30" d="M 2944 2338 
Q 2944 3213 2780 3570 
Q 2616 3928 2228 3928 
Q 1841 3928 1675 3570 
Q 1509 3213 1509 2338 
Q 1509 1453 1675 1090 
Q 1841 728 2228 728 
Q 2613 728 2778 1090 
Q 2944 1453 2944 2338 
z
M 4147 2328 
Q 4147 1169 3647 539 
Q 3147 -91 2228 -91 
Q 1306 -91 806 539 
Q 306 1169 306 2328 
Q 306 3491 806 4120 
Q 1306 4750 2228 4750 
Q 3147 4750 3647 4120 
Q 4147 3491 4147 2328 
z
" transform="scale(0.015625)"/>
     </defs>
     <use xlink:href="#DejaVuSans-Bold-45"/>
     <use xlink:href="#DejaVuSans-Bold-33" transform="translate(68.310547 0)"/>
     <use xlink:href="#DejaVuSans-Bold-31" transform="translate(137.890625 0)"/>
     <use xlink:href="#DejaVuSans-Bold-30" transform="translate(207.470703 0)"/>
    </g>
   </g>
   <g id="text_20">
    <!-- N317 -->
    <g transform="translate(119.103991 58.847934) scale(0.065 -0.065)">
     <use xlink:href="#DejaVuSans-Bold-4e"/>
     <use xlink:href="#DejaVuSans-Bold-33" transform="translate(83.691406 0)"/>
     <use xlink:href="#DejaVuSans-Bold-31" transform="translate(153.271484 0)"/>
     <use xlink:href="#DejaVuSans-Bold-37" transform="translate(222.851562 0)"/>
    </g>
   </g>
   <g id="text_21">
    <!-- Y343 -->
    <g transform="translate(127.155945 33.260614) scale(0.065 -0.065)">
     <use xlink:href="#DejaVuSans-Bold-59"/>
     <use xlink:href="#DejaVuSans-Bold-33" transform="translate(72.412109 0)"/>
     <use xlink:href="#DejaVuSans-Bold-34" transform="translate(141.992188 0)"/>
     <use xlink:href="#DejaVuSans-Bold-33" transform="translate(211.572266 0)"/>
    </g>
   </g>
   <g id="text_22">
    <!-- Y395 -->
    <g transform="translate(46.997809 98.60636) scale(0.065 -0.065)">
     <defs>
      <path id="DejaVuSans-Bold-39" d="M 641 103 
L 641 966 
Q 928 831 1190 764 
Q 1453 697 1709 697 
Q 2247 697 2547 995 
Q 2847 1294 2900 1881 
Q 2688 1725 2447 1647 
Q 2206 1569 1925 1569 
Q 1209 1569 770 1986 
Q 331 2403 331 3084 
Q 331 3838 820 4291 
Q 1309 4744 2131 4744 
Q 3044 4744 3544 4128 
Q 4044 3513 4044 2388 
Q 4044 1231 3459 570 
Q 2875 -91 1856 -91 
Q 1528 -91 1228 -42 
Q 928 6 641 103 
z
M 2125 2350 
Q 2441 2350 2600 2554 
Q 2759 2759 2759 3169 
Q 2759 3575 2600 3781 
Q 2441 3988 2125 3988 
Q 1809 3988 1650 3781 
Q 1491 3575 1491 3169 
Q 1491 2759 1650 2554 
Q 1809 2350 2125 2350 
z
" transform="scale(0.015625)"/>
     </defs>
     <use xlink:href="#DejaVuSans-Bold-59"/>
     <use xlink:href="#DejaVuSans-Bold-33" transform="translate(72.412109 0)"/>
     <use xlink:href="#DejaVuSans-Bold-39" transform="translate(141.992188 0)"/>
     <use xlink:href="#DejaVuSans-Bold-35" transform="translate(211.572266 0)"/>
    </g>
   </g>
   <g id="patch_27">
    <path d="M 1.860746 138.878135 
L 184.213899 138.878135 
L 184.213899 1.402809 
L 1.860746 1.402809 
L 1.860746 138.878135 
z
" clip-path="url(#pbae78fea04)" style="fill: none; stroke: #ff9900; stroke-width: 1.2; stroke-linejoin: miter"/>
   </g>
  </g>
 </g>
 <defs>
  <clipPath id="pbae78fea04">
   <rect x="0" y="0" width="186.074646" height="140.280945"/>
  </clipPath>
 </defs>
</svg>
