<?xml version="1.0" encoding="utf-8" standalone="no"?>
<!DOCTYPE svg PUBLIC "-//W3C//DTD SVG 1.1//EN"
  "http://www.w3.org/Graphics/SVG/1.1/DTD/svg11.dtd">
<svg xmlns:xlink="http://www.w3.org/1999/xlink" width="186.074646pt" height="140.280945pt" viewBox="0 0 186.074646 140.280945" xmlns="http://www.w3.org/2000/svg" version="1.1">
 <metadata>
  <rdf:RDF xmlns:dc="http://purl.org/dc/elements/1.1/" xmlns:cc="http://creativecommons.org/ns#" xmlns:rdf="http://www.w3.org/1999/02/22-rdf-syntax-ns#">
   <cc:Work>
    <dc:type rdf:resource="http://purl.org/dc/dcmitype/StillImage"/>
    <dc:date>2026-09-01T11:24:27.512102</dc:date>
    <dc:format>image/svg+xml</dc:format>
    <dc:creator>
     <cc:Agent>
      <dc:title>Matplotlib v3.10.1, https://matplotlib.org/</dc:title>
     </cc:Agent>
    </dc:creator>
   </cc:Work>
  </rdf:RDF>
 </metadata>
 <defs>
  <style type="text/css">*{stroke-linejoin: round; stroke-linecap: butt}</style>
 </defs>
 <g id="figure_1">
  <g id="patch_1">
   <path d="M 0 140.280945 
L 186.074646 140.280945 
L 186.074646 0 
L 0 0 
z
" style="fill: #ffffff"/>
  </g>
  <g id="axes_1">
   <g id="patch_2">
    <path d="M 0 140.280945 
L 186.074646 140.280945 
L 186.074646 0 
L 0 0 
z
" style="fill: #ffffff"/>
   </g>
   <g id="line2d_1">
    <path d="M 61.969586 66.118386 
L 69.449407 61.808682 
" clip-path="url(#pdb638a5cc0)" style="fill: none; stroke: #808080; stroke-width: 0.8; stroke-linecap: square"/>
   </g>
   <g id="line2d_2">
    <path d="M 61.969586 66.118386 
L 54.49667 61.796595 
" clip-path="url(#pdb638a5cc0)" style="fill: none; stroke: #808080; stroke-width: 0.8; stroke-linecap: square"/>
   </g>
   <g id="line2d_3">
    <path d="M 61.969586 66.118386 
L 61.962678 74.751608 
" clip-path="url(#pdb638a5cc0)" style="fill: none; stroke: #808080; stroke-width: 0.8; stroke-linecap: square"/>
   </g>
   <g id="line2d_4">
    <path d="M 69.449407 61.808682 
L 76.920598 66.130472 
" clip-path="url(#pdb638a5cc0)" style="fill: none; stroke: #808080; stroke-width: 0.8; stroke-linecap: square"/>
   </g>
   <g id="line2d_5">
    <path d="M 54.49667 61.796595 
L 47.016845 66.106299 
" clip-path="url(#pdb638a5cc0)" style="fill: none; stroke: #808080; stroke-width: 0.8; stroke-linecap: square"/>
   </g>
   <g id="line2d_6">
    <path d="M 54.49667 61.796595 
L 54.501849 53.163374 
" clip-path="url(#pdb638a5cc0)" style="fill: none; stroke: #808080; stroke-width: 0.8; stroke-linecap: square"/>
   </g>
   <g id="line2d_7">
    <path d="M 76.920598 66.130472 
L 84.402147 61.820768 
" clip-path="url(#pdb638a5cc0)" style="fill: none; stroke: #808080; stroke-width: 0.8; stroke-linecap: square"/>
   </g>
   <g id="line2d_8">
    <path d="M 76.920598 66.130472 
L 76.913691 74.763694 
" clip-path="url(#pdb638a5cc0)" style="fill: none; stroke: #808080; stroke-width: 0.8; stroke-linecap: square"/>
   </g>
   <g id="line2d_9">
    <path d="M 84.402147 61.820768 
L 91.875064 66.142558 
" clip-path="url(#pdb638a5cc0)" style="fill: none; stroke: #808080; stroke-width: 0.8; stroke-linecap: square"/>
   </g>
   <g id="line2d_10">
    <path d="M 76.913691 74.763694 
L 84.388334 79.085484 
" clip-path="url(#pdb638a5cc0)" style="fill: none; stroke: #808080; stroke-width: 0.8; stroke-linecap: square"/>
   </g>
   <g id="line2d_11">
    <path d="M 91.875064 66.142558 
L 91.868157 74.77578 
" clip-path="url(#pdb638a5cc0)" style="fill: none; stroke: #808080; stroke-width: 0.8; stroke-linecap: square"/>
   </g>
   <g id="line2d_12">
    <path d="M 91.868157 74.77578 
L 84.388334 79.085484 
" clip-path="url(#pdb638a5cc0)" style="fill: none; stroke: #808080; stroke-width: 0.8; stroke-linecap: square"/>
   </g>
   <g id="line2d_13">
    <path d="M 91.868157 74.77578 
L 99.341073 79.099298 
" clip-path="url(#pdb638a5cc0)" style="fill: none; stroke: #808080; stroke-width: 0.8; stroke-linecap: square"/>
   </g>
   <g id="line2d_14">
    <path d="M 99.341073 79.099298 
L 106.820896 74.787867 
" clip-path="url(#pdb638a5cc0)" style="fill: none; stroke: #808080; stroke-width: 0.8; stroke-linecap: square"/>
   </g>
   <g id="line2d_15">
    <path d="M 106.820896 74.787867 
L 111.130601 82.267688 
" clip-path="url(#pdb638a5cc0)" style="fill: none; stroke: #808080; stroke-width: 0.8; stroke-linecap: square"/>
   </g>
   <g id="line2d_16">
    <path d="M 106.820896 74.787867 
L 102.509465 67.308043 
" clip-path="url(#pdb638a5cc0)" style="fill: none; stroke: #808080; stroke-width: 0.8; stroke-linecap: square"/>
   </g>
   <g id="line2d_17">
    <path d="M 106.820896 74.787867 
L 114.30072 70.476436 
" clip-path="url(#pdb638a5cc0)" style="fill: none; stroke: #808080; stroke-width: 0.8; stroke-linecap: square"/>
   </g>
   <g id="matplotlib.axis_1"/>
   <g id="matplotlib.axis_2"/>
   <g id="patch_3">
    <path d="M 62.951103 45.4581 
C 62.850811 45.043568 62.729033 44.6267 62.588694 44.217516 
C 62.448355 43.808331 62.290588 43.410134 62.119186 43.032494 
" clip-path="url(#pdb638a5cc0)" style="fill: none; opacity: 0.82; stroke: #2e8b57; stroke-linejoin: miter"/>
   </g>
   <g id="patch_4">
    <path d="M 63.825055 45.129694 
C 63.729483 44.735814 63.613681 44.339735 63.480406 43.950891 
C 63.347131 43.562047 63.197451 43.183548 63.034929 42.82441 
" clip-path="url(#pdb638a5cc0)" style="fill: none; opacity: 0.82; stroke: #2e8b57; stroke-linejoin: miter"/>
   </g>
   <g id="patch_5">
    <path d="M 64.699002 44.801287 
C 64.608154 44.428061 64.498329 44.052771 64.372119 43.684269 
C 64.245908 43.315766 64.10431 42.95697 63.950664 42.616339 
" clip-path="url(#pdb638a5cc0)" style="fill: none; opacity: 0.82; stroke: #2e8b57; stroke-linejoin: miter"/>
   </g>
   <g id="patch_6">
    <path d="M 65.572943 44.472879 
C 65.486824 44.120307 65.38298 43.765809 65.263832 43.41765 
C 65.144684 43.069491 65.011166 42.730399 64.866391 42.408282 
" clip-path="url(#pdb638a5cc0)" style="fill: none; opacity: 0.82; stroke: #2e8b57; stroke-linejoin: miter"/>
   </g>
   <g id="patch_7">
    <path d="M 66.64977 44.181625 
C 66.558922 43.808399 66.449098 43.43311 66.322887 43.064607 
C 66.196676 42.696104 66.055078 42.337308 65.901433 41.996677 
" clip-path="url(#pdb638a5cc0)" style="fill: none; opacity: 0.82; stroke: #2e8b57; stroke-linejoin: miter"/>
   </g>
   <g id="patch_8">
    <path d="M 67.726591 43.890371 
C 67.631019 43.496491 67.515217 43.100412 67.381942 42.711567 
C 67.248667 42.322723 67.098987 41.944225 66.936465 41.585087 
" clip-path="url(#pdb638a5cc0)" style="fill: none; opacity: 0.82; stroke: #2e8b57; stroke-linejoin: miter"/>
   </g>
   <g id="patch_9">
    <path d="M 68.803407 43.599115 
C 68.703115 43.184582 68.581337 42.767715 68.440998 42.35853 
C 68.300659 41.949346 68.142892 41.551149 67.97149 41.173509 
" clip-path="url(#pdb638a5cc0)" style="fill: none; opacity: 0.82; stroke: #2e8b57; stroke-linejoin: miter"/>
   </g>
   <g id="patch_10">
    <path d="M 60.033192 75.27525 
Q 48.55439 78.529377 38.374484 84.751982 
" clip-path="url(#pdb638a5cc0)" style="fill: none; opacity: 0.82; stroke-dasharray: 3.7,1.6; stroke-dashoffset: 0; stroke: #1f77b4; stroke-linecap: round"/>
   </g>
   <g id="patch_11">
    <path d="M 69.766133 45.698073 
C 69.521887 45.348446 69.256777 45.004462 68.977173 44.674388 
C 68.69757 44.344314 68.405731 44.030815 68.108672 43.741425 
" clip-path="url(#pdb638a5cc0)" style="fill: none; opacity: 0.82; stroke: #2e8b57; stroke-linejoin: miter"/>
   </g>
   <g id="patch_12">
    <path d="M 70.460689 45.074186 
C 70.228353 44.742078 69.976373 44.415284 69.710751 44.101585 
C 69.445129 43.787886 69.167989 43.489794 68.885934 43.214407 
" clip-path="url(#pdb638a5cc0)" style="fill: none; opacity: 0.82; stroke: #2e8b57; stroke-linejoin: miter"/>
   </g>
   <g id="patch_13">
    <path d="M 71.15524 44.4503 
C 70.934819 44.135711 70.695971 43.826106 70.44433 43.528785 
C 70.192689 43.231463 69.930247 42.948781 69.663193 42.687403 
" clip-path="url(#pdb638a5cc0)" style="fill: none; opacity: 0.82; stroke: #2e8b57; stroke-linejoin: miter"/>
   </g>
   <g id="patch_14">
    <path d="M 71.849785 43.826415 
C 71.641283 43.529344 71.415571 43.236929 71.177911 42.955987 
C 70.940251 42.675045 70.692505 42.407777 70.44045 42.160416 
" clip-path="url(#pdb638a5cc0)" style="fill: none; opacity: 0.82; stroke: #2e8b57; stroke-linejoin: miter"/>
   </g>
   <g id="patch_15">
    <path d="M 72.746827 43.163316 
C 72.526406 42.848728 72.287559 42.539123 72.035918 42.241801 
C 71.784276 41.94448 71.521835 41.661797 71.254781 41.40042 
" clip-path="url(#pdb638a5cc0)" style="fill: none; opacity: 0.82; stroke: #2e8b57; stroke-linejoin: miter"/>
   </g>
   <g id="patch_16">
    <path d="M 73.643864 42.500219 
C 73.411528 42.168112 73.159548 41.841317 72.893926 41.527618 
C 72.628303 41.213919 72.351164 40.915827 72.069108 40.64044 
" clip-path="url(#pdb638a5cc0)" style="fill: none; opacity: 0.82; stroke: #2e8b57; stroke-linejoin: miter"/>
   </g>
   <g id="patch_17">
    <path d="M 74.540895 41.837123 
C 74.296649 41.487496 74.031539 41.143512 73.751935 40.813438 
C 73.472332 40.483363 73.180494 40.169864 72.883434 39.880475 
" clip-path="url(#pdb638a5cc0)" style="fill: none; opacity: 0.82; stroke: #2e8b57; stroke-linejoin: miter"/>
   </g>
   <g id="patch_18">
    <path d="M 112.362225 80.56499 
C 112.782753 80.636064 113.21389 80.688308 113.645275 80.720466 
C 114.07666 80.752623 114.504809 80.764434 114.919433 80.755616 
" clip-path="url(#pdb638a5cc0)" style="fill: none; opacity: 0.82; stroke: #2e8b57; stroke-linejoin: miter"/>
   </g>
   <g id="patch_19">
    <path d="M 112.31989 81.497647 
C 112.719576 81.564926 113.12925 81.614476 113.539157 81.645116 
C 113.949063 81.675756 114.355921 81.687242 114.750041 81.679299 
" clip-path="url(#pdb638a5cc0)" style="fill: none; opacity: 0.82; stroke: #2e8b57; stroke-linejoin: miter"/>
   </g>
   <g id="patch_20">
    <path d="M 112.277557 82.430301 
C 112.656398 82.493788 113.044609 82.540644 113.433036 82.569766 
C 113.821463 82.598888 114.207028 82.610043 114.58064 82.60297 
" clip-path="url(#pdb638a5cc0)" style="fill: none; opacity: 0.82; stroke: #2e8b57; stroke-linejoin: miter"/>
   </g>
   <g id="patch_21">
    <path d="M 112.235228 83.36295 
C 112.593221 83.422648 112.959967 83.466813 113.326912 83.494415 
C 113.693858 83.522017 114.058128 83.532838 114.411229 83.526628 
" clip-path="url(#pdb638a5cc0)" style="fill: none; opacity: 0.82; stroke: #2e8b57; stroke-linejoin: miter"/>
   </g>
   <g id="patch_22">
    <path d="M 112.078842 84.467453 
C 112.457683 84.53094 112.845894 84.577797 113.234321 84.606918 
C 113.622748 84.63604 114.008313 84.647196 114.381925 84.640123 
" clip-path="url(#pdb638a5cc0)" style="fill: none; opacity: 0.82; stroke: #2e8b57; stroke-linejoin: miter"/>
   </g>
   <g id="patch_23">
    <path d="M 111.92246 85.571952 
C 112.322146 85.639231 112.73182 85.68878 113.141727 85.719421 
C 113.551633 85.750061 113.958491 85.761546 114.352611 85.753603 
" clip-path="url(#pdb638a5cc0)" style="fill: none; opacity: 0.82; stroke: #2e8b57; stroke-linejoin: miter"/>
   </g>
   <g id="patch_24">
    <path d="M 111.76608 86.676446 
C 112.186608 86.747521 112.617745 86.799765 113.04913 86.831922 
C 113.480515 86.86408 113.908664 86.875891 114.323288 86.867072 
" clip-path="url(#pdb638a5cc0)" style="fill: none; opacity: 0.82; stroke: #2e8b57; stroke-linejoin: miter"/>
   </g>
   <g id="patch_25">
    <path d="M 127.514124 74.353281 
C 127.940593 74.348829 128.374171 74.323967 128.80444 74.279291 
C 129.234709 74.234615 129.658193 74.170487 130.064715 74.088447 
" clip-path="url(#pdb638a5cc0)" style="fill: none; opacity: 0.82; stroke: #2e8b57; stroke-linejoin: miter"/>
   </g>
   <g id="patch_26">
    <path d="M 127.637474 75.278715 
C 128.042758 75.274215 128.454736 75.250498 128.863597 75.208129 
C 129.272457 75.16576 129.674929 75.105078 130.061425 75.027528 
" clip-path="url(#pdb638a5cc0)" style="fill: none; opacity: 0.82; stroke: #2e8b57; stroke-linejoin: miter"/>
   </g>
   <g id="patch_27">
    <path d="M 127.760826 76.204144 
C 128.144923 76.1996 128.5353 76.17703 128.922751 76.136967 
C 129.310202 76.096904 129.691658 76.039664 130.058124 75.966599 
" clip-path="url(#pdb638a5cc0)" style="fill: none; opacity: 0.82; stroke: #2e8b57; stroke-linejoin: miter"/>
   </g>
   <g id="patch_28">
    <path d="M 127.88418 77.129567 
C 128.247088 77.124984 128.615862 77.103563 128.981902 77.065804 
C 129.347942 77.028046 129.70838 76.974246 130.054811 76.905658 
" clip-path="url(#pdb638a5cc0)" style="fill: none; opacity: 0.82; stroke: #2e8b57; stroke-linejoin: miter"/>
   </g>
   <g id="patch_29">
    <path d="M 127.925684 78.244315 
C 128.309782 78.239771 128.700158 78.217201 129.087609 78.177138 
C 129.47506 78.137075 129.856516 78.079835 130.222983 78.00677 
" clip-path="url(#pdb638a5cc0)" style="fill: none; opacity: 0.82; stroke: #2e8b57; stroke-linejoin: miter"/>
   </g>
   <g id="patch_30">
    <path d="M 127.967191 79.359057 
C 128.372475 79.354557 128.784453 79.33084 129.193314 79.288471 
C 129.602174 79.246102 130.004645 79.18542 130.391142 79.10787 
" clip-path="url(#pdb638a5cc0)" style="fill: none; opacity: 0.82; stroke: #2e8b57; stroke-linejoin: miter"/>
   </g>
   <g id="patch_31">
    <path d="M 128.008699 80.473794 
C 128.435168 80.469343 128.868747 80.44448 129.299015 80.399804 
C 129.729284 80.355129 130.152768 80.291 130.55929 80.20896 
" clip-path="url(#pdb638a5cc0)" style="fill: none; opacity: 0.82; stroke: #2e8b57; stroke-linejoin: miter"/>
   </g>
   <g id="patch_32">
    <path d="M 108.649948 73.974254 
Q 122.450775 67.68385 133.967283 57.814664 
" clip-path="url(#pdb638a5cc0)" style="fill: none; opacity: 0.82; stroke-dasharray: 3.7,1.6; stroke-dashoffset: 0; stroke: #dc143c; stroke-linecap: round"/>
   </g>
   <g id="patch_33">
    <path d="M 113.127819 82.199511 
Q 136.549086 81.255995 158.701383 73.592932 
" clip-path="url(#pdb638a5cc0)" style="fill: none; opacity: 0.82; stroke-dasharray: 3.7,1.6; stroke-dashoffset: 0; stroke: #1f77b4; stroke-linecap: round"/>
   </g>
   <g id="patch_34">
    <path d="M 111.606786 84.210339 
Q 114.625073 95.959151 120.69992 106.45872 
" clip-path="url(#pdb638a5cc0)" style="fill: none; opacity: 0.82; stroke-dasharray: 3.7,1.6; stroke-dashoffset: 0; stroke: #1f77b4; stroke-linecap: round"/>
   </g>
   <g id="patch_35">
    <path d="M 103.887242 68.755498 
Q 124.179525 89.862046 149.765148 104.097055 
" clip-path="url(#pdb638a5cc0)" style="fill: none; opacity: 0.82; stroke-dasharray: 3.7,1.6; stroke-dashoffset: 0; stroke: #1f77b4; stroke-linecap: round"/>
   </g>
   <g id="patch_36">
    <path d="M 104.481822 66.975291 
Q 119.765542 64.256224 133.691348 57.396348 
" clip-path="url(#pdb638a5cc0)" style="fill: none; opacity: 0.82; stroke-dasharray: 3.7,1.6; stroke-dashoffset: 0; stroke: #1f77b4; stroke-linecap: round"/>
   </g>
   <g id="patch_37">
    <path d="M 115.498233 68.873242 
Q 128.2887 51.510543 135.56397 31.209515 
" clip-path="url(#pdb638a5cc0)" style="fill: none; opacity: 0.82; stroke-dasharray: 3.7,1.6; stroke-dashoffset: 0; stroke: #1f77b4; stroke-linecap: round"/>
   </g>
   <g id="patch_38">
    <path d="M 115.771922 71.828361 
Q 123.275057 78.54583 132.27787 83.059125 
" clip-path="url(#pdb638a5cc0)" style="fill: none; opacity: 0.82; stroke-dasharray: 3.7,1.6; stroke-dashoffset: 0; stroke: #1f77b4; stroke-linecap: round"/>
   </g>
   <g id="PathCollection_1">
    <path d="M 59.781456 41.979439 
C 62.59436 41.979439 65.292433 40.861861 67.281456 38.872838 
C 69.270479 36.883814 70.388058 34.185741 70.388058 31.372838 
C 70.388058 28.559934 69.270479 25.861861 67.281456 23.872838 
C 65.292433 21.883814 62.59436 20.766236 59.781456 20.766236 
C 56.968552 20.766236 54.270479 21.883814 52.281456 23.872838 
C 50.292433 25.861861 49.174854 28.559934 49.174854 31.372838 
C 49.174854 34.185741 50.292433 36.883814 52.281456 38.872838 
C 54.270479 40.861861 56.968552 41.979439 59.781456 41.979439 
z
" clip-path="url(#pdb638a5cc0)" style="fill: #e0e0e0; fill-opacity: 0.62"/>
   </g>
   <g id="PathCollection_2">
    <path d="M 134.077956 94.539084 
C 136.89086 94.539084 139.588933 93.421506 141.577956 91.432483 
C 143.56698 89.443459 144.684558 86.745386 144.684558 83.932483 
C 144.684558 81.119579 143.56698 78.421506 141.577956 76.432483 
C 139.588933 74.443459 136.89086 73.325881 134.077956 73.325881 
C 131.265053 73.325881 128.56698 74.443459 126.577956 76.432483 
C 124.588933 78.421506 123.471355 81.119579 123.471355 83.932483 
C 123.471355 86.745386 124.588933 89.443459 126.577956 91.432483 
C 128.56698 93.421506 131.265053 94.539084 134.077956 94.539084 
z
" clip-path="url(#pdb638a5cc0)" style="fill: #e0e0e0; fill-opacity: 0.62"/>
   </g>
   <g id="PathCollection_3">
    <path d="M 160.585164 83.534911 
C 163.398068 83.534911 166.096141 82.417333 168.085164 80.428309 
C 170.074188 78.439286 171.191766 75.741213 171.191766 72.928309 
C 171.191766 70.115406 170.074188 67.417333 168.085164 65.428309 
C 166.096141 63.439286 163.398068 62.321708 160.585164 62.321708 
C 157.772261 62.321708 155.074188 63.439286 153.085164 65.428309 
C 151.096141 67.417333 149.978563 70.115406 149.978563 72.928309 
C 149.978563 75.741213 151.096141 78.439286 153.085164 80.428309 
C 155.074188 82.417333 157.772261 83.534911 160.585164 83.534911 
z
" clip-path="url(#pdb638a5cc0)" style="fill: #e0e0e0; fill-opacity: 0.62"/>
   </g>
   <g id="PathCollection_4">
    <path d="M 36.678637 96.421577 
C 39.491541 96.421577 42.189614 95.303999 44.178637 93.314976 
C 46.16766 91.325952 47.285239 88.627879 47.285239 85.814976 
C 47.285239 83.002072 46.16766 80.303999 44.178637 78.314976 
C 42.189614 76.325952 39.491541 75.208374 36.678637 75.208374 
C 33.865734 75.208374 31.16766 76.325952 29.178637 78.314976 
C 27.189614 80.303999 26.072035 83.002072 26.072035 85.814976 
C 26.072035 88.627879 27.189614 91.325952 29.178637 93.314976 
C 31.16766 95.303999 33.865734 96.421577 36.678637 96.421577 
z
" clip-path="url(#pdb638a5cc0)" style="fill: #e0e0e0; fill-opacity: 0.62"/>
   </g>
   <g id="PathCollection_5">
    <path d="M 151.518694 115.667826 
C 154.331598 115.667826 157.029671 114.550248 159.018694 112.561224 
C 161.007717 110.572201 162.125296 107.874128 162.125296 105.061224 
C 162.125296 102.248321 161.007717 99.550248 159.018694 97.561224 
C 157.029671 95.572201 154.331598 94.454623 151.518694 94.454623 
C 148.70579 94.454623 146.007717 95.572201 144.018694 97.561224 
C 142.029671 99.550248 140.912092 102.248321 140.912092 105.061224 
C 140.912092 107.874128 142.029671 110.572201 144.018694 112.561224 
C 146.007717 114.550248 148.70579 115.667826 151.518694 115.667826 
z
" clip-path="url(#pdb638a5cc0)" style="fill: #e0e0e0; fill-opacity: 0.62"/>
   </g>
   <g id="PathCollection_6">
    <path d="M 136.225827 39.929973 
C 139.038731 39.929973 141.736804 38.812394 143.725827 36.823371 
C 145.71485 34.834348 146.832429 32.136275 146.832429 29.323371 
C 146.832429 26.510468 145.71485 23.812394 143.725827 21.823371 
C 141.736804 19.834348 139.038731 18.716769 136.225827 18.716769 
C 133.412923 18.716769 130.71485 19.834348 128.725827 21.823371 
C 126.736804 23.812394 125.619225 26.510468 125.619225 29.323371 
C 125.619225 32.136275 126.736804 34.834348 128.725827 36.823371 
C 130.71485 38.812394 133.412923 39.929973 136.225827 39.929973 
z
" clip-path="url(#pdb638a5cc0)" style="fill: #e0e0e0; fill-opacity: 0.62"/>
   </g>
   <g id="PathCollection_7">
    <path d="M 121.720662 118.785285 
C 124.533566 118.785285 127.231639 117.667707 129.220662 115.678683 
C 131.209685 113.68966 132.327264 110.991587 132.327264 108.178683 
C 132.327264 105.36578 131.209685 102.667707 129.220662 100.678683 
C 127.231639 98.68966 124.533566 97.572082 121.720662 97.572082 
C 118.907759 97.572082 116.209685 98.68966 114.220662 100.678683 
C 112.231639 102.667707 111.114061 105.36578 111.114061 108.178683 
C 111.114061 110.991587 112.231639 113.68966 114.220662 115.678683 
C 116.209685 117.667707 118.907759 118.785285 121.720662 118.785285 
z
" clip-path="url(#pdb638a5cc0)" style="fill: #e0e0e0; fill-opacity: 0.62"/>
   </g>
   <g id="PathCollection_8">
    <path d="M 135.476891 67.103496 
C 138.289794 67.103496 140.987868 65.985917 142.976891 63.996894 
C 144.965914 62.007871 146.083493 59.309798 146.083493 56.496894 
C 146.083493 53.68399 144.965914 50.985917 142.976891 48.996894 
C 140.987868 47.007871 138.289794 45.890292 135.476891 45.890292 
C 132.663987 45.890292 129.965914 47.007871 127.976891 48.996894 
C 125.987868 50.985917 124.870289 53.68399 124.870289 56.496894 
C 124.870289 59.309798 125.987868 62.007871 127.976891 63.996894 
C 129.965914 65.985917 132.663987 67.103496 135.476891 67.103496 
z
" clip-path="url(#pdb638a5cc0)" style="fill: #e0e0e0; fill-opacity: 0.62"/>
   </g>
   <g id="text_1">
    <!-- Class 30 -->
    <g transform="translate(8.373359 126.797299) scale(0.075 -0.075)">
     <defs>
      <path id="DejaVuSans-Bold-43" d="M 4288 256 
Q 3956 84 3597 -3 
Q 3238 -91 2847 -91 
Q 1681 -91 1000 561 
Q 319 1213 319 2328 
Q 319 3447 1000 4098 
Q 1681 4750 2847 4750 
Q 3238 4750 3597 4662 
Q 3956 4575 4288 4403 
L 4288 3438 
Q 3953 3666 3628 3772 
Q 3303 3878 2944 3878 
Q 2300 3878 1931 3465 
Q 1563 3053 1563 2328 
Q 1563 1606 1931 1193 
Q 2300 781 2944 781 
Q 3303 781 3628 887 
Q 3953 994 4288 1222 
L 4288 256 
z
" transform="scale(0.015625)"/>
      <path id="DejaVuSans-Bold-6c" d="M 538 4863 
L 1656 4863 
L 1656 0 
L 538 0 
L 538 4863 
z
" transform="scale(0.015625)"/>
      <path id="DejaVuSans-Bold-61" d="M 2106 1575 
Q 1756 1575 1579 1456 
Q 1403 1338 1403 1106 
Q 1403 894 1545 773 
Q 1688 653 1941 653 
Q 2256 653 2472 879 
Q 2688 1106 2688 1447 
L 2688 1575 
L 2106 1575 
z
M 3816 1997 
L 3816 0 
L 2688 0 
L 2688 519 
Q 2463 200 2181 54 
Q 1900 -91 1497 -91 
Q 953 -91 614 226 
Q 275 544 275 1050 
Q 275 1666 698 1953 
Q 1122 2241 2028 2241 
L 2688 2241 
L 2688 2328 
Q 2688 2594 2478 2717 
Q 2269 2841 1825 2841 
Q 1466 2841 1156 2769 
Q 847 2697 581 2553 
L 581 3406 
Q 941 3494 1303 3539 
Q 1666 3584 2028 3584 
Q 2975 3584 3395 3211 
Q 3816 2838 3816 1997 
z
" transform="scale(0.015625)"/>
      <path id="DejaVuSans-Bold-73" d="M 3272 3391 
L 3272 2541 
Q 2913 2691 2578 2766 
Q 2244 2841 1947 2841 
Q 1628 2841 1473 2761 
Q 1319 2681 1319 2516 
Q 1319 2381 1436 2309 
Q 1553 2238 1856 2203 
L 2053 2175 
Q 2913 2066 3209 1816 
Q 3506 1566 3506 1031 
Q 3506 472 3093 190 
Q 2681 -91 1863 -91 
Q 1516 -91 1145 -36 
Q 775 19 384 128 
L 384 978 
Q 719 816 1070 734 
Q 1422 653 1784 653 
Q 2113 653 2278 743 
Q 2444 834 2444 1013 
Q 2444 1163 2330 1236 
Q 2216 1309 1875 1350 
L 1678 1375 
Q 931 1469 631 1722 
Q 331 1975 331 2491 
Q 331 3047 712 3315 
Q 1094 3584 1881 3584 
Q 2191 3584 2531 3537 
Q 2872 3491 3272 3391 
z
" transform="scale(0.015625)"/>
      <path id="DejaVuSans-Bold-20" transform="scale(0.015625)"/>
      <path id="DejaVuSans-Bold-33" d="M 2981 2516 
Q 3453 2394 3698 2092 
Q 3944 1791 3944 1325 
Q 3944 631 3412 270 
Q 2881 -91 1863 -91 
Q 1503 -91 1142 -33 
Q 781 25 428 141 
L 428 1069 
Q 766 900 1098 814 
Q 1431 728 1753 728 
Q 2231 728 2486 893 
Q 2741 1059 2741 1369 
Q 2741 1688 2480 1852 
Q 2219 2016 1709 2016 
L 1228 2016 
L 1228 2791 
L 1734 2791 
Q 2188 2791 2409 2933 
Q 2631 3075 2631 3366 
Q 2631 3634 2415 3781 
Q 2200 3928 1806 3928 
Q 1516 3928 1219 3862 
Q 922 3797 628 3669 
L 628 4550 
Q 984 4650 1334 4700 
Q 1684 4750 2022 4750 
Q 2931 4750 3382 4451 
Q 3834 4153 3834 3553 
Q 3834 3144 3618 2883 
Q 3403 2622 2981 2516 
z
" transform="scale(0.015625)"/>
      <path id="DejaVuSans-Bold-30" d="M 2944 2338 
Q 2944 3213 2780 3570 
Q 2616 3928 2228 3928 
Q 1841 3928 1675 3570 
Q 1509 3213 1509 2338 
Q 1509 1453 1675 1090 
Q 1841 728 2228 728 
Q 2613 728 2778 1090 
Q 2944 1453 2944 2338 
z
M 4147 2328 
Q 4147 1169 3647 539 
Q 3147 -91 2228 -91 
Q 1306 -91 806 539 
Q 306 1169 306 2328 
Q 306 3491 806 4120 
Q 1306 4750 2228 4750 
Q 3147 4750 3647 4120 
Q 4147 3491 4147 2328 
z
" transform="scale(0.015625)"/>
     </defs>
     <use xlink:href="#DejaVuSans-Bold-43"/>
     <use xlink:href="#DejaVuSans-Bold-6c" transform="translate(73.388672 0)"/>
     <use xlink:href="#DejaVuSans-Bold-61" transform="translate(107.666016 0)"/>
     <use xlink:href="#DejaVuSans-Bold-73" transform="translate(175.146484 0)"/>
     <use xlink:href="#DejaVuSans-Bold-73" transform="translate(234.667969 0)"/>
     <use xlink:href="#DejaVuSans-Bold-20" transform="translate(294.189453 0)"/>
     <use xlink:href="#DejaVuSans-Bold-33" transform="translate(329.003906 0)"/>
     <use xlink:href="#DejaVuSans-Bold-30" transform="translate(398.583984 0)"/>
    </g>
   </g>
   <g id="text_2">
    <!-- n=2 -->
    <g style="fill: #444444" transform="translate(9.303732 17.564269) scale(0.065 -0.065)">
     <defs>
      <path id="DejaVuSans-6e" d="M 3513 2113 
L 3513 0 
L 2938 0 
L 2938 2094 
Q 2938 2591 2744 2837 
Q 2550 3084 2163 3084 
Q 1697 3084 1428 2787 
Q 1159 2491 1159 1978 
L 1159 0 
L 581 0 
L 581 3500 
L 1159 3500 
L 1159 2956 
Q 1366 3272 1645 3428 
Q 1925 3584 2291 3584 
Q 2894 3584 3203 3211 
Q 3513 2838 3513 2113 
z
" transform="scale(0.015625)"/>
      <path id="DejaVuSans-3d" d="M 678 2906 
L 4684 2906 
L 4684 2381 
L 678 2381 
L 678 2906 
z
M 678 1631 
L 4684 1631 
L 4684 1100 
L 678 1100 
L 678 1631 
z
" transform="scale(0.015625)"/>
      <path id="DejaVuSans-32" d="M 1228 531 
L 3431 531 
L 3431 0 
L 469 0 
L 469 531 
Q 828 903 1448 1529 
Q 2069 2156 2228 2338 
Q 2531 2678 2651 2914 
Q 2772 3150 2772 3378 
Q 2772 3750 2511 3984 
Q 2250 4219 1831 4219 
Q 1534 4219 1204 4116 
Q 875 4013 500 3803 
L 500 4441 
Q 881 4594 1212 4672 
Q 1544 4750 1819 4750 
Q 2544 4750 2975 4387 
Q 3406 4025 3406 3419 
Q 3406 3131 3298 2873 
Q 3191 2616 2906 2266 
Q 2828 2175 2409 1742 
Q 1991 1309 1228 531 
z
" transform="scale(0.015625)"/>
     </defs>
     <use xlink:href="#DejaVuSans-6e"/>
     <use xlink:href="#DejaVuSans-3d" transform="translate(63.378906 0)"/>
     <use xlink:href="#DejaVuSans-32" transform="translate(147.167969 0)"/>
    </g>
   </g>
   <g id="PathCollection_9">
    <path d="M 61.969586 71.927861 
C 63.510277 71.927861 64.988072 71.315738 66.077505 70.226305 
C 67.166938 69.136872 67.779061 67.659076 67.779061 66.118386 
C 67.779061 64.577695 67.166938 63.099899 66.077505 62.010466 
C 64.988072 60.921033 63.510277 60.308911 61.969586 60.308911 
C 60.428895 60.308911 58.951099 60.921033 57.861667 62.010466 
C 56.772234 63.099899 56.160111 64.577695 56.160111 66.118386 
C 56.160111 67.659076 56.772234 69.136872 57.861667 70.226305 
C 58.951099 71.315738 60.428895 71.927861 61.969586 71.927861 
z
" clip-path="url(#pdb638a5cc0)" style="fill: #333333; fill-opacity: 0.82"/>
   </g>
   <g id="PathCollection_10">
    <path d="M 69.449407 67.618157 
C 70.990098 67.618157 72.467894 67.006034 73.557327 65.916601 
C 74.646759 64.827168 75.258882 63.349372 75.258882 61.808682 
C 75.258882 60.267991 74.646759 58.790195 73.557327 57.700762 
C 72.467894 56.61133 70.990098 55.999207 69.449407 55.999207 
C 67.908717 55.999207 66.430921 56.61133 65.341488 57.700762 
C 64.252055 58.790195 63.639932 60.267991 63.639932 61.808682 
C 63.639932 63.349372 64.252055 64.827168 65.341488 65.916601 
C 66.430921 67.006034 67.908717 67.618157 69.449407 67.618157 
z
" clip-path="url(#pdb638a5cc0)" style="fill: #333333; fill-opacity: 0.82"/>
   </g>
   <g id="PathCollection_11">
    <path d="M 54.49667 67.60607 
C 56.03736 67.60607 57.515156 66.993947 58.604589 65.904514 
C 59.694022 64.815081 60.306145 63.337286 60.306145 61.796595 
C 60.306145 60.255904 59.694022 58.778109 58.604589 57.688676 
C 57.515156 56.599243 56.03736 55.98712 54.49667 55.98712 
C 52.955979 55.98712 51.478183 56.599243 50.38875 57.688676 
C 49.299318 58.778109 48.687195 60.255904 48.687195 61.796595 
C 48.687195 63.337286 49.299318 64.815081 50.38875 65.904514 
C 51.478183 66.993947 52.955979 67.60607 54.49667 67.60607 
z
" clip-path="url(#pdb638a5cc0)" style="fill: #333333; fill-opacity: 0.82"/>
   </g>
   <g id="PathCollection_12">
    <path d="M 61.962678 80.561083 
C 63.503369 80.561083 64.981164 79.94896 66.070597 78.859527 
C 67.16003 77.770094 67.772153 76.292298 67.772153 74.751608 
C 67.772153 73.210917 67.16003 71.733121 66.070597 70.643688 
C 64.981164 69.554255 63.503369 68.942133 61.962678 68.942133 
C 60.421987 68.942133 58.944191 69.554255 57.854759 70.643688 
C 56.765326 71.733121 56.153203 73.210917 56.153203 74.751608 
C 56.153203 76.292298 56.765326 77.770094 57.854759 78.859527 
C 58.944191 79.94896 60.421987 80.561083 61.962678 80.561083 
z
" clip-path="url(#pdb638a5cc0)" style="fill: #3050f8; fill-opacity: 0.82"/>
   </g>
   <g id="PathCollection_13">
    <path d="M 76.920598 71.939947 
C 78.461289 71.939947 79.939084 71.327824 81.028517 70.238391 
C 82.11795 69.148958 82.730073 67.671163 82.730073 66.130472 
C 82.730073 64.589781 82.11795 63.111986 81.028517 62.022553 
C 79.939084 60.93312 78.461289 60.320997 76.920598 60.320997 
C 75.379907 60.320997 73.902112 60.93312 72.812679 62.022553 
C 71.723246 63.111986 71.111123 64.589781 71.111123 66.130472 
C 71.111123 67.671163 71.723246 69.148958 72.812679 70.238391 
C 73.902112 71.327824 75.379907 71.939947 76.920598 71.939947 
z
" clip-path="url(#pdb638a5cc0)" style="fill: #333333; fill-opacity: 0.82"/>
   </g>
   <g id="PathCollection_14">
    <path d="M 84.402147 67.630243 
C 85.942838 67.630243 87.420634 67.01812 88.510066 65.928687 
C 89.599499 64.839254 90.211622 63.361459 90.211622 61.820768 
C 90.211622 60.280077 89.599499 58.802282 88.510066 57.712849 
C 87.420634 56.623416 85.942838 56.011293 84.402147 56.011293 
C 82.861456 56.011293 81.383661 56.623416 80.294228 57.712849 
C 79.204795 58.802282 78.592672 60.280077 78.592672 61.820768 
C 78.592672 63.361459 79.204795 64.839254 80.294228 65.928687 
C 81.383661 67.01812 82.861456 67.630243 84.402147 67.630243 
z
" clip-path="url(#pdb638a5cc0)" style="fill: #333333; fill-opacity: 0.82"/>
   </g>
   <g id="PathCollection_15">
    <path d="M 76.913691 80.573169 
C 78.454382 80.573169 79.932177 79.961046 81.02161 78.871613 
C 82.111043 77.78218 82.723166 76.304385 82.723166 74.763694 
C 82.723166 73.223003 82.111043 71.745208 81.02161 70.655775 
C 79.932177 69.566342 78.454382 68.954219 76.913691 68.954219 
C 75.373 68.954219 73.895205 69.566342 72.805772 70.655775 
C 71.716339 71.745208 71.104216 73.223003 71.104216 74.763694 
C 71.104216 76.304385 71.716339 77.78218 72.805772 78.871613 
C 73.895205 79.961046 75.373 80.573169 76.913691 80.573169 
z
" clip-path="url(#pdb638a5cc0)" style="fill: #333333; fill-opacity: 0.82"/>
   </g>
   <g id="PathCollection_16">
    <path d="M 91.875064 71.952033 
C 93.415754 71.952033 94.89355 71.339911 95.982983 70.250478 
C 97.072416 69.161045 97.684539 67.683249 97.684539 66.142558 
C 97.684539 64.601868 97.072416 63.124072 95.982983 62.034639 
C 94.89355 60.945206 93.415754 60.333083 91.875064 60.333083 
C 90.334373 60.333083 88.856577 60.945206 87.767144 62.034639 
C 86.677711 63.124072 86.065589 64.601868 86.065589 66.142558 
C 86.065589 67.683249 86.677711 69.161045 87.767144 70.250478 
C 88.856577 71.339911 90.334373 71.952033 91.875064 71.952033 
z
" clip-path="url(#pdb638a5cc0)" style="fill: #333333; fill-opacity: 0.82"/>
   </g>
   <g id="PathCollection_17">
    <path d="M 91.868157 80.585255 
C 93.408848 80.585255 94.886643 79.973133 95.976076 78.8837 
C 97.065509 77.794267 97.677632 76.316471 97.677632 74.77578 
C 97.677632 73.23509 97.065509 71.757294 95.976076 70.667861 
C 94.886643 69.578428 93.408848 68.966305 91.868157 68.966305 
C 90.327466 68.966305 88.849671 69.578428 87.760238 70.667861 
C 86.670805 71.757294 86.058682 73.23509 86.058682 74.77578 
C 86.058682 76.316471 86.670805 77.794267 87.760238 78.8837 
C 88.849671 79.973133 90.327466 80.585255 91.868157 80.585255 
z
" clip-path="url(#pdb638a5cc0)" style="fill: #333333; fill-opacity: 0.82"/>
   </g>
   <g id="PathCollection_18">
    <path d="M 84.388334 84.894959 
C 85.929025 84.894959 87.40682 84.282836 88.496253 83.193404 
C 89.585686 82.103971 90.197809 80.626175 90.197809 79.085484 
C 90.197809 77.544794 89.585686 76.066998 88.496253 74.977565 
C 87.40682 73.888132 85.929025 73.276009 84.388334 73.276009 
C 82.847643 73.276009 81.369848 73.888132 80.280415 74.977565 
C 79.190982 76.066998 78.578859 77.544794 78.578859 79.085484 
C 78.578859 80.626175 79.190982 82.103971 80.280415 83.193404 
C 81.369848 84.282836 82.847643 84.894959 84.388334 84.894959 
z
" clip-path="url(#pdb638a5cc0)" style="fill: #333333; fill-opacity: 0.82"/>
   </g>
   <g id="PathCollection_19">
    <path d="M 99.341073 84.908773 
C 100.881764 84.908773 102.35956 84.29665 103.448993 83.207217 
C 104.538425 82.117784 105.150548 80.639989 105.150548 79.099298 
C 105.150548 77.558607 104.538425 76.080812 103.448993 74.991379 
C 102.35956 73.901946 100.881764 73.289823 99.341073 73.289823 
C 97.800383 73.289823 96.322587 73.901946 95.233154 74.991379 
C 94.143721 76.080812 93.531598 77.558607 93.531598 79.099298 
C 93.531598 80.639989 94.143721 82.117784 95.233154 83.207217 
C 96.322587 84.29665 97.800383 84.908773 99.341073 84.908773 
z
" clip-path="url(#pdb638a5cc0)" style="fill: #ff2000; fill-opacity: 0.82"/>
   </g>
   <g id="PathCollection_20">
    <path d="M 47.016845 71.915774 
C 48.557536 71.915774 50.035332 71.303651 51.124765 70.214218 
C 52.214197 69.124785 52.82632 67.64699 52.82632 66.106299 
C 52.82632 64.565608 52.214197 63.087813 51.124765 61.99838 
C 50.035332 60.908947 48.557536 60.296824 47.016845 60.296824 
C 45.476155 60.296824 43.998359 60.908947 42.908926 61.99838 
C 41.819493 63.087813 41.20737 64.565608 41.20737 66.106299 
C 41.20737 67.64699 41.819493 69.124785 42.908926 70.214218 
C 43.998359 71.303651 45.476155 71.915774 47.016845 71.915774 
z
" clip-path="url(#pdb638a5cc0)" style="fill: #ff2000; fill-opacity: 0.82"/>
   </g>
   <g id="PathCollection_21">
    <path d="M 54.501849 58.972849 
C 56.04254 58.972849 57.520336 58.360726 58.609769 57.271293 
C 59.699201 56.18186 60.311324 54.704065 60.311324 53.163374 
C 60.311324 51.622683 59.699201 50.144888 58.609769 49.055455 
C 57.520336 47.966022 56.04254 47.353899 54.501849 47.353899 
C 52.961159 47.353899 51.483363 47.966022 50.39393 49.055455 
C 49.304497 50.144888 48.692374 51.622683 48.692374 53.163374 
C 48.692374 54.704065 49.304497 56.18186 50.39393 57.271293 
C 51.483363 58.360726 52.961159 58.972849 54.501849 58.972849 
z
" clip-path="url(#pdb638a5cc0)" style="fill: #ff2000; fill-opacity: 0.82"/>
   </g>
   <g id="PathCollection_22">
    <path d="M 106.820896 80.597342 
C 108.361587 80.597342 109.839382 79.985219 110.928815 78.895786 
C 112.018248 77.806353 112.630371 76.328558 112.630371 74.787867 
C 112.630371 73.247176 112.018248 71.769381 110.928815 70.679948 
C 109.839382 69.590515 108.361587 68.978392 106.820896 68.978392 
C 105.280205 68.978392 103.80241 69.590515 102.712977 70.679948 
C 101.623544 71.769381 101.011421 73.247176 101.011421 74.787867 
C 101.011421 76.328558 101.623544 77.806353 102.712977 78.895786 
C 103.80241 79.985219 105.280205 80.597342 106.820896 80.597342 
z
" clip-path="url(#pdb638a5cc0)" style="fill: #ff8000; fill-opacity: 0.82"/>
   </g>
   <g id="PathCollection_23">
    <path d="M 111.130601 88.077164 
C 112.671292 88.077164 114.149088 87.465041 115.238521 86.375608 
C 116.327954 85.286175 116.940076 83.808379 116.940076 82.267688 
C 116.940076 80.726998 116.327954 79.249202 115.238521 78.159769 
C 114.149088 77.070336 112.671292 76.458213 111.130601 76.458213 
C 109.589911 76.458213 108.112115 77.070336 107.022682 78.159769 
C 105.933249 79.249202 105.321126 80.726998 105.321126 82.267688 
C 105.321126 83.808379 105.933249 85.286175 107.022682 86.375608 
C 108.112115 87.465041 109.589911 88.077164 111.130601 88.077164 
z
" clip-path="url(#pdb638a5cc0)" style="fill: #ff2000; fill-opacity: 0.82"/>
   </g>
   <g id="PathCollection_24">
    <path d="M 102.509465 73.117518 
C 104.050156 73.117518 105.527952 72.505395 106.617384 71.415963 
C 107.706817 70.32653 108.31894 68.848734 108.31894 67.308043 
C 108.31894 65.767353 107.706817 64.289557 106.617384 63.200124 
C 105.527952 62.110691 104.050156 61.498568 102.509465 61.498568 
C 100.968774 61.498568 99.490979 62.110691 98.401546 63.200124 
C 97.312113 64.289557 96.69999 65.767353 96.69999 67.308043 
C 96.69999 68.848734 97.312113 70.32653 98.401546 71.415963 
C 99.490979 72.505395 100.968774 73.117518 102.509465 73.117518 
z
" clip-path="url(#pdb638a5cc0)" style="fill: #ff2000; fill-opacity: 0.82"/>
   </g>
   <g id="PathCollection_25">
    <path d="M 114.30072 76.285911 
C 115.841411 76.285911 117.319207 75.673788 118.40864 74.584355 
C 119.498073 73.494922 120.110195 72.017127 120.110195 70.476436 
C 120.110195 68.935745 119.498073 67.45795 118.40864 66.368517 
C 117.319207 65.279084 115.841411 64.666961 114.30072 64.666961 
C 112.76003 64.666961 111.282234 65.279084 110.192801 66.368517 
C 109.103368 67.45795 108.491245 68.935745 108.491245 70.476436 
C 108.491245 72.017127 109.103368 73.494922 110.192801 74.584355 
C 111.282234 75.673788 112.76003 76.285911 114.30072 76.285911 
z
" clip-path="url(#pdb638a5cc0)" style="fill: #ff2000; fill-opacity: 0.82"/>
   </g>
   <g id="text_3">
    <!-- C1 -->
    <g style="fill: #ffffff" transform="translate(58.752789 67.360104) scale(0.045 -0.045)">
     <defs>
      <path id="DejaVuSans-Bold-31" d="M 750 831 
L 1813 831 
L 1813 3847 
L 722 3622 
L 722 4441 
L 1806 4666 
L 2950 4666 
L 2950 831 
L 4013 831 
L 4013 0 
L 750 0 
L 750 831 
z
" transform="scale(0.015625)"/>
     </defs>
     <use xlink:href="#DejaVuSans-Bold-43"/>
     <use xlink:href="#DejaVuSans-Bold-31" transform="translate(73.388672 0)"/>
    </g>
   </g>
   <g id="text_4">
    <!-- C2 -->
    <g style="fill: #ffffff" transform="translate(66.23261 63.0504) scale(0.045 -0.045)">
     <defs>
      <path id="DejaVuSans-Bold-32" d="M 1844 884 
L 3897 884 
L 3897 0 
L 506 0 
L 506 884 
L 2209 2388 
Q 2438 2594 2547 2791 
Q 2656 2988 2656 3200 
Q 2656 3528 2436 3728 
Q 2216 3928 1850 3928 
Q 1569 3928 1234 3808 
Q 900 3688 519 3450 
L 519 4475 
Q 925 4609 1322 4679 
Q 1719 4750 2100 4750 
Q 2938 4750 3402 4381 
Q 3866 4013 3866 3353 
Q 3866 2972 3669 2642 
Q 3472 2313 2841 1759 
L 1844 884 
z
" transform="scale(0.015625)"/>
     </defs>
     <use xlink:href="#DejaVuSans-Bold-43"/>
     <use xlink:href="#DejaVuSans-Bold-32" transform="translate(73.388672 0)"/>
    </g>
   </g>
   <g id="text_5">
    <!-- C9 -->
    <g style="fill: #ffffff" transform="translate(51.279873 63.038314) scale(0.045 -0.045)">
     <defs>
      <path id="DejaVuSans-Bold-39" d="M 641 103 
L 641 966 
Q 928 831 1190 764 
Q 1453 697 1709 697 
Q 2247 697 2547 995 
Q 2847 1294 2900 1881 
Q 2688 1725 2447 1647 
Q 2206 1569 1925 1569 
Q 1209 1569 770 1986 
Q 331 2403 331 3084 
Q 331 3838 820 4291 
Q 1309 4744 2131 4744 
Q 3044 4744 3544 4128 
Q 4044 3513 4044 2388 
Q 4044 1231 3459 570 
Q 2875 -91 1856 -91 
Q 1528 -91 1228 -42 
Q 928 6 641 103 
z
M 2125 2350 
Q 2441 2350 2600 2554 
Q 2759 2759 2759 3169 
Q 2759 3575 2600 3781 
Q 2441 3988 2125 3988 
Q 1809 3988 1650 3781 
Q 1491 3575 1491 3169 
Q 1491 2759 1650 2554 
Q 1809 2350 2125 2350 
z
" transform="scale(0.015625)"/>
     </defs>
     <use xlink:href="#DejaVuSans-Bold-43"/>
     <use xlink:href="#DejaVuSans-Bold-39" transform="translate(73.388672 0)"/>
    </g>
   </g>
   <g id="text_6">
    <!-- N1 -->
    <g style="fill: #ffffff" transform="translate(58.514201 75.993326) scale(0.045 -0.045)">
     <defs>
      <path id="DejaVuSans-Bold-4e" d="M 588 4666 
L 1931 4666 
L 3628 1466 
L 3628 4666 
L 4769 4666 
L 4769 0 
L 3425 0 
L 1728 3200 
L 1728 0 
L 588 0 
L 588 4666 
z
" transform="scale(0.015625)"/>
     </defs>
     <use xlink:href="#DejaVuSans-Bold-4e"/>
     <use xlink:href="#DejaVuSans-Bold-31" transform="translate(83.691406 0)"/>
    </g>
   </g>
   <g id="text_7">
    <!-- C3 -->
    <g style="fill: #ffffff" transform="translate(73.703801 67.372191) scale(0.045 -0.045)">
     <use xlink:href="#DejaVuSans-Bold-43"/>
     <use xlink:href="#DejaVuSans-Bold-33" transform="translate(73.388672 0)"/>
    </g>
   </g>
   <g id="text_8">
    <!-- C4 -->
    <g style="fill: #ffffff" transform="translate(81.18535 63.062487) scale(0.045 -0.045)">
     <defs>
      <path id="DejaVuSans-Bold-34" d="M 2356 3675 
L 1038 1722 
L 2356 1722 
L 2356 3675 
z
M 2156 4666 
L 3494 4666 
L 3494 1722 
L 4159 1722 
L 4159 850 
L 3494 850 
L 3494 0 
L 2356 0 
L 2356 850 
L 288 850 
L 288 1881 
L 2156 4666 
z
" transform="scale(0.015625)"/>
     </defs>
     <use xlink:href="#DejaVuSans-Bold-43"/>
     <use xlink:href="#DejaVuSans-Bold-34" transform="translate(73.388672 0)"/>
    </g>
   </g>
   <g id="text_9">
    <!-- C8 -->
    <g style="fill: #ffffff" transform="translate(73.696894 76.005413) scale(0.045 -0.045)">
     <defs>
      <path id="DejaVuSans-Bold-38" d="M 2228 2088 
Q 1891 2088 1709 1903 
Q 1528 1719 1528 1375 
Q 1528 1031 1709 848 
Q 1891 666 2228 666 
Q 2563 666 2741 848 
Q 2919 1031 2919 1375 
Q 2919 1722 2741 1905 
Q 2563 2088 2228 2088 
z
M 1350 2484 
Q 925 2613 709 2878 
Q 494 3144 494 3541 
Q 494 4131 934 4440 
Q 1375 4750 2228 4750 
Q 3075 4750 3515 4442 
Q 3956 4134 3956 3541 
Q 3956 3144 3739 2878 
Q 3522 2613 3097 2484 
Q 3572 2353 3814 2058 
Q 4056 1763 4056 1313 
Q 4056 619 3595 264 
Q 3134 -91 2228 -91 
Q 1319 -91 855 264 
Q 391 619 391 1313 
Q 391 1763 633 2058 
Q 875 2353 1350 2484 
z
M 1631 3419 
Q 1631 3141 1786 2991 
Q 1941 2841 2228 2841 
Q 2509 2841 2662 2991 
Q 2816 3141 2816 3419 
Q 2816 3697 2662 3845 
Q 2509 3994 2228 3994 
Q 1941 3994 1786 3844 
Q 1631 3694 1631 3419 
z
" transform="scale(0.015625)"/>
     </defs>
     <use xlink:href="#DejaVuSans-Bold-43"/>
     <use xlink:href="#DejaVuSans-Bold-38" transform="translate(73.388672 0)"/>
    </g>
   </g>
   <g id="text_10">
    <!-- C5 -->
    <g style="fill: #ffffff" transform="translate(88.658267 67.384277) scale(0.045 -0.045)">
     <defs>
      <path id="DejaVuSans-Bold-35" d="M 678 4666 
L 3669 4666 
L 3669 3781 
L 1638 3781 
L 1638 3059 
Q 1775 3097 1914 3117 
Q 2053 3138 2203 3138 
Q 3056 3138 3531 2711 
Q 4006 2284 4006 1522 
Q 4006 766 3489 337 
Q 2972 -91 2053 -91 
Q 1656 -91 1267 -14 
Q 878 63 494 219 
L 494 1166 
Q 875 947 1217 837 
Q 1559 728 1863 728 
Q 2300 728 2551 942 
Q 2803 1156 2803 1522 
Q 2803 1891 2551 2103 
Q 2300 2316 1863 2316 
Q 1603 2316 1309 2248 
Q 1016 2181 678 2041 
L 678 4666 
z
" transform="scale(0.015625)"/>
     </defs>
     <use xlink:href="#DejaVuSans-Bold-43"/>
     <use xlink:href="#DejaVuSans-Bold-35" transform="translate(73.388672 0)"/>
    </g>
   </g>
   <g id="text_11">
    <!-- C6 -->
    <g style="fill: #ffffff" transform="translate(88.65136 76.017499) scale(0.045 -0.045)">
     <defs>
      <path id="DejaVuSans-Bold-36" d="M 2316 2303 
Q 2000 2303 1842 2098 
Q 1684 1894 1684 1484 
Q 1684 1075 1842 870 
Q 2000 666 2316 666 
Q 2634 666 2792 870 
Q 2950 1075 2950 1484 
Q 2950 1894 2792 2098 
Q 2634 2303 2316 2303 
z
M 3803 4544 
L 3803 3681 
Q 3506 3822 3243 3889 
Q 2981 3956 2731 3956 
Q 2194 3956 1894 3657 
Q 1594 3359 1544 2772 
Q 1750 2925 1990 3001 
Q 2231 3078 2516 3078 
Q 3231 3078 3670 2659 
Q 4109 2241 4109 1563 
Q 4109 813 3618 361 
Q 3128 -91 2303 -91 
Q 1394 -91 895 523 
Q 397 1138 397 2266 
Q 397 3422 980 4083 
Q 1563 4744 2578 4744 
Q 2900 4744 3203 4694 
Q 3506 4644 3803 4544 
z
" transform="scale(0.015625)"/>
     </defs>
     <use xlink:href="#DejaVuSans-Bold-43"/>
     <use xlink:href="#DejaVuSans-Bold-36" transform="translate(73.388672 0)"/>
    </g>
   </g>
   <g id="text_12">
    <!-- C7 -->
    <g style="fill: #ffffff" transform="translate(81.171537 80.327203) scale(0.045 -0.045)">
     <defs>
      <path id="DejaVuSans-Bold-37" d="M 428 4666 
L 3944 4666 
L 3944 3988 
L 2125 0 
L 953 0 
L 2675 3781 
L 428 3781 
L 428 4666 
z
" transform="scale(0.015625)"/>
     </defs>
     <use xlink:href="#DejaVuSans-Bold-43"/>
     <use xlink:href="#DejaVuSans-Bold-37" transform="translate(73.388672 0)"/>
    </g>
   </g>
   <g id="text_13">
    <!-- O1 -->
    <g style="fill: #ffffff" transform="translate(95.862714 80.341017) scale(0.045 -0.045)">
     <defs>
      <path id="DejaVuSans-Bold-4f" d="M 2719 3878 
Q 2169 3878 1866 3472 
Q 1563 3066 1563 2328 
Q 1563 1594 1866 1187 
Q 2169 781 2719 781 
Q 3272 781 3575 1187 
Q 3878 1594 3878 2328 
Q 3878 3066 3575 3472 
Q 3272 3878 2719 3878 
z
M 2719 4750 
Q 3844 4750 4481 4106 
Q 5119 3463 5119 2328 
Q 5119 1197 4481 553 
Q 3844 -91 2719 -91 
Q 1597 -91 958 553 
Q 319 1197 319 2328 
Q 319 3463 958 4106 
Q 1597 4750 2719 4750 
z
" transform="scale(0.015625)"/>
     </defs>
     <use xlink:href="#DejaVuSans-Bold-4f"/>
     <use xlink:href="#DejaVuSans-Bold-31" transform="translate(85.009766 0)"/>
    </g>
   </g>
   <g id="text_14">
    <!-- O5 -->
    <g style="fill: #ffffff" transform="translate(43.538486 67.348018) scale(0.045 -0.045)">
     <use xlink:href="#DejaVuSans-Bold-4f"/>
     <use xlink:href="#DejaVuSans-Bold-35" transform="translate(85.009766 0)"/>
    </g>
   </g>
   <g id="text_15">
    <!-- O6 -->
    <g style="fill: #ffffff" transform="translate(51.02349 54.405093) scale(0.045 -0.045)">
     <use xlink:href="#DejaVuSans-Bold-4f"/>
     <use xlink:href="#DejaVuSans-Bold-36" transform="translate(85.009766 0)"/>
    </g>
   </g>
   <g id="text_16">
    <!-- P1 -->
    <g style="fill: #ffffff" transform="translate(103.606209 76.029586) scale(0.045 -0.045)">
     <defs>
      <path id="DejaVuSans-Bold-50" d="M 588 4666 
L 2584 4666 
Q 3475 4666 3951 4270 
Q 4428 3875 4428 3144 
Q 4428 2409 3951 2014 
Q 3475 1619 2584 1619 
L 1791 1619 
L 1791 0 
L 588 0 
L 588 4666 
z
M 1791 3794 
L 1791 2491 
L 2456 2491 
Q 2806 2491 2997 2661 
Q 3188 2831 3188 3144 
Q 3188 3456 2997 3625 
Q 2806 3794 2456 3794 
L 1791 3794 
z
" transform="scale(0.015625)"/>
     </defs>
     <use xlink:href="#DejaVuSans-Bold-50"/>
     <use xlink:href="#DejaVuSans-Bold-31" transform="translate(73.291016 0)"/>
    </g>
   </g>
   <g id="text_17">
    <!-- O2 -->
    <g style="fill: #ffffff" transform="translate(107.652242 83.509407) scale(0.045 -0.045)">
     <use xlink:href="#DejaVuSans-Bold-4f"/>
     <use xlink:href="#DejaVuSans-Bold-32" transform="translate(85.009766 0)"/>
    </g>
   </g>
   <g id="text_18">
    <!-- O3 -->
    <g style="fill: #ffffff" transform="translate(99.031106 68.549762) scale(0.045 -0.045)">
     <use xlink:href="#DejaVuSans-Bold-4f"/>
     <use xlink:href="#DejaVuSans-Bold-33" transform="translate(85.009766 0)"/>
    </g>
   </g>
   <g id="text_19">
    <!-- O4 -->
    <g style="fill: #ffffff" transform="translate(110.822361 71.718155) scale(0.045 -0.045)">
     <use xlink:href="#DejaVuSans-Bold-4f"/>
     <use xlink:href="#DejaVuSans-Bold-34" transform="translate(85.009766 0)"/>
    </g>
   </g>
   <g id="text_20">
    <!-- Y46 -->
    <g transform="translate(52.905675 33.166431) scale(0.065 -0.065)">
     <defs>
      <path id="DejaVuSans-Bold-59" d="M -63 4666 
L 1253 4666 
L 2316 3003 
L 3378 4666 
L 4697 4666 
L 2919 1966 
L 2919 0 
L 1716 0 
L 1716 1966 
L -63 4666 
z
" transform="scale(0.015625)"/>
     </defs>
     <use xlink:href="#DejaVuSans-Bold-59"/>
     <use xlink:href="#DejaVuSans-Bold-34" transform="translate(72.412109 0)"/>
     <use xlink:href="#DejaVuSans-Bold-36" transform="translate(141.992188 0)"/>
    </g>
   </g>
   <g id="text_21">
    <!-- A217 -->
    <g transform="translate(124.778894 85.726076) scale(0.065 -0.065)">
     <defs>
      <path id="DejaVuSans-Bold-41" d="M 3419 850 
L 1538 850 
L 1241 0 
L 31 0 
L 1759 4666 
L 3194 4666 
L 4922 0 
L 3713 0 
L 3419 850 
z
M 1838 1716 
L 3116 1716 
L 2478 3572 
L 1838 1716 
z
" transform="scale(0.015625)"/>
     </defs>
     <use xlink:href="#DejaVuSans-Bold-41"/>
     <use xlink:href="#DejaVuSans-Bold-32" transform="translate(77.392578 0)"/>
     <use xlink:href="#DejaVuSans-Bold-31" transform="translate(146.972656 0)"/>
     <use xlink:href="#DejaVuSans-Bold-37" transform="translate(216.552734 0)"/>
    </g>
   </g>
   <g id="text_22">
    <!-- I219 -->
    <g transform="translate(152.592196 74.721903) scale(0.065 -0.065)">
     <defs>
      <path id="DejaVuSans-Bold-49" d="M 588 4666 
L 1791 4666 
L 1791 0 
L 588 0 
L 588 4666 
z
" transform="scale(0.015625)"/>
     </defs>
     <use xlink:href="#DejaVuSans-Bold-49"/>
     <use xlink:href="#DejaVuSans-Bold-32" transform="translate(37.207031 0)"/>
     <use xlink:href="#DejaVuSans-Bold-31" transform="translate(106.787109 0)"/>
     <use xlink:href="#DejaVuSans-Bold-39" transform="translate(176.367188 0)"/>
    </g>
   </g>
   <g id="text_23">
    <!-- D48 -->
    <g transform="translate(29.458051 87.608569) scale(0.065 -0.065)">
     <defs>
      <path id="DejaVuSans-Bold-44" d="M 1791 3756 
L 1791 909 
L 2222 909 
Q 2959 909 3348 1275 
Q 3738 1641 3738 2338 
Q 3738 3031 3350 3393 
Q 2963 3756 2222 3756 
L 1791 3756 
z
M 588 4666 
L 1856 4666 
Q 2919 4666 3439 4514 
Q 3959 4363 4331 4000 
Q 4659 3684 4818 3271 
Q 4978 2859 4978 2338 
Q 4978 1809 4818 1395 
Q 4659 981 4331 666 
Q 3956 303 3431 151 
Q 2906 0 1856 0 
L 588 0 
L 588 4666 
z
" transform="scale(0.015625)"/>
     </defs>
     <use xlink:href="#DejaVuSans-Bold-44"/>
     <use xlink:href="#DejaVuSans-Bold-34" transform="translate(83.007812 0)"/>
     <use xlink:href="#DejaVuSans-Bold-38" transform="translate(152.587891 0)"/>
    </g>
   </g>
   <g id="text_24">
    <!-- C215 -->
    <g transform="translate(142.349631 106.854818) scale(0.065 -0.065)">
     <use xlink:href="#DejaVuSans-Bold-43"/>
     <use xlink:href="#DejaVuSans-Bold-32" transform="translate(73.388672 0)"/>
     <use xlink:href="#DejaVuSans-Bold-31" transform="translate(142.96875 0)"/>
     <use xlink:href="#DejaVuSans-Bold-35" transform="translate(212.548828 0)"/>
    </g>
   </g>
   <g id="text_25">
    <!-- S216 -->
    <g transform="translate(127.101452 31.116965) scale(0.065 -0.065)">
     <defs>
      <path id="DejaVuSans-Bold-53" d="M 3834 4519 
L 3834 3531 
Q 3450 3703 3084 3790 
Q 2719 3878 2394 3878 
Q 1963 3878 1756 3759 
Q 1550 3641 1550 3391 
Q 1550 3203 1689 3098 
Q 1828 2994 2194 2919 
L 2706 2816 
Q 3484 2659 3812 2340 
Q 4141 2022 4141 1434 
Q 4141 663 3683 286 
Q 3225 -91 2284 -91 
Q 1841 -91 1394 -6 
Q 947 78 500 244 
L 500 1259 
Q 947 1022 1364 901 
Q 1781 781 2169 781 
Q 2563 781 2772 912 
Q 2981 1044 2981 1288 
Q 2981 1506 2839 1625 
Q 2697 1744 2272 1838 
L 1806 1941 
Q 1106 2091 782 2419 
Q 459 2747 459 3303 
Q 459 4000 909 4375 
Q 1359 4750 2203 4750 
Q 2588 4750 2994 4692 
Q 3400 4634 3834 4519 
z
" transform="scale(0.015625)"/>
     </defs>
     <use xlink:href="#DejaVuSans-Bold-53"/>
     <use xlink:href="#DejaVuSans-Bold-32" transform="translate(72.021484 0)"/>
     <use xlink:href="#DejaVuSans-Bold-31" transform="translate(141.601562 0)"/>
     <use xlink:href="#DejaVuSans-Bold-36" transform="translate(211.181641 0)"/>
    </g>
   </g>
   <g id="text_26">
    <!-- G220 -->
    <g transform="translate(112.269256 109.972277) scale(0.065 -0.065)">
     <defs>
      <path id="DejaVuSans-Bold-47" d="M 4781 347 
Q 4331 128 3847 18 
Q 3363 -91 2847 -91 
Q 1681 -91 1000 561 
Q 319 1213 319 2328 
Q 319 3456 1012 4103 
Q 1706 4750 2913 4750 
Q 3378 4750 3804 4662 
Q 4231 4575 4609 4403 
L 4609 3438 
Q 4219 3659 3833 3768 
Q 3447 3878 3059 3878 
Q 2341 3878 1952 3476 
Q 1563 3075 1563 2328 
Q 1563 1588 1938 1184 
Q 2313 781 3003 781 
Q 3191 781 3352 804 
Q 3513 828 3641 878 
L 3641 1784 
L 2906 1784 
L 2906 2591 
L 4781 2591 
L 4781 347 
z
" transform="scale(0.015625)"/>
     </defs>
     <use xlink:href="#DejaVuSans-Bold-47"/>
     <use xlink:href="#DejaVuSans-Bold-32" transform="translate(82.080078 0)"/>
     <use xlink:href="#DejaVuSans-Bold-32" transform="translate(151.660156 0)"/>
     <use xlink:href="#DejaVuSans-Bold-30" transform="translate(221.240234 0)"/>
    </g>
   </g>
   <g id="text_27">
    <!-- R221 -->
    <g transform="translate(126.190524 58.290488) scale(0.065 -0.065)">
     <defs>
      <path id="DejaVuSans-Bold-52" d="M 2297 2597 
Q 2675 2597 2839 2737 
Q 3003 2878 3003 3200 
Q 3003 3519 2839 3656 
Q 2675 3794 2297 3794 
L 1791 3794 
L 1791 2597 
L 2297 2597 
z
M 1791 1766 
L 1791 0 
L 588 0 
L 588 4666 
L 2425 4666 
Q 3347 4666 3776 4356 
Q 4206 4047 4206 3378 
Q 4206 2916 3982 2619 
Q 3759 2322 3309 2181 
Q 3556 2125 3751 1926 
Q 3947 1728 4147 1325 
L 4800 0 
L 3519 0 
L 2950 1159 
Q 2778 1509 2601 1637 
Q 2425 1766 2131 1766 
L 1791 1766 
z
" transform="scale(0.015625)"/>
     </defs>
     <use xlink:href="#DejaVuSans-Bold-52"/>
     <use xlink:href="#DejaVuSans-Bold-32" transform="translate(77.001953 0)"/>
     <use xlink:href="#DejaVuSans-Bold-32" transform="translate(146.582031 0)"/>
     <use xlink:href="#DejaVuSans-Bold-31" transform="translate(216.162109 0)"/>
    </g>
   </g>
   <g id="patch_39">
    <path d="M 1.860746 138.878135 
L 184.213899 138.878135 
L 184.213899 1.402809 
L 1.860746 1.402809 
L 1.860746 138.878135 
z
" clip-path="url(#pdb638a5cc0)" style="fill: none; opacity: 0.85; stroke-dasharray: 3.25,3.25; stroke-dashoffset: 0; stroke: #bdbdbd; stroke-width: 0.65; stroke-linejoin: miter"/>
   </g>
  </g>
 </g>
 <defs>
  <clipPath id="pdb638a5cc0">
   <rect x="0" y="0" width="186.074646" height="140.280945"/>
  </clipPath>
 </defs>
</svg>
