<?xml version="1.0" encoding="utf-8" standalone="no"?>
<!DOCTYPE svg PUBLIC "-//W3C//DTD SVG 1.1//EN"
  "http://www.w3.org/Graphics/SVG/1.1/DTD/svg11.dtd">
<svg xmlns:xlink="http://www.w3.org/1999/xlink" width="186.074646pt" height="140.280945pt" viewBox="0 0 186.074646 140.280945" xmlns="http://www.w3.org/2000/svg" version="1.1">
 <metadata>
  <rdf:RDF xmlns:dc="http://purl.org/dc/elements/1.1/" xmlns:cc="http://creativecommons.org/ns#" xmlns:rdf="http://www.w3.org/1999/02/22-rdf-syntax-ns#">
   <cc:Work>
    <dc:type rdf:resource="http://purl.org/dc/dcmitype/StillImage"/>
    <dc:date>2026-09-01T11:24:28.652759</dc:date>
    <dc:format>image/svg+xml</dc:format>
    <dc:creator>
     <cc:Agent>
      <dc:title>Matplotlib v3.10.1, https://matplotlib.org/</dc:title>
     </cc:Agent>
    </dc:creator>
   </cc:Work>
  </rdf:RDF>
 </metadata>
 <defs>
  <style type="text/css">*{stroke-linejoin: round; stroke-linecap: butt}</style>
 </defs>
 <g id="figure_1">
  <g id="patch_1">
   <path d="M 0 140.280945 
L 186.074646 140.280945 
L 186.074646 0 
L 0 0 
z
" style="fill: #ffffff"/>
  </g>
  <g id="axes_1">
   <g id="patch_2">
    <path d="M 0 140.280945 
L 186.074646 140.280945 
L 186.074646 0 
L 0 0 
z
" style="fill: #ffffff"/>
   </g>
   <g id="line2d_1">
    <path d="M 61.365429 63.715569 
L 68.84525 59.405865 
" clip-path="url(#p0ebb88127d)" style="fill: none; stroke: #808080; stroke-width: 0.8; stroke-linecap: square"/>
   </g>
   <g id="line2d_2">
    <path d="M 61.365429 63.715569 
L 53.892513 59.393778 
" clip-path="url(#p0ebb88127d)" style="fill: none; stroke: #808080; stroke-width: 0.8; stroke-linecap: square"/>
   </g>
   <g id="line2d_3">
    <path d="M 61.365429 63.715569 
L 61.358521 72.348791 
" clip-path="url(#p0ebb88127d)" style="fill: none; stroke: #808080; stroke-width: 0.8; stroke-linecap: square"/>
   </g>
   <g id="line2d_4">
    <path d="M 68.84525 59.405865 
L 76.316441 63.727655 
" clip-path="url(#p0ebb88127d)" style="fill: none; stroke: #808080; stroke-width: 0.8; stroke-linecap: square"/>
   </g>
   <g id="line2d_5">
    <path d="M 53.892513 59.393778 
L 46.412689 63.703482 
" clip-path="url(#p0ebb88127d)" style="fill: none; stroke: #808080; stroke-width: 0.8; stroke-linecap: square"/>
   </g>
   <g id="line2d_6">
    <path d="M 53.892513 59.393778 
L 53.897692 50.760557 
" clip-path="url(#p0ebb88127d)" style="fill: none; stroke: #808080; stroke-width: 0.8; stroke-linecap: square"/>
   </g>
   <g id="line2d_7">
    <path d="M 76.316441 63.727655 
L 83.79799 59.417951 
" clip-path="url(#p0ebb88127d)" style="fill: none; stroke: #808080; stroke-width: 0.8; stroke-linecap: square"/>
   </g>
   <g id="line2d_8">
    <path d="M 76.316441 63.727655 
L 76.309534 72.360877 
" clip-path="url(#p0ebb88127d)" style="fill: none; stroke: #808080; stroke-width: 0.8; stroke-linecap: square"/>
   </g>
   <g id="line2d_9">
    <path d="M 83.79799 59.417951 
L 91.270907 63.739742 
" clip-path="url(#p0ebb88127d)" style="fill: none; stroke: #808080; stroke-width: 0.8; stroke-linecap: square"/>
   </g>
   <g id="line2d_10">
    <path d="M 76.309534 72.360877 
L 83.784177 76.682667 
" clip-path="url(#p0ebb88127d)" style="fill: none; stroke: #808080; stroke-width: 0.8; stroke-linecap: square"/>
   </g>
   <g id="line2d_11">
    <path d="M 91.270907 63.739742 
L 91.264 72.372964 
" clip-path="url(#p0ebb88127d)" style="fill: none; stroke: #808080; stroke-width: 0.8; stroke-linecap: square"/>
   </g>
   <g id="line2d_12">
    <path d="M 91.264 72.372964 
L 83.784177 76.682667 
" clip-path="url(#p0ebb88127d)" style="fill: none; stroke: #808080; stroke-width: 0.8; stroke-linecap: square"/>
   </g>
   <g id="line2d_13">
    <path d="M 91.264 72.372964 
L 98.736916 76.696481 
" clip-path="url(#p0ebb88127d)" style="fill: none; stroke: #808080; stroke-width: 0.8; stroke-linecap: square"/>
   </g>
   <g id="line2d_14">
    <path d="M 98.736916 76.696481 
L 106.216739 72.38505 
" clip-path="url(#p0ebb88127d)" style="fill: none; stroke: #808080; stroke-width: 0.8; stroke-linecap: square"/>
   </g>
   <g id="line2d_15">
    <path d="M 106.216739 72.38505 
L 110.526445 79.864872 
" clip-path="url(#p0ebb88127d)" style="fill: none; stroke: #808080; stroke-width: 0.8; stroke-linecap: square"/>
   </g>
   <g id="line2d_16">
    <path d="M 106.216739 72.38505 
L 101.905308 64.905226 
" clip-path="url(#p0ebb88127d)" style="fill: none; stroke: #808080; stroke-width: 0.8; stroke-linecap: square"/>
   </g>
   <g id="line2d_17">
    <path d="M 106.216739 72.38505 
L 113.696564 68.073619 
" clip-path="url(#p0ebb88127d)" style="fill: none; stroke: #808080; stroke-width: 0.8; stroke-linecap: square"/>
   </g>
   <g id="matplotlib.axis_1"/>
   <g id="matplotlib.axis_2"/>
   <g id="patch_3">
    <path d="M 62.346946 43.055283 
C 62.246654 42.640751 62.124876 42.223883 61.984537 41.814699 
C 61.844198 41.405514 61.686431 41.007317 61.515029 40.629677 
" clip-path="url(#p0ebb88127d)" style="fill: none; opacity: 0.82; stroke: #2e8b57; stroke-linejoin: miter"/>
   </g>
   <g id="patch_4">
    <path d="M 63.220898 42.726877 
C 63.125326 42.332997 63.009524 41.936919 62.876249 41.548074 
C 62.742974 41.15923 62.593294 40.780731 62.430772 40.421593 
" clip-path="url(#p0ebb88127d)" style="fill: none; opacity: 0.82; stroke: #2e8b57; stroke-linejoin: miter"/>
   </g>
   <g id="patch_5">
    <path d="M 64.094845 42.39847 
C 64.003997 42.025244 63.894173 41.649955 63.767962 41.281452 
C 63.641751 40.912949 63.500153 40.554153 63.346508 40.213522 
" clip-path="url(#p0ebb88127d)" style="fill: none; opacity: 0.82; stroke: #2e8b57; stroke-linejoin: miter"/>
   </g>
   <g id="patch_6">
    <path d="M 64.968786 42.070062 
C 64.882667 41.71749 64.778823 41.362992 64.659675 41.014833 
C 64.540527 40.666674 64.407009 40.327582 64.262235 40.005466 
" clip-path="url(#p0ebb88127d)" style="fill: none; opacity: 0.82; stroke: #2e8b57; stroke-linejoin: miter"/>
   </g>
   <g id="patch_7">
    <path d="M 66.045613 41.778808 
C 65.954765 41.405582 65.844941 41.030293 65.71873 40.66179 
C 65.592519 40.293288 65.450921 39.934491 65.297276 39.59386 
" clip-path="url(#p0ebb88127d)" style="fill: none; opacity: 0.82; stroke: #2e8b57; stroke-linejoin: miter"/>
   </g>
   <g id="patch_8">
    <path d="M 67.122434 41.487554 
C 67.026862 41.093674 66.91106 40.697595 66.777785 40.30875 
C 66.64451 39.919906 66.49483 39.541408 66.332308 39.18227 
" clip-path="url(#p0ebb88127d)" style="fill: none; opacity: 0.82; stroke: #2e8b57; stroke-linejoin: miter"/>
   </g>
   <g id="patch_9">
    <path d="M 68.19925 41.196298 
C 68.098959 40.781766 67.97718 40.364898 67.836841 39.955713 
C 67.696502 39.546529 67.538735 39.148332 67.367333 38.770692 
" clip-path="url(#p0ebb88127d)" style="fill: none; opacity: 0.82; stroke: #2e8b57; stroke-linejoin: miter"/>
   </g>
   <g id="patch_10">
    <path d="M 59.504246 73.098514 
Q 49.351039 77.346654 40.693554 84.142434 
" clip-path="url(#p0ebb88127d)" style="fill: none; opacity: 0.82; stroke-dasharray: 3.7,1.6; stroke-dashoffset: 0; stroke: #1f77b4; stroke-linecap: round"/>
   </g>
   <g id="patch_11">
    <path d="M 69.161976 43.295256 
C 68.91773 42.945629 68.65262 42.601645 68.373016 42.271571 
C 68.093413 41.941497 67.801575 41.627998 67.504515 41.338608 
" clip-path="url(#p0ebb88127d)" style="fill: none; opacity: 0.82; stroke: #2e8b57; stroke-linejoin: miter"/>
   </g>
   <g id="patch_12">
    <path d="M 69.856532 42.671369 
C 69.624196 42.339262 69.372216 42.012467 69.106594 41.698768 
C 68.840972 41.385069 68.563833 41.086977 68.281777 40.81159 
" clip-path="url(#p0ebb88127d)" style="fill: none; opacity: 0.82; stroke: #2e8b57; stroke-linejoin: miter"/>
   </g>
   <g id="patch_13">
    <path d="M 70.551083 42.047483 
C 70.330662 41.732894 70.091815 41.423289 69.840173 41.125968 
C 69.588532 40.828646 69.32609 40.545964 69.059036 40.284586 
" clip-path="url(#p0ebb88127d)" style="fill: none; opacity: 0.82; stroke: #2e8b57; stroke-linejoin: miter"/>
   </g>
   <g id="patch_14">
    <path d="M 71.245628 41.423598 
C 71.037127 41.126527 70.811414 40.834112 70.573754 40.55317 
C 70.336094 40.272228 70.088348 40.00496 69.836293 39.757599 
" clip-path="url(#p0ebb88127d)" style="fill: none; opacity: 0.82; stroke: #2e8b57; stroke-linejoin: miter"/>
   </g>
   <g id="patch_15">
    <path d="M 72.14267 40.760499 
C 71.922249 40.445911 71.683402 40.136306 71.431761 39.838984 
C 71.180119 39.541663 70.917678 39.25898 70.650624 38.997603 
" clip-path="url(#p0ebb88127d)" style="fill: none; opacity: 0.82; stroke: #2e8b57; stroke-linejoin: miter"/>
   </g>
   <g id="patch_16">
    <path d="M 73.039707 40.097402 
C 72.807371 39.765295 72.555391 39.4385 72.289769 39.124801 
C 72.024147 38.811102 71.747007 38.51301 71.464952 38.237623 
" clip-path="url(#p0ebb88127d)" style="fill: none; opacity: 0.82; stroke: #2e8b57; stroke-linejoin: miter"/>
   </g>
   <g id="patch_17">
    <path d="M 73.936738 39.434306 
C 73.692492 39.084679 73.427382 38.740695 73.147778 38.410621 
C 72.868175 38.080546 72.576337 37.767047 72.279277 37.477658 
" clip-path="url(#p0ebb88127d)" style="fill: none; opacity: 0.82; stroke: #2e8b57; stroke-linejoin: miter"/>
   </g>
   <g id="patch_18">
    <path d="M 111.758068 78.162173 
C 112.178596 78.233247 112.609733 78.285491 113.041118 78.317649 
C 113.472503 78.349806 113.900652 78.361618 114.315276 78.352799 
" clip-path="url(#p0ebb88127d)" style="fill: none; opacity: 0.82; stroke: #2e8b57; stroke-linejoin: miter"/>
   </g>
   <g id="patch_19">
    <path d="M 111.715733 79.09483 
C 112.115419 79.162109 112.525093 79.211659 112.935 79.242299 
C 113.344906 79.272939 113.751764 79.284425 114.145884 79.276482 
" clip-path="url(#p0ebb88127d)" style="fill: none; opacity: 0.82; stroke: #2e8b57; stroke-linejoin: miter"/>
   </g>
   <g id="patch_20">
    <path d="M 111.6734 80.027484 
C 112.052242 80.090971 112.440453 80.137827 112.828879 80.166949 
C 113.217306 80.196071 113.602871 80.207226 113.976483 80.200153 
" clip-path="url(#p0ebb88127d)" style="fill: none; opacity: 0.82; stroke: #2e8b57; stroke-linejoin: miter"/>
   </g>
   <g id="patch_21">
    <path d="M 111.631071 80.960133 
C 111.989064 81.019831 112.35581 81.063997 112.722755 81.091598 
C 113.089701 81.1192 113.453971 81.130021 113.807073 81.123811 
" clip-path="url(#p0ebb88127d)" style="fill: none; opacity: 0.82; stroke: #2e8b57; stroke-linejoin: miter"/>
   </g>
   <g id="patch_22">
    <path d="M 111.474685 82.064636 
C 111.853527 82.128123 112.241738 82.17498 112.630164 82.204101 
C 113.018591 82.233223 113.404156 82.244379 113.777768 82.237306 
" clip-path="url(#p0ebb88127d)" style="fill: none; opacity: 0.82; stroke: #2e8b57; stroke-linejoin: miter"/>
   </g>
   <g id="patch_23">
    <path d="M 111.318303 83.169135 
C 111.717989 83.236414 112.127664 83.285963 112.53757 83.316604 
C 112.947476 83.347244 113.354334 83.358729 113.748454 83.350786 
" clip-path="url(#p0ebb88127d)" style="fill: none; opacity: 0.82; stroke: #2e8b57; stroke-linejoin: miter"/>
   </g>
   <g id="patch_24">
    <path d="M 111.161923 84.273629 
C 111.582451 84.344704 112.013588 84.396948 112.444973 84.429105 
C 112.876358 84.461263 113.304507 84.473074 113.719131 84.464255 
" clip-path="url(#p0ebb88127d)" style="fill: none; opacity: 0.82; stroke: #2e8b57; stroke-linejoin: miter"/>
   </g>
   <g id="patch_25">
    <path d="M 112.523662 79.796695 
Q 135.944929 78.853178 158.097226 71.190115 
" clip-path="url(#p0ebb88127d)" style="fill: none; opacity: 0.82; stroke-dasharray: 3.7,1.6; stroke-dashoffset: 0; stroke: #1f77b4; stroke-linecap: round"/>
   </g>
   <g id="patch_26">
    <path d="M 111.00263 81.807522 
Q 114.020916 93.556334 120.095763 104.055903 
" clip-path="url(#p0ebb88127d)" style="fill: none; opacity: 0.82; stroke-dasharray: 3.7,1.6; stroke-dashoffset: 0; stroke: #1f77b4; stroke-linecap: round"/>
   </g>
   <g id="patch_27">
    <path d="M 103.283085 66.352681 
Q 123.575368 87.459229 149.160991 101.694238 
" clip-path="url(#p0ebb88127d)" style="fill: none; opacity: 0.82; stroke-dasharray: 3.7,1.6; stroke-dashoffset: 0; stroke: #1f77b4; stroke-linecap: round"/>
   </g>
   <g id="patch_28">
    <path d="M 103.877665 64.572474 
Q 119.161385 61.853407 133.087191 54.993531 
" clip-path="url(#p0ebb88127d)" style="fill: none; opacity: 0.82; stroke-dasharray: 3.7,1.6; stroke-dashoffset: 0; stroke: #1f77b4; stroke-linecap: round"/>
   </g>
   <g id="patch_29">
    <path d="M 114.894076 66.470425 
Q 127.684543 49.107726 134.959813 28.806698 
" clip-path="url(#p0ebb88127d)" style="fill: none; opacity: 0.82; stroke-dasharray: 3.7,1.6; stroke-dashoffset: 0; stroke: #1f77b4; stroke-linecap: round"/>
   </g>
   <g id="patch_30">
    <path d="M 115.167765 69.425544 
Q 122.6709 76.143013 131.673713 80.656308 
" clip-path="url(#p0ebb88127d)" style="fill: none; opacity: 0.82; stroke-dasharray: 3.7,1.6; stroke-dashoffset: 0; stroke: #1f77b4; stroke-linecap: round"/>
   </g>
   <g id="patch_31">
    <path d="M 113.113325 69.987133 
Q 104.878827 97.504409 105.057171 126.226792 
" clip-path="url(#p0ebb88127d)" style="fill: none; opacity: 0.82; stroke-dasharray: 3.7,1.6; stroke-dashoffset: 0; stroke: #1f77b4; stroke-linecap: round"/>
   </g>
   <g id="PathCollection_1">
    <path d="M 59.177299 39.576622 
C 61.990203 39.576622 64.688276 38.459044 66.677299 36.470021 
C 68.666322 34.480998 69.783901 31.782924 69.783901 28.970021 
C 69.783901 26.157117 68.666322 23.459044 66.677299 21.470021 
C 64.688276 19.480998 61.990203 18.363419 59.177299 18.363419 
C 56.364395 18.363419 53.666322 19.480998 51.677299 21.470021 
C 49.688276 23.459044 48.570697 26.157117 48.570697 28.970021 
C 48.570697 31.782924 49.688276 34.480998 51.677299 36.470021 
C 53.666322 38.459044 56.364395 39.576622 59.177299 39.576622 
z
" clip-path="url(#p0ebb88127d)" style="fill: #e0e0e0; fill-opacity: 0.62"/>
   </g>
   <g id="PathCollection_2">
    <path d="M 133.4738 92.136267 
C 136.286703 92.136267 138.984776 91.018689 140.9738 89.029666 
C 142.962823 87.040642 144.080401 84.342569 144.080401 81.529666 
C 144.080401 78.716762 142.962823 76.018689 140.9738 74.029666 
C 138.984776 72.040642 136.286703 70.923064 133.4738 70.923064 
C 130.660896 70.923064 127.962823 72.040642 125.9738 74.029666 
C 123.984776 76.018689 122.867198 78.716762 122.867198 81.529666 
C 122.867198 84.342569 123.984776 87.040642 125.9738 89.029666 
C 127.962823 91.018689 130.660896 92.136267 133.4738 92.136267 
z
" clip-path="url(#p0ebb88127d)" style="fill: #e0e0e0; fill-opacity: 0.62"/>
   </g>
   <g id="PathCollection_3">
    <path d="M 39.135953 96.002285 
C 41.948856 96.002285 44.646929 94.884706 46.635953 92.895683 
C 48.624976 90.90666 49.742554 88.208587 49.742554 85.395683 
C 49.742554 82.582779 48.624976 79.884706 46.635953 77.895683 
C 44.646929 75.90666 41.948856 74.789081 39.135953 74.789081 
C 36.323049 74.789081 33.624976 75.90666 31.635953 77.895683 
C 29.646929 79.884706 28.529351 82.582779 28.529351 85.395683 
C 28.529351 88.208587 29.646929 90.90666 31.635953 92.895683 
C 33.624976 94.884706 36.323049 96.002285 39.135953 96.002285 
z
" clip-path="url(#p0ebb88127d)" style="fill: #e0e0e0; fill-opacity: 0.62"/>
   </g>
   <g id="PathCollection_4">
    <path d="M 150.914537 113.265009 
C 153.727441 113.265009 156.425514 112.147431 158.414537 110.158407 
C 160.40356 108.169384 161.521139 105.471311 161.521139 102.658407 
C 161.521139 99.845504 160.40356 97.147431 158.414537 95.158407 
C 156.425514 93.169384 153.727441 92.051806 150.914537 92.051806 
C 148.101633 92.051806 145.40356 93.169384 143.414537 95.158407 
C 141.425514 97.147431 140.307935 99.845504 140.307935 102.658407 
C 140.307935 105.471311 141.425514 108.169384 143.414537 110.158407 
C 145.40356 112.147431 148.101633 113.265009 150.914537 113.265009 
z
" clip-path="url(#p0ebb88127d)" style="fill: #e0e0e0; fill-opacity: 0.62"/>
   </g>
   <g id="PathCollection_5">
    <path d="M 135.62167 37.527156 
C 138.434574 37.527156 141.132647 36.409578 143.12167 34.420554 
C 145.110693 32.431531 146.228272 29.733458 146.228272 26.920554 
C 146.228272 24.107651 145.110693 21.409578 143.12167 19.420554 
C 141.132647 17.431531 138.434574 16.313953 135.62167 16.313953 
C 132.808766 16.313953 130.110693 17.431531 128.12167 19.420554 
C 126.132647 21.409578 125.015068 24.107651 125.015068 26.920554 
C 125.015068 29.733458 126.132647 32.431531 128.12167 34.420554 
C 130.110693 36.409578 132.808766 37.527156 135.62167 37.527156 
z
" clip-path="url(#p0ebb88127d)" style="fill: #e0e0e0; fill-opacity: 0.62"/>
   </g>
   <g id="PathCollection_6">
    <path d="M 105.079772 138.833973 
C 107.892676 138.833973 110.590749 137.716395 112.579772 135.727372 
C 114.568796 133.738348 115.686374 131.040275 115.686374 128.227372 
C 115.686374 125.414468 114.568796 122.716395 112.579772 120.727372 
C 110.590749 118.738348 107.892676 117.62077 105.079772 117.62077 
C 102.266869 117.62077 99.568796 118.738348 97.579772 120.727372 
C 95.590749 122.716395 94.473171 125.414468 94.473171 128.227372 
C 94.473171 131.040275 95.590749 133.738348 97.579772 135.727372 
C 99.568796 137.716395 102.266869 138.833973 105.079772 138.833973 
z
" clip-path="url(#p0ebb88127d)" style="fill: #e0e0e0; fill-opacity: 0.62"/>
   </g>
   <g id="PathCollection_7">
    <path d="M 159.981008 81.132094 
C 162.793911 81.132094 165.491984 80.014516 167.481008 78.025492 
C 169.470031 76.036469 170.587609 73.338396 170.587609 70.525492 
C 170.587609 67.712589 169.470031 65.014516 167.481008 63.025492 
C 165.491984 61.036469 162.793911 59.918891 159.981008 59.918891 
C 157.168104 59.918891 154.470031 61.036469 152.481008 63.025492 
C 150.491984 65.014516 149.374406 67.712589 149.374406 70.525492 
C 149.374406 73.338396 150.491984 76.036469 152.481008 78.025492 
C 154.470031 80.014516 157.168104 81.132094 159.981008 81.132094 
z
" clip-path="url(#p0ebb88127d)" style="fill: #e0e0e0; fill-opacity: 0.62"/>
   </g>
   <g id="PathCollection_8">
    <path d="M 121.116505 116.382468 
C 123.929409 116.382468 126.627482 115.26489 128.616505 113.275866 
C 130.605529 111.286843 131.723107 108.58877 131.723107 105.775866 
C 131.723107 102.962963 130.605529 100.26489 128.616505 98.275866 
C 126.627482 96.286843 123.929409 95.169265 121.116505 95.169265 
C 118.303602 95.169265 115.605529 96.286843 113.616505 98.275866 
C 111.627482 100.26489 110.509904 102.962963 110.509904 105.775866 
C 110.509904 108.58877 111.627482 111.286843 113.616505 113.275866 
C 115.605529 115.26489 118.303602 116.382468 121.116505 116.382468 
z
" clip-path="url(#p0ebb88127d)" style="fill: #e0e0e0; fill-opacity: 0.62"/>
   </g>
   <g id="PathCollection_9">
    <path d="M 134.872734 64.700679 
C 137.685638 64.700679 140.383711 63.5831 142.372734 61.594077 
C 144.361757 59.605054 145.479336 56.906981 145.479336 54.094077 
C 145.479336 51.281174 144.361757 48.5831 142.372734 46.594077 
C 140.383711 44.605054 137.685638 43.487475 134.872734 43.487475 
C 132.05983 43.487475 129.361757 44.605054 127.372734 46.594077 
C 125.383711 48.5831 124.266132 51.281174 124.266132 54.094077 
C 124.266132 56.906981 125.383711 59.605054 127.372734 61.594077 
C 129.361757 63.5831 132.05983 64.700679 134.872734 64.700679 
z
" clip-path="url(#p0ebb88127d)" style="fill: #e0e0e0; fill-opacity: 0.62"/>
   </g>
   <g id="text_1">
    <!-- Class 39 -->
    <g transform="translate(8.373359 126.797299) scale(0.075 -0.075)">
     <defs>
      <path id="DejaVuSans-Bold-43" d="M 4288 256 
Q 3956 84 3597 -3 
Q 3238 -91 2847 -91 
Q 1681 -91 1000 561 
Q 319 1213 319 2328 
Q 319 3447 1000 4098 
Q 1681 4750 2847 4750 
Q 3238 4750 3597 4662 
Q 3956 4575 4288 4403 
L 4288 3438 
Q 3953 3666 3628 3772 
Q 3303 3878 2944 3878 
Q 2300 3878 1931 3465 
Q 1563 3053 1563 2328 
Q 1563 1606 1931 1193 
Q 2300 781 2944 781 
Q 3303 781 3628 887 
Q 3953 994 4288 1222 
L 4288 256 
z
" transform="scale(0.015625)"/>
      <path id="DejaVuSans-Bold-6c" d="M 538 4863 
L 1656 4863 
L 1656 0 
L 538 0 
L 538 4863 
z
" transform="scale(0.015625)"/>
      <path id="DejaVuSans-Bold-61" d="M 2106 1575 
Q 1756 1575 1579 1456 
Q 1403 1338 1403 1106 
Q 1403 894 1545 773 
Q 1688 653 1941 653 
Q 2256 653 2472 879 
Q 2688 1106 2688 1447 
L 2688 1575 
L 2106 1575 
z
M 3816 1997 
L 3816 0 
L 2688 0 
L 2688 519 
Q 2463 200 2181 54 
Q 1900 -91 1497 -91 
Q 953 -91 614 226 
Q 275 544 275 1050 
Q 275 1666 698 1953 
Q 1122 2241 2028 2241 
L 2688 2241 
L 2688 2328 
Q 2688 2594 2478 2717 
Q 2269 2841 1825 2841 
Q 1466 2841 1156 2769 
Q 847 2697 581 2553 
L 581 3406 
Q 941 3494 1303 3539 
Q 1666 3584 2028 3584 
Q 2975 3584 3395 3211 
Q 3816 2838 3816 1997 
z
" transform="scale(0.015625)"/>
      <path id="DejaVuSans-Bold-73" d="M 3272 3391 
L 3272 2541 
Q 2913 2691 2578 2766 
Q 2244 2841 1947 2841 
Q 1628 2841 1473 2761 
Q 1319 2681 1319 2516 
Q 1319 2381 1436 2309 
Q 1553 2238 1856 2203 
L 2053 2175 
Q 2913 2066 3209 1816 
Q 3506 1566 3506 1031 
Q 3506 472 3093 190 
Q 2681 -91 1863 -91 
Q 1516 -91 1145 -36 
Q 775 19 384 128 
L 384 978 
Q 719 816 1070 734 
Q 1422 653 1784 653 
Q 2113 653 2278 743 
Q 2444 834 2444 1013 
Q 2444 1163 2330 1236 
Q 2216 1309 1875 1350 
L 1678 1375 
Q 931 1469 631 1722 
Q 331 1975 331 2491 
Q 331 3047 712 3315 
Q 1094 3584 1881 3584 
Q 2191 3584 2531 3537 
Q 2872 3491 3272 3391 
z
" transform="scale(0.015625)"/>
      <path id="DejaVuSans-Bold-20" transform="scale(0.015625)"/>
      <path id="DejaVuSans-Bold-33" d="M 2981 2516 
Q 3453 2394 3698 2092 
Q 3944 1791 3944 1325 
Q 3944 631 3412 270 
Q 2881 -91 1863 -91 
Q 1503 -91 1142 -33 
Q 781 25 428 141 
L 428 1069 
Q 766 900 1098 814 
Q 1431 728 1753 728 
Q 2231 728 2486 893 
Q 2741 1059 2741 1369 
Q 2741 1688 2480 1852 
Q 2219 2016 1709 2016 
L 1228 2016 
L 1228 2791 
L 1734 2791 
Q 2188 2791 2409 2933 
Q 2631 3075 2631 3366 
Q 2631 3634 2415 3781 
Q 2200 3928 1806 3928 
Q 1516 3928 1219 3862 
Q 922 3797 628 3669 
L 628 4550 
Q 984 4650 1334 4700 
Q 1684 4750 2022 4750 
Q 2931 4750 3382 4451 
Q 3834 4153 3834 3553 
Q 3834 3144 3618 2883 
Q 3403 2622 2981 2516 
z
" transform="scale(0.015625)"/>
      <path id="DejaVuSans-Bold-39" d="M 641 103 
L 641 966 
Q 928 831 1190 764 
Q 1453 697 1709 697 
Q 2247 697 2547 995 
Q 2847 1294 2900 1881 
Q 2688 1725 2447 1647 
Q 2206 1569 1925 1569 
Q 1209 1569 770 1986 
Q 331 2403 331 3084 
Q 331 3838 820 4291 
Q 1309 4744 2131 4744 
Q 3044 4744 3544 4128 
Q 4044 3513 4044 2388 
Q 4044 1231 3459 570 
Q 2875 -91 1856 -91 
Q 1528 -91 1228 -42 
Q 928 6 641 103 
z
M 2125 2350 
Q 2441 2350 2600 2554 
Q 2759 2759 2759 3169 
Q 2759 3575 2600 3781 
Q 2441 3988 2125 3988 
Q 1809 3988 1650 3781 
Q 1491 3575 1491 3169 
Q 1491 2759 1650 2554 
Q 1809 2350 2125 2350 
z
" transform="scale(0.015625)"/>
     </defs>
     <use xlink:href="#DejaVuSans-Bold-43"/>
     <use xlink:href="#DejaVuSans-Bold-6c" transform="translate(73.388672 0)"/>
     <use xlink:href="#DejaVuSans-Bold-61" transform="translate(107.666016 0)"/>
     <use xlink:href="#DejaVuSans-Bold-73" transform="translate(175.146484 0)"/>
     <use xlink:href="#DejaVuSans-Bold-73" transform="translate(234.667969 0)"/>
     <use xlink:href="#DejaVuSans-Bold-20" transform="translate(294.189453 0)"/>
     <use xlink:href="#DejaVuSans-Bold-33" transform="translate(329.003906 0)"/>
     <use xlink:href="#DejaVuSans-Bold-39" transform="translate(398.583984 0)"/>
    </g>
   </g>
   <g id="text_2">
    <!-- n=1 -->
    <g style="fill: #444444" transform="translate(9.303732 17.564269) scale(0.065 -0.065)">
     <defs>
      <path id="DejaVuSans-6e" d="M 3513 2113 
L 3513 0 
L 2938 0 
L 2938 2094 
Q 2938 2591 2744 2837 
Q 2550 3084 2163 3084 
Q 1697 3084 1428 2787 
Q 1159 2491 1159 1978 
L 1159 0 
L 581 0 
L 581 3500 
L 1159 3500 
L 1159 2956 
Q 1366 3272 1645 3428 
Q 1925 3584 2291 3584 
Q 2894 3584 3203 3211 
Q 3513 2838 3513 2113 
z
" transform="scale(0.015625)"/>
      <path id="DejaVuSans-3d" d="M 678 2906 
L 4684 2906 
L 4684 2381 
L 678 2381 
L 678 2906 
z
M 678 1631 
L 4684 1631 
L 4684 1100 
L 678 1100 
L 678 1631 
z
" transform="scale(0.015625)"/>
      <path id="DejaVuSans-31" d="M 794 531 
L 1825 531 
L 1825 4091 
L 703 3866 
L 703 4441 
L 1819 4666 
L 2450 4666 
L 2450 531 
L 3481 531 
L 3481 0 
L 794 0 
L 794 531 
z
" transform="scale(0.015625)"/>
     </defs>
     <use xlink:href="#DejaVuSans-6e"/>
     <use xlink:href="#DejaVuSans-3d" transform="translate(63.378906 0)"/>
     <use xlink:href="#DejaVuSans-31" transform="translate(147.167969 0)"/>
    </g>
   </g>
   <g id="PathCollection_10">
    <path d="M 61.365429 69.525044 
C 62.90612 69.525044 64.383915 68.912921 65.473348 67.823488 
C 66.562781 66.734055 67.174904 65.256259 67.174904 63.715569 
C 67.174904 62.174878 66.562781 60.697082 65.473348 59.607649 
C 64.383915 58.518217 62.90612 57.906094 61.365429 57.906094 
C 59.824738 57.906094 58.346943 58.518217 57.25751 59.607649 
C 56.168077 60.697082 55.555954 62.174878 55.555954 63.715569 
C 55.555954 65.256259 56.168077 66.734055 57.25751 67.823488 
C 58.346943 68.912921 59.824738 69.525044 61.365429 69.525044 
z
" clip-path="url(#p0ebb88127d)" style="fill: #333333; fill-opacity: 0.82"/>
   </g>
   <g id="PathCollection_11">
    <path d="M 68.84525 65.21534 
C 70.385941 65.21534 71.863737 64.603217 72.95317 63.513784 
C 74.042603 62.424351 74.654726 60.946555 74.654726 59.405865 
C 74.654726 57.865174 74.042603 56.387378 72.95317 55.297946 
C 71.863737 54.208513 70.385941 53.59639 68.84525 53.59639 
C 67.30456 53.59639 65.826764 54.208513 64.737331 55.297946 
C 63.647898 56.387378 63.035775 57.865174 63.035775 59.405865 
C 63.035775 60.946555 63.647898 62.424351 64.737331 63.513784 
C 65.826764 64.603217 67.30456 65.21534 68.84525 65.21534 
z
" clip-path="url(#p0ebb88127d)" style="fill: #333333; fill-opacity: 0.82"/>
   </g>
   <g id="PathCollection_12">
    <path d="M 53.892513 65.203253 
C 55.433204 65.203253 56.910999 64.59113 58.000432 63.501697 
C 59.089865 62.412265 59.701988 60.934469 59.701988 59.393778 
C 59.701988 57.853087 59.089865 56.375292 58.000432 55.285859 
C 56.910999 54.196426 55.433204 53.584303 53.892513 53.584303 
C 52.351822 53.584303 50.874026 54.196426 49.784594 55.285859 
C 48.695161 56.375292 48.083038 57.853087 48.083038 59.393778 
C 48.083038 60.934469 48.695161 62.412265 49.784594 63.501697 
C 50.874026 64.59113 52.351822 65.203253 53.892513 65.203253 
z
" clip-path="url(#p0ebb88127d)" style="fill: #333333; fill-opacity: 0.82"/>
   </g>
   <g id="PathCollection_13">
    <path d="M 61.358521 78.158266 
C 62.899212 78.158266 64.377007 77.546143 65.46644 76.45671 
C 66.555873 75.367277 67.167996 73.889481 67.167996 72.348791 
C 67.167996 70.8081 66.555873 69.330304 65.46644 68.240871 
C 64.377007 67.151439 62.899212 66.539316 61.358521 66.539316 
C 59.81783 66.539316 58.340035 67.151439 57.250602 68.240871 
C 56.161169 69.330304 55.549046 70.8081 55.549046 72.348791 
C 55.549046 73.889481 56.161169 75.367277 57.250602 76.45671 
C 58.340035 77.546143 59.81783 78.158266 61.358521 78.158266 
z
" clip-path="url(#p0ebb88127d)" style="fill: #3050f8; fill-opacity: 0.82"/>
   </g>
   <g id="PathCollection_14">
    <path d="M 76.316441 69.53713 
C 77.857132 69.53713 79.334927 68.925007 80.42436 67.835574 
C 81.513793 66.746141 82.125916 65.268346 82.125916 63.727655 
C 82.125916 62.186964 81.513793 60.709169 80.42436 59.619736 
C 79.334927 58.530303 77.857132 57.91818 76.316441 57.91818 
C 74.77575 57.91818 73.297955 58.530303 72.208522 59.619736 
C 71.119089 60.709169 70.506966 62.186964 70.506966 63.727655 
C 70.506966 65.268346 71.119089 66.746141 72.208522 67.835574 
C 73.297955 68.925007 74.77575 69.53713 76.316441 69.53713 
z
" clip-path="url(#p0ebb88127d)" style="fill: #333333; fill-opacity: 0.82"/>
   </g>
   <g id="PathCollection_15">
    <path d="M 83.79799 65.227426 
C 85.338681 65.227426 86.816477 64.615303 87.90591 63.52587 
C 88.995342 62.436437 89.607465 60.958642 89.607465 59.417951 
C 89.607465 57.87726 88.995342 56.399465 87.90591 55.310032 
C 86.816477 54.220599 85.338681 53.608476 83.79799 53.608476 
C 82.2573 53.608476 80.779504 54.220599 79.690071 55.310032 
C 78.600638 56.399465 77.988515 57.87726 77.988515 59.417951 
C 77.988515 60.958642 78.600638 62.436437 79.690071 63.52587 
C 80.779504 64.615303 82.2573 65.227426 83.79799 65.227426 
z
" clip-path="url(#p0ebb88127d)" style="fill: #333333; fill-opacity: 0.82"/>
   </g>
   <g id="PathCollection_16">
    <path d="M 76.309534 78.170352 
C 77.850225 78.170352 79.32802 77.558229 80.417453 76.468796 
C 81.506886 75.379363 82.119009 73.901568 82.119009 72.360877 
C 82.119009 70.820186 81.506886 69.342391 80.417453 68.252958 
C 79.32802 67.163525 77.850225 66.551402 76.309534 66.551402 
C 74.768843 66.551402 73.291048 67.163525 72.201615 68.252958 
C 71.112182 69.342391 70.500059 70.820186 70.500059 72.360877 
C 70.500059 73.901568 71.112182 75.379363 72.201615 76.468796 
C 73.291048 77.558229 74.768843 78.170352 76.309534 78.170352 
z
" clip-path="url(#p0ebb88127d)" style="fill: #333333; fill-opacity: 0.82"/>
   </g>
   <g id="PathCollection_17">
    <path d="M 91.270907 69.549217 
C 92.811597 69.549217 94.289393 68.937094 95.378826 67.847661 
C 96.468259 66.758228 97.080382 65.280432 97.080382 63.739742 
C 97.080382 62.199051 96.468259 60.721255 95.378826 59.631822 
C 94.289393 58.542389 92.811597 57.930267 91.270907 57.930267 
C 89.730216 57.930267 88.25242 58.542389 87.162988 59.631822 
C 86.073555 60.721255 85.461432 62.199051 85.461432 63.739742 
C 85.461432 65.280432 86.073555 66.758228 87.162988 67.847661 
C 88.25242 68.937094 89.730216 69.549217 91.270907 69.549217 
z
" clip-path="url(#p0ebb88127d)" style="fill: #333333; fill-opacity: 0.82"/>
   </g>
   <g id="PathCollection_18">
    <path d="M 91.264 78.182439 
C 92.804691 78.182439 94.282487 77.570316 95.371919 76.480883 
C 96.461352 75.39145 97.073475 73.913654 97.073475 72.372964 
C 97.073475 70.832273 96.461352 69.354477 95.371919 68.265044 
C 94.282487 67.175611 92.804691 66.563488 91.264 66.563488 
C 89.72331 66.563488 88.245514 67.175611 87.156081 68.265044 
C 86.066648 69.354477 85.454525 70.832273 85.454525 72.372964 
C 85.454525 73.913654 86.066648 75.39145 87.156081 76.480883 
C 88.245514 77.570316 89.72331 78.182439 91.264 78.182439 
z
" clip-path="url(#p0ebb88127d)" style="fill: #333333; fill-opacity: 0.82"/>
   </g>
   <g id="PathCollection_19">
    <path d="M 83.784177 82.492142 
C 85.324868 82.492142 86.802664 81.88002 87.892096 80.790587 
C 88.981529 79.701154 89.593652 78.223358 89.593652 76.682667 
C 89.593652 75.141977 88.981529 73.664181 87.892096 72.574748 
C 86.802664 71.485315 85.324868 70.873192 83.784177 70.873192 
C 82.243486 70.873192 80.765691 71.485315 79.676258 72.574748 
C 78.586825 73.664181 77.974702 75.141977 77.974702 76.682667 
C 77.974702 78.223358 78.586825 79.701154 79.676258 80.790587 
C 80.765691 81.88002 82.243486 82.492142 83.784177 82.492142 
z
" clip-path="url(#p0ebb88127d)" style="fill: #333333; fill-opacity: 0.82"/>
   </g>
   <g id="PathCollection_20">
    <path d="M 98.736916 82.505956 
C 100.277607 82.505956 101.755403 81.893833 102.844836 80.8044 
C 103.934269 79.714967 104.546391 78.237172 104.546391 76.696481 
C 104.546391 75.15579 103.934269 73.677995 102.844836 72.588562 
C 101.755403 71.499129 100.277607 70.887006 98.736916 70.887006 
C 97.196226 70.887006 95.71843 71.499129 94.628997 72.588562 
C 93.539564 73.677995 92.927441 75.15579 92.927441 76.696481 
C 92.927441 78.237172 93.539564 79.714967 94.628997 80.8044 
C 95.71843 81.893833 97.196226 82.505956 98.736916 82.505956 
z
" clip-path="url(#p0ebb88127d)" style="fill: #ff2000; fill-opacity: 0.82"/>
   </g>
   <g id="PathCollection_21">
    <path d="M 46.412689 69.512957 
C 47.953379 69.512957 49.431175 68.900834 50.520608 67.811401 
C 51.610041 66.721968 52.222164 65.244173 52.222164 63.703482 
C 52.222164 62.162791 51.610041 60.684996 50.520608 59.595563 
C 49.431175 58.50613 47.953379 57.894007 46.412689 57.894007 
C 44.871998 57.894007 43.394202 58.50613 42.304769 59.595563 
C 41.215336 60.684996 40.603214 62.162791 40.603214 63.703482 
C 40.603214 65.244173 41.215336 66.721968 42.304769 67.811401 
C 43.394202 68.900834 44.871998 69.512957 46.412689 69.512957 
z
" clip-path="url(#p0ebb88127d)" style="fill: #ff2000; fill-opacity: 0.82"/>
   </g>
   <g id="PathCollection_22">
    <path d="M 53.897692 56.570032 
C 55.438383 56.570032 56.916179 55.957909 58.005612 54.868476 
C 59.095045 53.779043 59.707167 52.301248 59.707167 50.760557 
C 59.707167 49.219866 59.095045 47.742071 58.005612 46.652638 
C 56.916179 45.563205 55.438383 44.951082 53.897692 44.951082 
C 52.357002 44.951082 50.879206 45.563205 49.789773 46.652638 
C 48.70034 47.742071 48.088217 49.219866 48.088217 50.760557 
C 48.088217 52.301248 48.70034 53.779043 49.789773 54.868476 
C 50.879206 55.957909 52.357002 56.570032 53.897692 56.570032 
z
" clip-path="url(#p0ebb88127d)" style="fill: #ff2000; fill-opacity: 0.82"/>
   </g>
   <g id="PathCollection_23">
    <path d="M 106.216739 78.194525 
C 107.75743 78.194525 109.235226 77.582402 110.324659 76.492969 
C 111.414091 75.403536 112.026214 73.925741 112.026214 72.38505 
C 112.026214 70.844359 111.414091 69.366564 110.324659 68.277131 
C 109.235226 67.187698 107.75743 66.575575 106.216739 66.575575 
C 104.676049 66.575575 103.198253 67.187698 102.10882 68.277131 
C 101.019387 69.366564 100.407264 70.844359 100.407264 72.38505 
C 100.407264 73.925741 101.019387 75.403536 102.10882 76.492969 
C 103.198253 77.582402 104.676049 78.194525 106.216739 78.194525 
z
" clip-path="url(#p0ebb88127d)" style="fill: #ff8000; fill-opacity: 0.82"/>
   </g>
   <g id="PathCollection_24">
    <path d="M 110.526445 85.674347 
C 112.067135 85.674347 113.544931 85.062224 114.634364 83.972791 
C 115.723797 82.883358 116.33592 81.405562 116.33592 79.864872 
C 116.33592 78.324181 115.723797 76.846385 114.634364 75.756952 
C 113.544931 74.667519 112.067135 74.055397 110.526445 74.055397 
C 108.985754 74.055397 107.507958 74.667519 106.418525 75.756952 
C 105.329093 76.846385 104.71697 78.324181 104.71697 79.864872 
C 104.71697 81.405562 105.329093 82.883358 106.418525 83.972791 
C 107.507958 85.062224 108.985754 85.674347 110.526445 85.674347 
z
" clip-path="url(#p0ebb88127d)" style="fill: #ff2000; fill-opacity: 0.82"/>
   </g>
   <g id="PathCollection_25">
    <path d="M 101.905308 70.714701 
C 103.445999 70.714701 104.923795 70.102578 106.013228 69.013146 
C 107.10266 67.923713 107.714783 66.445917 107.714783 64.905226 
C 107.714783 63.364536 107.10266 61.88674 106.013228 60.797307 
C 104.923795 59.707874 103.445999 59.095751 101.905308 59.095751 
C 100.364618 59.095751 98.886822 59.707874 97.797389 60.797307 
C 96.707956 61.88674 96.095833 63.364536 96.095833 64.905226 
C 96.095833 66.445917 96.707956 67.923713 97.797389 69.013146 
C 98.886822 70.102578 100.364618 70.714701 101.905308 70.714701 
z
" clip-path="url(#p0ebb88127d)" style="fill: #ff2000; fill-opacity: 0.82"/>
   </g>
   <g id="PathCollection_26">
    <path d="M 113.696564 73.883094 
C 115.237254 73.883094 116.71505 73.270971 117.804483 72.181538 
C 118.893916 71.092105 119.506039 69.61431 119.506039 68.073619 
C 119.506039 66.532928 118.893916 65.055133 117.804483 63.9657 
C 116.71505 62.876267 115.237254 62.264144 113.696564 62.264144 
C 112.155873 62.264144 110.678077 62.876267 109.588644 63.9657 
C 108.499211 65.055133 107.887089 66.532928 107.887089 68.073619 
C 107.887089 69.61431 108.499211 71.092105 109.588644 72.181538 
C 110.678077 73.270971 112.155873 73.883094 113.696564 73.883094 
z
" clip-path="url(#p0ebb88127d)" style="fill: #ff2000; fill-opacity: 0.82"/>
   </g>
   <g id="text_3">
    <!-- C1 -->
    <g style="fill: #ffffff" transform="translate(58.148632 64.957287) scale(0.045 -0.045)">
     <defs>
      <path id="DejaVuSans-Bold-31" d="M 750 831 
L 1813 831 
L 1813 3847 
L 722 3622 
L 722 4441 
L 1806 4666 
L 2950 4666 
L 2950 831 
L 4013 831 
L 4013 0 
L 750 0 
L 750 831 
z
" transform="scale(0.015625)"/>
     </defs>
     <use xlink:href="#DejaVuSans-Bold-43"/>
     <use xlink:href="#DejaVuSans-Bold-31" transform="translate(73.388672 0)"/>
    </g>
   </g>
   <g id="text_4">
    <!-- C2 -->
    <g style="fill: #ffffff" transform="translate(65.628454 60.647583) scale(0.045 -0.045)">
     <defs>
      <path id="DejaVuSans-Bold-32" d="M 1844 884 
L 3897 884 
L 3897 0 
L 506 0 
L 506 884 
L 2209 2388 
Q 2438 2594 2547 2791 
Q 2656 2988 2656 3200 
Q 2656 3528 2436 3728 
Q 2216 3928 1850 3928 
Q 1569 3928 1234 3808 
Q 900 3688 519 3450 
L 519 4475 
Q 925 4609 1322 4679 
Q 1719 4750 2100 4750 
Q 2938 4750 3402 4381 
Q 3866 4013 3866 3353 
Q 3866 2972 3669 2642 
Q 3472 2313 2841 1759 
L 1844 884 
z
" transform="scale(0.015625)"/>
     </defs>
     <use xlink:href="#DejaVuSans-Bold-43"/>
     <use xlink:href="#DejaVuSans-Bold-32" transform="translate(73.388672 0)"/>
    </g>
   </g>
   <g id="text_5">
    <!-- C9 -->
    <g style="fill: #ffffff" transform="translate(50.675716 60.635497) scale(0.045 -0.045)">
     <use xlink:href="#DejaVuSans-Bold-43"/>
     <use xlink:href="#DejaVuSans-Bold-39" transform="translate(73.388672 0)"/>
    </g>
   </g>
   <g id="text_6">
    <!-- N1 -->
    <g style="fill: #ffffff" transform="translate(57.910044 73.590509) scale(0.045 -0.045)">
     <defs>
      <path id="DejaVuSans-Bold-4e" d="M 588 4666 
L 1931 4666 
L 3628 1466 
L 3628 4666 
L 4769 4666 
L 4769 0 
L 3425 0 
L 1728 3200 
L 1728 0 
L 588 0 
L 588 4666 
z
" transform="scale(0.015625)"/>
     </defs>
     <use xlink:href="#DejaVuSans-Bold-4e"/>
     <use xlink:href="#DejaVuSans-Bold-31" transform="translate(83.691406 0)"/>
    </g>
   </g>
   <g id="text_7">
    <!-- C3 -->
    <g style="fill: #ffffff" transform="translate(73.099644 64.969374) scale(0.045 -0.045)">
     <use xlink:href="#DejaVuSans-Bold-43"/>
     <use xlink:href="#DejaVuSans-Bold-33" transform="translate(73.388672 0)"/>
    </g>
   </g>
   <g id="text_8">
    <!-- C4 -->
    <g style="fill: #ffffff" transform="translate(80.581193 60.65967) scale(0.045 -0.045)">
     <defs>
      <path id="DejaVuSans-Bold-34" d="M 2356 3675 
L 1038 1722 
L 2356 1722 
L 2356 3675 
z
M 2156 4666 
L 3494 4666 
L 3494 1722 
L 4159 1722 
L 4159 850 
L 3494 850 
L 3494 0 
L 2356 0 
L 2356 850 
L 288 850 
L 288 1881 
L 2156 4666 
z
" transform="scale(0.015625)"/>
     </defs>
     <use xlink:href="#DejaVuSans-Bold-43"/>
     <use xlink:href="#DejaVuSans-Bold-34" transform="translate(73.388672 0)"/>
    </g>
   </g>
   <g id="text_9">
    <!-- C8 -->
    <g style="fill: #ffffff" transform="translate(73.092737 73.602596) scale(0.045 -0.045)">
     <defs>
      <path id="DejaVuSans-Bold-38" d="M 2228 2088 
Q 1891 2088 1709 1903 
Q 1528 1719 1528 1375 
Q 1528 1031 1709 848 
Q 1891 666 2228 666 
Q 2563 666 2741 848 
Q 2919 1031 2919 1375 
Q 2919 1722 2741 1905 
Q 2563 2088 2228 2088 
z
M 1350 2484 
Q 925 2613 709 2878 
Q 494 3144 494 3541 
Q 494 4131 934 4440 
Q 1375 4750 2228 4750 
Q 3075 4750 3515 4442 
Q 3956 4134 3956 3541 
Q 3956 3144 3739 2878 
Q 3522 2613 3097 2484 
Q 3572 2353 3814 2058 
Q 4056 1763 4056 1313 
Q 4056 619 3595 264 
Q 3134 -91 2228 -91 
Q 1319 -91 855 264 
Q 391 619 391 1313 
Q 391 1763 633 2058 
Q 875 2353 1350 2484 
z
M 1631 3419 
Q 1631 3141 1786 2991 
Q 1941 2841 2228 2841 
Q 2509 2841 2662 2991 
Q 2816 3141 2816 3419 
Q 2816 3697 2662 3845 
Q 2509 3994 2228 3994 
Q 1941 3994 1786 3844 
Q 1631 3694 1631 3419 
z
" transform="scale(0.015625)"/>
     </defs>
     <use xlink:href="#DejaVuSans-Bold-43"/>
     <use xlink:href="#DejaVuSans-Bold-38" transform="translate(73.388672 0)"/>
    </g>
   </g>
   <g id="text_10">
    <!-- C5 -->
    <g style="fill: #ffffff" transform="translate(88.05411 64.98146) scale(0.045 -0.045)">
     <defs>
      <path id="DejaVuSans-Bold-35" d="M 678 4666 
L 3669 4666 
L 3669 3781 
L 1638 3781 
L 1638 3059 
Q 1775 3097 1914 3117 
Q 2053 3138 2203 3138 
Q 3056 3138 3531 2711 
Q 4006 2284 4006 1522 
Q 4006 766 3489 337 
Q 2972 -91 2053 -91 
Q 1656 -91 1267 -14 
Q 878 63 494 219 
L 494 1166 
Q 875 947 1217 837 
Q 1559 728 1863 728 
Q 2300 728 2551 942 
Q 2803 1156 2803 1522 
Q 2803 1891 2551 2103 
Q 2300 2316 1863 2316 
Q 1603 2316 1309 2248 
Q 1016 2181 678 2041 
L 678 4666 
z
" transform="scale(0.015625)"/>
     </defs>
     <use xlink:href="#DejaVuSans-Bold-43"/>
     <use xlink:href="#DejaVuSans-Bold-35" transform="translate(73.388672 0)"/>
    </g>
   </g>
   <g id="text_11">
    <!-- C6 -->
    <g style="fill: #ffffff" transform="translate(88.047203 73.614682) scale(0.045 -0.045)">
     <defs>
      <path id="DejaVuSans-Bold-36" d="M 2316 2303 
Q 2000 2303 1842 2098 
Q 1684 1894 1684 1484 
Q 1684 1075 1842 870 
Q 2000 666 2316 666 
Q 2634 666 2792 870 
Q 2950 1075 2950 1484 
Q 2950 1894 2792 2098 
Q 2634 2303 2316 2303 
z
M 3803 4544 
L 3803 3681 
Q 3506 3822 3243 3889 
Q 2981 3956 2731 3956 
Q 2194 3956 1894 3657 
Q 1594 3359 1544 2772 
Q 1750 2925 1990 3001 
Q 2231 3078 2516 3078 
Q 3231 3078 3670 2659 
Q 4109 2241 4109 1563 
Q 4109 813 3618 361 
Q 3128 -91 2303 -91 
Q 1394 -91 895 523 
Q 397 1138 397 2266 
Q 397 3422 980 4083 
Q 1563 4744 2578 4744 
Q 2900 4744 3203 4694 
Q 3506 4644 3803 4544 
z
" transform="scale(0.015625)"/>
     </defs>
     <use xlink:href="#DejaVuSans-Bold-43"/>
     <use xlink:href="#DejaVuSans-Bold-36" transform="translate(73.388672 0)"/>
    </g>
   </g>
   <g id="text_12">
    <!-- C7 -->
    <g style="fill: #ffffff" transform="translate(80.56738 77.924386) scale(0.045 -0.045)">
     <defs>
      <path id="DejaVuSans-Bold-37" d="M 428 4666 
L 3944 4666 
L 3944 3988 
L 2125 0 
L 953 0 
L 2675 3781 
L 428 3781 
L 428 4666 
z
" transform="scale(0.015625)"/>
     </defs>
     <use xlink:href="#DejaVuSans-Bold-43"/>
     <use xlink:href="#DejaVuSans-Bold-37" transform="translate(73.388672 0)"/>
    </g>
   </g>
   <g id="text_13">
    <!-- O1 -->
    <g style="fill: #ffffff" transform="translate(95.258557 77.9382) scale(0.045 -0.045)">
     <defs>
      <path id="DejaVuSans-Bold-4f" d="M 2719 3878 
Q 2169 3878 1866 3472 
Q 1563 3066 1563 2328 
Q 1563 1594 1866 1187 
Q 2169 781 2719 781 
Q 3272 781 3575 1187 
Q 3878 1594 3878 2328 
Q 3878 3066 3575 3472 
Q 3272 3878 2719 3878 
z
M 2719 4750 
Q 3844 4750 4481 4106 
Q 5119 3463 5119 2328 
Q 5119 1197 4481 553 
Q 3844 -91 2719 -91 
Q 1597 -91 958 553 
Q 319 1197 319 2328 
Q 319 3463 958 4106 
Q 1597 4750 2719 4750 
z
" transform="scale(0.015625)"/>
     </defs>
     <use xlink:href="#DejaVuSans-Bold-4f"/>
     <use xlink:href="#DejaVuSans-Bold-31" transform="translate(85.009766 0)"/>
    </g>
   </g>
   <g id="text_14">
    <!-- O5 -->
    <g style="fill: #ffffff" transform="translate(42.934329 64.945201) scale(0.045 -0.045)">
     <use xlink:href="#DejaVuSans-Bold-4f"/>
     <use xlink:href="#DejaVuSans-Bold-35" transform="translate(85.009766 0)"/>
    </g>
   </g>
   <g id="text_15">
    <!-- O6 -->
    <g style="fill: #ffffff" transform="translate(50.419333 52.002276) scale(0.045 -0.045)">
     <use xlink:href="#DejaVuSans-Bold-4f"/>
     <use xlink:href="#DejaVuSans-Bold-36" transform="translate(85.009766 0)"/>
    </g>
   </g>
   <g id="text_16">
    <!-- P1 -->
    <g style="fill: #ffffff" transform="translate(103.002052 73.626769) scale(0.045 -0.045)">
     <defs>
      <path id="DejaVuSans-Bold-50" d="M 588 4666 
L 2584 4666 
Q 3475 4666 3951 4270 
Q 4428 3875 4428 3144 
Q 4428 2409 3951 2014 
Q 3475 1619 2584 1619 
L 1791 1619 
L 1791 0 
L 588 0 
L 588 4666 
z
M 1791 3794 
L 1791 2491 
L 2456 2491 
Q 2806 2491 2997 2661 
Q 3188 2831 3188 3144 
Q 3188 3456 2997 3625 
Q 2806 3794 2456 3794 
L 1791 3794 
z
" transform="scale(0.015625)"/>
     </defs>
     <use xlink:href="#DejaVuSans-Bold-50"/>
     <use xlink:href="#DejaVuSans-Bold-31" transform="translate(73.291016 0)"/>
    </g>
   </g>
   <g id="text_17">
    <!-- O2 -->
    <g style="fill: #ffffff" transform="translate(107.048085 81.10659) scale(0.045 -0.045)">
     <use xlink:href="#DejaVuSans-Bold-4f"/>
     <use xlink:href="#DejaVuSans-Bold-32" transform="translate(85.009766 0)"/>
    </g>
   </g>
   <g id="text_18">
    <!-- O3 -->
    <g style="fill: #ffffff" transform="translate(98.426949 66.146945) scale(0.045 -0.045)">
     <use xlink:href="#DejaVuSans-Bold-4f"/>
     <use xlink:href="#DejaVuSans-Bold-33" transform="translate(85.009766 0)"/>
    </g>
   </g>
   <g id="text_19">
    <!-- O4 -->
    <g style="fill: #ffffff" transform="translate(110.218204 69.315338) scale(0.045 -0.045)">
     <use xlink:href="#DejaVuSans-Bold-4f"/>
     <use xlink:href="#DejaVuSans-Bold-34" transform="translate(85.009766 0)"/>
    </g>
   </g>
   <g id="text_20">
    <!-- Y46 -->
    <g transform="translate(52.301518 30.763615) scale(0.065 -0.065)">
     <defs>
      <path id="DejaVuSans-Bold-59" d="M -63 4666 
L 1253 4666 
L 2316 3003 
L 3378 4666 
L 4697 4666 
L 2919 1966 
L 2919 0 
L 1716 0 
L 1716 1966 
L -63 4666 
z
" transform="scale(0.015625)"/>
     </defs>
     <use xlink:href="#DejaVuSans-Bold-59"/>
     <use xlink:href="#DejaVuSans-Bold-34" transform="translate(72.412109 0)"/>
     <use xlink:href="#DejaVuSans-Bold-36" transform="translate(141.992188 0)"/>
    </g>
   </g>
   <g id="text_21">
    <!-- A217 -->
    <g transform="translate(124.174737 83.323259) scale(0.065 -0.065)">
     <defs>
      <path id="DejaVuSans-Bold-41" d="M 3419 850 
L 1538 850 
L 1241 0 
L 31 0 
L 1759 4666 
L 3194 4666 
L 4922 0 
L 3713 0 
L 3419 850 
z
M 1838 1716 
L 3116 1716 
L 2478 3572 
L 1838 1716 
z
" transform="scale(0.015625)"/>
     </defs>
     <use xlink:href="#DejaVuSans-Bold-41"/>
     <use xlink:href="#DejaVuSans-Bold-32" transform="translate(77.392578 0)"/>
     <use xlink:href="#DejaVuSans-Bold-31" transform="translate(146.972656 0)"/>
     <use xlink:href="#DejaVuSans-Bold-37" transform="translate(216.552734 0)"/>
    </g>
   </g>
   <g id="text_22">
    <!-- R47 -->
    <g transform="translate(32.110874 87.189277) scale(0.065 -0.065)">
     <defs>
      <path id="DejaVuSans-Bold-52" d="M 2297 2597 
Q 2675 2597 2839 2737 
Q 3003 2878 3003 3200 
Q 3003 3519 2839 3656 
Q 2675 3794 2297 3794 
L 1791 3794 
L 1791 2597 
L 2297 2597 
z
M 1791 1766 
L 1791 0 
L 588 0 
L 588 4666 
L 2425 4666 
Q 3347 4666 3776 4356 
Q 4206 4047 4206 3378 
Q 4206 2916 3982 2619 
Q 3759 2322 3309 2181 
Q 3556 2125 3751 1926 
Q 3947 1728 4147 1325 
L 4800 0 
L 3519 0 
L 2950 1159 
Q 2778 1509 2601 1637 
Q 2425 1766 2131 1766 
L 1791 1766 
z
" transform="scale(0.015625)"/>
     </defs>
     <use xlink:href="#DejaVuSans-Bold-52"/>
     <use xlink:href="#DejaVuSans-Bold-34" transform="translate(77.001953 0)"/>
     <use xlink:href="#DejaVuSans-Bold-37" transform="translate(146.582031 0)"/>
    </g>
   </g>
   <g id="text_23">
    <!-- C215 -->
    <g transform="translate(141.745475 104.452001) scale(0.065 -0.065)">
     <use xlink:href="#DejaVuSans-Bold-43"/>
     <use xlink:href="#DejaVuSans-Bold-32" transform="translate(73.388672 0)"/>
     <use xlink:href="#DejaVuSans-Bold-31" transform="translate(142.96875 0)"/>
     <use xlink:href="#DejaVuSans-Bold-35" transform="translate(212.548828 0)"/>
    </g>
   </g>
   <g id="text_24">
    <!-- S216 -->
    <g transform="translate(126.497295 28.714148) scale(0.065 -0.065)">
     <defs>
      <path id="DejaVuSans-Bold-53" d="M 3834 4519 
L 3834 3531 
Q 3450 3703 3084 3790 
Q 2719 3878 2394 3878 
Q 1963 3878 1756 3759 
Q 1550 3641 1550 3391 
Q 1550 3203 1689 3098 
Q 1828 2994 2194 2919 
L 2706 2816 
Q 3484 2659 3812 2340 
Q 4141 2022 4141 1434 
Q 4141 663 3683 286 
Q 3225 -91 2284 -91 
Q 1841 -91 1394 -6 
Q 947 78 500 244 
L 500 1259 
Q 947 1022 1364 901 
Q 1781 781 2169 781 
Q 2563 781 2772 912 
Q 2981 1044 2981 1288 
Q 2981 1506 2839 1625 
Q 2697 1744 2272 1838 
L 1806 1941 
Q 1106 2091 782 2419 
Q 459 2747 459 3303 
Q 459 4000 909 4375 
Q 1359 4750 2203 4750 
Q 2588 4750 2994 4692 
Q 3400 4634 3834 4519 
z
" transform="scale(0.015625)"/>
     </defs>
     <use xlink:href="#DejaVuSans-Bold-53"/>
     <use xlink:href="#DejaVuSans-Bold-32" transform="translate(72.021484 0)"/>
     <use xlink:href="#DejaVuSans-Bold-31" transform="translate(141.601562 0)"/>
     <use xlink:href="#DejaVuSans-Bold-36" transform="translate(211.181641 0)"/>
    </g>
   </g>
   <g id="text_25">
    <!-- G218 -->
    <g transform="translate(95.628366 130.020965) scale(0.065 -0.065)">
     <defs>
      <path id="DejaVuSans-Bold-47" d="M 4781 347 
Q 4331 128 3847 18 
Q 3363 -91 2847 -91 
Q 1681 -91 1000 561 
Q 319 1213 319 2328 
Q 319 3456 1012 4103 
Q 1706 4750 2913 4750 
Q 3378 4750 3804 4662 
Q 4231 4575 4609 4403 
L 4609 3438 
Q 4219 3659 3833 3768 
Q 3447 3878 3059 3878 
Q 2341 3878 1952 3476 
Q 1563 3075 1563 2328 
Q 1563 1588 1938 1184 
Q 2313 781 3003 781 
Q 3191 781 3352 804 
Q 3513 828 3641 878 
L 3641 1784 
L 2906 1784 
L 2906 2591 
L 4781 2591 
L 4781 347 
z
" transform="scale(0.015625)"/>
     </defs>
     <use xlink:href="#DejaVuSans-Bold-47"/>
     <use xlink:href="#DejaVuSans-Bold-32" transform="translate(82.080078 0)"/>
     <use xlink:href="#DejaVuSans-Bold-31" transform="translate(151.660156 0)"/>
     <use xlink:href="#DejaVuSans-Bold-38" transform="translate(221.240234 0)"/>
    </g>
   </g>
   <g id="text_26">
    <!-- I219 -->
    <g transform="translate(151.988039 72.319086) scale(0.065 -0.065)">
     <defs>
      <path id="DejaVuSans-Bold-49" d="M 588 4666 
L 1791 4666 
L 1791 0 
L 588 0 
L 588 4666 
z
" transform="scale(0.015625)"/>
     </defs>
     <use xlink:href="#DejaVuSans-Bold-49"/>
     <use xlink:href="#DejaVuSans-Bold-32" transform="translate(37.207031 0)"/>
     <use xlink:href="#DejaVuSans-Bold-31" transform="translate(106.787109 0)"/>
     <use xlink:href="#DejaVuSans-Bold-39" transform="translate(176.367188 0)"/>
    </g>
   </g>
   <g id="text_27">
    <!-- G220 -->
    <g transform="translate(111.665099 107.56946) scale(0.065 -0.065)">
     <defs>
      <path id="DejaVuSans-Bold-30" d="M 2944 2338 
Q 2944 3213 2780 3570 
Q 2616 3928 2228 3928 
Q 1841 3928 1675 3570 
Q 1509 3213 1509 2338 
Q 1509 1453 1675 1090 
Q 1841 728 2228 728 
Q 2613 728 2778 1090 
Q 2944 1453 2944 2338 
z
M 4147 2328 
Q 4147 1169 3647 539 
Q 3147 -91 2228 -91 
Q 1306 -91 806 539 
Q 306 1169 306 2328 
Q 306 3491 806 4120 
Q 1306 4750 2228 4750 
Q 3147 4750 3647 4120 
Q 4147 3491 4147 2328 
z
" transform="scale(0.015625)"/>
     </defs>
     <use xlink:href="#DejaVuSans-Bold-47"/>
     <use xlink:href="#DejaVuSans-Bold-32" transform="translate(82.080078 0)"/>
     <use xlink:href="#DejaVuSans-Bold-32" transform="translate(151.660156 0)"/>
     <use xlink:href="#DejaVuSans-Bold-30" transform="translate(221.240234 0)"/>
    </g>
   </g>
   <g id="text_28">
    <!-- R221 -->
    <g transform="translate(125.586367 55.887671) scale(0.065 -0.065)">
     <use xlink:href="#DejaVuSans-Bold-52"/>
     <use xlink:href="#DejaVuSans-Bold-32" transform="translate(77.001953 0)"/>
     <use xlink:href="#DejaVuSans-Bold-32" transform="translate(146.582031 0)"/>
     <use xlink:href="#DejaVuSans-Bold-31" transform="translate(216.162109 0)"/>
    </g>
   </g>
   <g id="patch_32">
    <path d="M 1.860746 138.878135 
L 184.213899 138.878135 
L 184.213899 1.402809 
L 1.860746 1.402809 
L 1.860746 138.878135 
z
" clip-path="url(#p0ebb88127d)" style="fill: none; opacity: 0.85; stroke-dasharray: 3.25,3.25; stroke-dashoffset: 0; stroke: #bdbdbd; stroke-width: 0.65; stroke-linejoin: miter"/>
   </g>
  </g>
 </g>
 <defs>
  <clipPath id="p0ebb88127d">
   <rect x="0" y="0" width="186.074646" height="140.280945"/>
  </clipPath>
 </defs>
</svg>
