<?xml version="1.0" encoding="utf-8" standalone="no"?>
<!DOCTYPE svg PUBLIC "-//W3C//DTD SVG 1.1//EN"
  "http://www.w3.org/Graphics/SVG/1.1/DTD/svg11.dtd">
<svg xmlns:xlink="http://www.w3.org/1999/xlink" width="186.074646pt" height="140.280945pt" viewBox="0 0 186.074646 140.280945" xmlns="http://www.w3.org/2000/svg" version="1.1">
 <metadata>
  <rdf:RDF xmlns:dc="http://purl.org/dc/elements/1.1/" xmlns:cc="http://creativecommons.org/ns#" xmlns:rdf="http://www.w3.org/1999/02/22-rdf-syntax-ns#">
   <cc:Work>
    <dc:type rdf:resource="http://purl.org/dc/dcmitype/StillImage"/>
    <dc:date>2026-09-01T11:24:24.778703</dc:date>
    <dc:format>image/svg+xml</dc:format>
    <dc:creator>
     <cc:Agent>
      <dc:title>Matplotlib v3.10.1, https://matplotlib.org/</dc:title>
     </cc:Agent>
    </dc:creator>
   </cc:Work>
  </rdf:RDF>
 </metadata>
 <defs>
  <style type="text/css">*{stroke-linejoin: round; stroke-linecap: butt}</style>
 </defs>
 <g id="figure_1">
  <g id="patch_1">
   <path d="M 0 140.280945 
L 186.074646 140.280945 
L 186.074646 0 
L 0 0 
z
" style="fill: #ffffff"/>
  </g>
  <g id="axes_1">
   <g id="patch_2">
    <path d="M 0 140.280945 
L 186.074646 140.280945 
L 186.074646 0 
L 0 0 
z
" style="fill: #ffffff"/>
   </g>
   <g id="line2d_1">
    <path d="M 60.860719 64.784807 
L 68.340541 60.475103 
" clip-path="url(#p6087c191ce)" style="fill: none; stroke: #808080; stroke-width: 0.8; stroke-linecap: square"/>
   </g>
   <g id="line2d_2">
    <path d="M 60.860719 64.784807 
L 53.387803 60.463017 
" clip-path="url(#p6087c191ce)" style="fill: none; stroke: #808080; stroke-width: 0.8; stroke-linecap: square"/>
   </g>
   <g id="line2d_3">
    <path d="M 60.860719 64.784807 
L 60.853811 73.418029 
" clip-path="url(#p6087c191ce)" style="fill: none; stroke: #808080; stroke-width: 0.8; stroke-linecap: square"/>
   </g>
   <g id="line2d_4">
    <path d="M 68.340541 60.475103 
L 75.811732 64.796893 
" clip-path="url(#p6087c191ce)" style="fill: none; stroke: #808080; stroke-width: 0.8; stroke-linecap: square"/>
   </g>
   <g id="line2d_5">
    <path d="M 53.387803 60.463017 
L 45.907979 64.77272 
" clip-path="url(#p6087c191ce)" style="fill: none; stroke: #808080; stroke-width: 0.8; stroke-linecap: square"/>
   </g>
   <g id="line2d_6">
    <path d="M 53.387803 60.463017 
L 53.392983 51.829795 
" clip-path="url(#p6087c191ce)" style="fill: none; stroke: #808080; stroke-width: 0.8; stroke-linecap: square"/>
   </g>
   <g id="line2d_7">
    <path d="M 75.811732 64.796893 
L 83.293281 60.487189 
" clip-path="url(#p6087c191ce)" style="fill: none; stroke: #808080; stroke-width: 0.8; stroke-linecap: square"/>
   </g>
   <g id="line2d_8">
    <path d="M 75.811732 64.796893 
L 75.804825 73.430115 
" clip-path="url(#p6087c191ce)" style="fill: none; stroke: #808080; stroke-width: 0.8; stroke-linecap: square"/>
   </g>
   <g id="line2d_9">
    <path d="M 83.293281 60.487189 
L 90.766197 64.80898 
" clip-path="url(#p6087c191ce)" style="fill: none; stroke: #808080; stroke-width: 0.8; stroke-linecap: square"/>
   </g>
   <g id="line2d_10">
    <path d="M 75.804825 73.430115 
L 83.279468 77.751906 
" clip-path="url(#p6087c191ce)" style="fill: none; stroke: #808080; stroke-width: 0.8; stroke-linecap: square"/>
   </g>
   <g id="line2d_11">
    <path d="M 90.766197 64.80898 
L 90.759291 73.442202 
" clip-path="url(#p6087c191ce)" style="fill: none; stroke: #808080; stroke-width: 0.8; stroke-linecap: square"/>
   </g>
   <g id="line2d_12">
    <path d="M 90.759291 73.442202 
L 83.279468 77.751906 
" clip-path="url(#p6087c191ce)" style="fill: none; stroke: #808080; stroke-width: 0.8; stroke-linecap: square"/>
   </g>
   <g id="line2d_13">
    <path d="M 90.759291 73.442202 
L 98.232207 77.765719 
" clip-path="url(#p6087c191ce)" style="fill: none; stroke: #808080; stroke-width: 0.8; stroke-linecap: square"/>
   </g>
   <g id="line2d_14">
    <path d="M 98.232207 77.765719 
L 105.71203 73.454288 
" clip-path="url(#p6087c191ce)" style="fill: none; stroke: #808080; stroke-width: 0.8; stroke-linecap: square"/>
   </g>
   <g id="line2d_15">
    <path d="M 105.71203 73.454288 
L 110.021735 80.93411 
" clip-path="url(#p6087c191ce)" style="fill: none; stroke: #808080; stroke-width: 0.8; stroke-linecap: square"/>
   </g>
   <g id="line2d_16">
    <path d="M 105.71203 73.454288 
L 101.400599 65.974465 
" clip-path="url(#p6087c191ce)" style="fill: none; stroke: #808080; stroke-width: 0.8; stroke-linecap: square"/>
   </g>
   <g id="line2d_17">
    <path d="M 105.71203 73.454288 
L 113.191854 69.142857 
" clip-path="url(#p6087c191ce)" style="fill: none; stroke: #808080; stroke-width: 0.8; stroke-linecap: square"/>
   </g>
   <g id="matplotlib.axis_1"/>
   <g id="matplotlib.axis_2"/>
   <g id="patch_3">
    <path d="M 61.842236 44.124522 
C 61.741945 43.709989 61.620167 43.293122 61.479827 42.883937 
C 61.339488 42.474753 61.181722 42.076556 61.01032 41.698916 
" clip-path="url(#p6087c191ce)" style="fill: none; opacity: 0.82; stroke: #2e8b57; stroke-linejoin: miter"/>
   </g>
   <g id="patch_4">
    <path d="M 62.716188 43.796116 
C 62.620617 43.402236 62.504814 43.006157 62.37154 42.617312 
C 62.238265 42.228468 62.088584 41.84997 61.926063 41.490832 
" clip-path="url(#p6087c191ce)" style="fill: none; opacity: 0.82; stroke: #2e8b57; stroke-linejoin: miter"/>
   </g>
   <g id="patch_5">
    <path d="M 63.590135 43.467709 
C 63.499287 43.094482 63.389463 42.719193 63.263252 42.35069 
C 63.137041 41.982188 62.995444 41.623391 62.841798 41.28276 
" clip-path="url(#p6087c191ce)" style="fill: none; opacity: 0.82; stroke: #2e8b57; stroke-linejoin: miter"/>
   </g>
   <g id="patch_6">
    <path d="M 64.464077 43.139301 
C 64.377958 42.786729 64.274113 42.43223 64.154965 42.084071 
C 64.035818 41.735912 63.9023 41.396821 63.757525 41.074704 
" clip-path="url(#p6087c191ce)" style="fill: none; opacity: 0.82; stroke: #2e8b57; stroke-linejoin: miter"/>
   </g>
   <g id="patch_7">
    <path d="M 65.540903 42.848047 
C 65.450055 42.47482 65.340231 42.099531 65.21402 41.731028 
C 65.087809 41.362526 64.946212 41.003729 64.792566 40.663099 
" clip-path="url(#p6087c191ce)" style="fill: none; opacity: 0.82; stroke: #2e8b57; stroke-linejoin: miter"/>
   </g>
   <g id="patch_8">
    <path d="M 66.617724 42.556792 
C 66.522153 42.162912 66.40635 41.766833 66.273076 41.377989 
C 66.139801 40.989144 65.99012 40.610646 65.827599 40.251508 
" clip-path="url(#p6087c191ce)" style="fill: none; opacity: 0.82; stroke: #2e8b57; stroke-linejoin: miter"/>
   </g>
   <g id="patch_9">
    <path d="M 67.69454 42.265536 
C 67.594249 41.851004 67.472471 41.434136 67.332131 41.024952 
C 67.191792 40.615767 67.034026 40.21757 66.862624 39.83993 
" clip-path="url(#p6087c191ce)" style="fill: none; opacity: 0.82; stroke: #2e8b57; stroke-linejoin: miter"/>
   </g>
   <g id="patch_10">
    <path d="M 58.924326 73.941671 
Q 47.445523 77.195798 37.265618 83.418403 
" clip-path="url(#p6087c191ce)" style="fill: none; opacity: 0.82; stroke-dasharray: 3.7,1.6; stroke-dashoffset: 0; stroke: #1f77b4; stroke-linecap: round"/>
   </g>
   <g id="patch_11">
    <path d="M 68.657267 44.364495 
C 68.413021 44.014868 68.14791 43.670883 67.868307 43.340809 
C 67.588703 43.010735 67.296865 42.697236 66.999805 42.407847 
" clip-path="url(#p6087c191ce)" style="fill: none; opacity: 0.82; stroke: #2e8b57; stroke-linejoin: miter"/>
   </g>
   <g id="patch_12">
    <path d="M 69.351823 43.740607 
C 69.119487 43.4085 68.867507 43.081705 68.601885 42.768006 
C 68.336262 42.454308 68.059123 42.156215 67.777067 41.880828 
" clip-path="url(#p6087c191ce)" style="fill: none; opacity: 0.82; stroke: #2e8b57; stroke-linejoin: miter"/>
   </g>
   <g id="patch_13">
    <path d="M 70.046373 43.116721 
C 69.825952 42.802133 69.587105 42.492527 69.335464 42.195206 
C 69.083823 41.897884 68.821381 41.615202 68.554327 41.353824 
" clip-path="url(#p6087c191ce)" style="fill: none; opacity: 0.82; stroke: #2e8b57; stroke-linejoin: miter"/>
   </g>
   <g id="patch_14">
    <path d="M 70.740918 42.492836 
C 70.532417 42.195766 70.306705 41.90335 70.069045 41.622408 
C 69.831385 41.341466 69.583639 41.074198 69.331584 40.826838 
" clip-path="url(#p6087c191ce)" style="fill: none; opacity: 0.82; stroke: #2e8b57; stroke-linejoin: miter"/>
   </g>
   <g id="patch_15">
    <path d="M 71.637961 41.829738 
C 71.41754 41.515149 71.178692 41.205544 70.927051 40.908223 
C 70.67541 40.610901 70.412968 40.328219 70.145914 40.066841 
" clip-path="url(#p6087c191ce)" style="fill: none; opacity: 0.82; stroke: #2e8b57; stroke-linejoin: miter"/>
   </g>
   <g id="patch_16">
    <path d="M 72.534997 41.166641 
C 72.302661 40.834533 72.050682 40.507738 71.785059 40.19404 
C 71.519437 39.880341 71.242298 39.582248 70.960242 39.306861 
" clip-path="url(#p6087c191ce)" style="fill: none; opacity: 0.82; stroke: #2e8b57; stroke-linejoin: miter"/>
   </g>
   <g id="patch_17">
    <path d="M 73.432029 40.503544 
C 73.187783 40.153917 72.922672 39.809933 72.643069 39.479859 
C 72.363466 39.149785 72.071627 38.836286 71.774568 38.546896 
" clip-path="url(#p6087c191ce)" style="fill: none; opacity: 0.82; stroke: #2e8b57; stroke-linejoin: miter"/>
   </g>
   <g id="patch_18">
    <path d="M 99.896201 52.817084 
C 100.203187 52.521018 100.501327 52.205231 100.783456 51.877313 
C 101.065585 51.549395 101.329424 51.211993 101.568634 50.873216 
" clip-path="url(#p6087c191ce)" style="fill: none; opacity: 0.82; stroke: #2e8b57; stroke-linejoin: miter"/>
   </g>
   <g id="patch_19">
    <path d="M 100.621315 53.405177 
C 100.912866 53.123622 101.196089 52.8235 101.464238 52.511958 
C 101.732388 52.200416 101.983317 51.879949 102.211051 51.558187 
" clip-path="url(#p6087c191ce)" style="fill: none; opacity: 0.82; stroke: #2e8b57; stroke-linejoin: miter"/>
   </g>
   <g id="patch_20">
    <path d="M 101.346427 53.993265 
C 101.622545 53.726225 101.890851 53.44177 102.145019 53.146605 
C 102.399187 52.85144 102.637202 52.547905 102.853453 52.243157 
" clip-path="url(#p6087c191ce)" style="fill: none; opacity: 0.82; stroke: #2e8b57; stroke-linejoin: miter"/>
   </g>
   <g id="patch_21">
    <path d="M 102.071536 54.581347 
C 102.332223 54.328828 102.585613 54.060041 102.825797 53.781254 
C 103.065981 53.502467 103.291078 53.215863 103.495839 52.928127 
" clip-path="url(#p6087c191ce)" style="fill: none; opacity: 0.82; stroke: #2e8b57; stroke-linejoin: miter"/>
   </g>
   <g id="patch_22">
    <path d="M 102.867138 55.36327 
C 103.143256 55.09623 103.411563 54.811774 103.66573 54.51661 
C 103.919898 54.221445 104.157914 53.91791 104.374165 53.613162 
" clip-path="url(#p6087c191ce)" style="fill: none; opacity: 0.82; stroke: #2e8b57; stroke-linejoin: miter"/>
   </g>
   <g id="patch_23">
    <path d="M 103.662738 56.145186 
C 103.954289 55.863631 104.237512 55.563509 104.505661 55.251968 
C 104.77381 54.940426 105.02474 54.619958 105.252474 54.298196 
" clip-path="url(#p6087c191ce)" style="fill: none; opacity: 0.82; stroke: #2e8b57; stroke-linejoin: miter"/>
   </g>
   <g id="patch_24">
    <path d="M 104.458336 56.927098 
C 104.765322 56.631032 105.063461 56.315246 105.34559 55.987327 
C 105.627719 55.659409 105.891558 55.322007 106.130768 54.983231 
" clip-path="url(#p6087c191ce)" style="fill: none; opacity: 0.82; stroke: #2e8b57; stroke-linejoin: miter"/>
   </g>
   <g id="patch_25">
    <path d="M 111.253359 79.231411 
C 111.673887 79.302486 112.105024 79.35473 112.536409 79.386887 
C 112.967794 79.419045 113.395943 79.430856 113.810567 79.422037 
" clip-path="url(#p6087c191ce)" style="fill: none; opacity: 0.82; stroke: #2e8b57; stroke-linejoin: miter"/>
   </g>
   <g id="patch_26">
    <path d="M 111.211023 80.164069 
C 111.610709 80.231348 112.020384 80.280897 112.430291 80.311538 
C 112.840197 80.342178 113.247055 80.353663 113.641175 80.34572 
" clip-path="url(#p6087c191ce)" style="fill: none; opacity: 0.82; stroke: #2e8b57; stroke-linejoin: miter"/>
   </g>
   <g id="patch_27">
    <path d="M 111.168691 81.096722 
C 111.547532 81.160209 111.935743 81.207066 112.32417 81.236187 
C 112.712596 81.265309 113.098162 81.276465 113.471774 81.269392 
" clip-path="url(#p6087c191ce)" style="fill: none; opacity: 0.82; stroke: #2e8b57; stroke-linejoin: miter"/>
   </g>
   <g id="patch_28">
    <path d="M 111.126361 82.029371 
C 111.484355 82.08907 111.851101 82.133235 112.218046 82.160836 
C 112.584991 82.188438 112.949262 82.19926 113.302363 82.193049 
" clip-path="url(#p6087c191ce)" style="fill: none; opacity: 0.82; stroke: #2e8b57; stroke-linejoin: miter"/>
   </g>
   <g id="patch_29">
    <path d="M 110.969976 83.133875 
C 111.348817 83.197361 111.737028 83.244218 112.125455 83.27334 
C 112.513881 83.302461 112.899447 83.313617 113.273059 83.306544 
" clip-path="url(#p6087c191ce)" style="fill: none; opacity: 0.82; stroke: #2e8b57; stroke-linejoin: miter"/>
   </g>
   <g id="patch_30">
    <path d="M 110.813593 84.238373 
C 111.213279 84.305652 111.622954 84.355202 112.032861 84.385842 
C 112.442767 84.416482 112.849625 84.427968 113.243745 84.420025 
" clip-path="url(#p6087c191ce)" style="fill: none; opacity: 0.82; stroke: #2e8b57; stroke-linejoin: miter"/>
   </g>
   <g id="patch_31">
    <path d="M 110.657214 85.342868 
C 111.077742 85.413942 111.508879 85.466186 111.940264 85.498344 
C 112.371649 85.530501 112.799798 85.542312 113.214422 85.533494 
" clip-path="url(#p6087c191ce)" style="fill: none; opacity: 0.82; stroke: #2e8b57; stroke-linejoin: miter"/>
   </g>
   <g id="patch_32">
    <path d="M 126.405258 73.019702 
C 126.831726 73.015251 127.265305 72.990388 127.695574 72.945712 
C 128.125842 72.901036 128.549326 72.836908 128.955848 72.754868 
" clip-path="url(#p6087c191ce)" style="fill: none; opacity: 0.82; stroke: #2e8b57; stroke-linejoin: miter"/>
   </g>
   <g id="patch_33">
    <path d="M 126.528608 73.945136 
C 126.933892 73.940636 127.34587 73.916919 127.75473 73.87455 
C 128.163591 73.832181 128.566062 73.771499 128.952559 73.693949 
" clip-path="url(#p6087c191ce)" style="fill: none; opacity: 0.82; stroke: #2e8b57; stroke-linejoin: miter"/>
   </g>
   <g id="patch_34">
    <path d="M 126.65196 74.870565 
C 127.036057 74.866021 127.426433 74.843451 127.813885 74.803388 
C 128.201336 74.763325 128.582792 74.706086 128.949258 74.63302 
" clip-path="url(#p6087c191ce)" style="fill: none; opacity: 0.82; stroke: #2e8b57; stroke-linejoin: miter"/>
   </g>
   <g id="patch_35">
    <path d="M 126.775314 75.795989 
C 127.138222 75.791405 127.506996 75.769984 127.873035 75.732226 
C 128.239075 75.694467 128.599513 75.640667 128.945945 75.572079 
" clip-path="url(#p6087c191ce)" style="fill: none; opacity: 0.82; stroke: #2e8b57; stroke-linejoin: miter"/>
   </g>
   <g id="patch_36">
    <path d="M 126.816818 76.910736 
C 127.200915 76.906192 127.591292 76.883622 127.978743 76.843559 
C 128.366194 76.803496 128.74765 76.746257 129.114116 76.673191 
" clip-path="url(#p6087c191ce)" style="fill: none; opacity: 0.82; stroke: #2e8b57; stroke-linejoin: miter"/>
   </g>
   <g id="patch_37">
    <path d="M 126.858325 78.025478 
C 127.263609 78.020979 127.675587 77.997262 128.084447 77.954893 
C 128.493308 77.912524 128.895779 77.851841 129.282275 77.774291 
" clip-path="url(#p6087c191ce)" style="fill: none; opacity: 0.82; stroke: #2e8b57; stroke-linejoin: miter"/>
   </g>
   <g id="patch_38">
    <path d="M 126.899833 79.140216 
C 127.326302 79.135764 127.75988 79.110902 128.190149 79.066226 
C 128.620418 79.02155 129.043902 78.957421 129.450424 78.875381 
" clip-path="url(#p6087c191ce)" style="fill: none; opacity: 0.82; stroke: #2e8b57; stroke-linejoin: miter"/>
   </g>
   <g id="patch_39">
    <path d="M 107.541082 72.640676 
Q 121.341909 66.350272 132.858417 56.481085 
" clip-path="url(#p6087c191ce)" style="fill: none; opacity: 0.82; stroke-dasharray: 3.7,1.6; stroke-dashoffset: 0; stroke: #dc143c; stroke-linecap: round"/>
   </g>
   <g id="patch_40">
    <path d="M 109.499338 82.86313 
Q 103.730675 104.713747 104.494822 127.300102 
" clip-path="url(#p6087c191ce)" style="fill: none; opacity: 0.82; stroke-dasharray: 3.7,1.6; stroke-dashoffset: 0; stroke: #1f77b4; stroke-linecap: round"/>
   </g>
   <g id="patch_41">
    <path d="M 112.018953 80.865933 
Q 135.44022 79.922417 157.592516 72.259354 
" clip-path="url(#p6087c191ce)" style="fill: none; opacity: 0.82; stroke-dasharray: 3.7,1.6; stroke-dashoffset: 0; stroke: #1f77b4; stroke-linecap: round"/>
   </g>
   <g id="patch_42">
    <path d="M 110.49792 82.87676 
Q 113.516207 94.625573 119.591054 105.125141 
" clip-path="url(#p6087c191ce)" style="fill: none; opacity: 0.82; stroke-dasharray: 3.7,1.6; stroke-dashoffset: 0; stroke: #1f77b4; stroke-linecap: round"/>
   </g>
   <g id="patch_43">
    <path d="M 102.778375 67.421919 
Q 123.070659 88.528468 148.656281 102.763476 
" clip-path="url(#p6087c191ce)" style="fill: none; opacity: 0.82; stroke-dasharray: 3.7,1.6; stroke-dashoffset: 0; stroke: #1f77b4; stroke-linecap: round"/>
   </g>
   <g id="patch_44">
    <path d="M 103.372956 65.641712 
Q 118.656675 62.922645 132.582482 56.062769 
" clip-path="url(#p6087c191ce)" style="fill: none; opacity: 0.82; stroke-dasharray: 3.7,1.6; stroke-dashoffset: 0; stroke: #1f77b4; stroke-linecap: round"/>
   </g>
   <g id="patch_45">
    <path d="M 114.389367 67.539663 
Q 127.179834 50.176965 134.455104 29.875936 
" clip-path="url(#p6087c191ce)" style="fill: none; opacity: 0.82; stroke-dasharray: 3.7,1.6; stroke-dashoffset: 0; stroke: #1f77b4; stroke-linecap: round"/>
   </g>
   <g id="patch_46">
    <path d="M 114.663056 70.494783 
Q 122.166191 77.212252 131.169003 81.725546 
" clip-path="url(#p6087c191ce)" style="fill: none; opacity: 0.82; stroke-dasharray: 3.7,1.6; stroke-dashoffset: 0; stroke: #1f77b4; stroke-linecap: round"/>
   </g>
   <g id="PathCollection_1">
    <path d="M 58.67259 40.645861 
C 61.485493 40.645861 64.183566 39.528282 66.17259 37.539259 
C 68.161613 35.550236 69.279191 32.852163 69.279191 30.039259 
C 69.279191 27.226355 68.161613 24.528282 66.17259 22.539259 
C 64.183566 20.550236 61.485493 19.432657 58.67259 19.432657 
C 55.859686 19.432657 53.161613 20.550236 51.17259 22.539259 
C 49.183566 24.528282 48.065988 27.226355 48.065988 30.039259 
C 48.065988 32.852163 49.183566 35.550236 51.17259 37.539259 
C 53.161613 39.528282 55.859686 40.645861 58.67259 40.645861 
z
" clip-path="url(#p6087c191ce)" style="fill: #e0e0e0; fill-opacity: 0.62"/>
   </g>
   <g id="PathCollection_2">
    <path d="M 109.221241 54.930402 
C 112.034145 54.930402 114.732218 53.812823 116.721241 51.8238 
C 118.710264 49.834777 119.827843 47.136704 119.827843 44.3238 
C 119.827843 41.510896 118.710264 38.812823 116.721241 36.8238 
C 114.732218 34.834777 112.034145 33.717198 109.221241 33.717198 
C 106.408337 33.717198 103.710264 34.834777 101.721241 36.8238 
C 99.732218 38.812823 98.614639 41.510896 98.614639 44.3238 
C 98.614639 47.136704 99.732218 49.834777 101.721241 51.8238 
C 103.710264 53.812823 106.408337 54.930402 109.221241 54.930402 
z
" clip-path="url(#p6087c191ce)" style="fill: #e0e0e0; fill-opacity: 0.62"/>
   </g>
   <g id="PathCollection_3">
    <path d="M 132.96909 93.205506 
C 135.781994 93.205506 138.480067 92.087927 140.46909 90.098904 
C 142.458113 88.109881 143.575692 85.411808 143.575692 82.598904 
C 143.575692 79.786 142.458113 77.087927 140.46909 75.098904 
C 138.480067 73.109881 135.781994 71.992302 132.96909 71.992302 
C 130.156186 71.992302 127.458113 73.109881 125.46909 75.098904 
C 123.480067 77.087927 122.362488 79.786 122.362488 82.598904 
C 122.362488 85.411808 123.480067 88.109881 125.46909 90.098904 
C 127.458113 92.087927 130.156186 93.205506 132.96909 93.205506 
z
" clip-path="url(#p6087c191ce)" style="fill: #e0e0e0; fill-opacity: 0.62"/>
   </g>
   <g id="PathCollection_4">
    <path d="M 159.476298 82.201332 
C 162.289202 82.201332 164.987275 81.083754 166.976298 79.094731 
C 168.965321 77.105707 170.0829 74.407634 170.0829 71.594731 
C 170.0829 68.781827 168.965321 66.083754 166.976298 64.094731 
C 164.987275 62.105707 162.289202 60.988129 159.476298 60.988129 
C 156.663394 60.988129 153.965321 62.105707 151.976298 64.094731 
C 149.987275 66.083754 148.869696 68.781827 148.869696 71.594731 
C 148.869696 74.407634 149.987275 77.105707 151.976298 79.094731 
C 153.965321 81.083754 156.663394 82.201332 159.476298 82.201332 
z
" clip-path="url(#p6087c191ce)" style="fill: #e0e0e0; fill-opacity: 0.62"/>
   </g>
   <g id="PathCollection_5">
    <path d="M 35.569771 95.087999 
C 38.382674 95.087999 41.080748 93.97042 43.069771 91.981397 
C 45.058794 89.992374 46.176373 87.294301 46.176373 84.481397 
C 46.176373 81.668493 45.058794 78.97042 43.069771 76.981397 
C 41.080748 74.992374 38.382674 73.874795 35.569771 73.874795 
C 32.756867 73.874795 30.058794 74.992374 28.069771 76.981397 
C 26.080748 78.97042 24.963169 81.668493 24.963169 84.481397 
C 24.963169 87.294301 26.080748 89.992374 28.069771 91.981397 
C 30.058794 93.97042 32.756867 95.087999 35.569771 95.087999 
z
" clip-path="url(#p6087c191ce)" style="fill: #e0e0e0; fill-opacity: 0.62"/>
   </g>
   <g id="PathCollection_6">
    <path d="M 150.409828 114.334247 
C 153.222731 114.334247 155.920804 113.216669 157.909828 111.227646 
C 159.898851 109.238623 161.016429 106.540549 161.016429 103.727646 
C 161.016429 100.914742 159.898851 98.216669 157.909828 96.227646 
C 155.920804 94.238623 153.222731 93.121044 150.409828 93.121044 
C 147.596924 93.121044 144.898851 94.238623 142.909828 96.227646 
C 140.920804 98.216669 139.803226 100.914742 139.803226 103.727646 
C 139.803226 106.540549 140.920804 109.238623 142.909828 111.227646 
C 144.898851 113.216669 147.596924 114.334247 150.409828 114.334247 
z
" clip-path="url(#p6087c191ce)" style="fill: #e0e0e0; fill-opacity: 0.62"/>
   </g>
   <g id="PathCollection_7">
    <path d="M 135.116961 38.596394 
C 137.929864 38.596394 140.627937 37.478816 142.616961 35.489793 
C 144.605984 33.500769 145.723562 30.802696 145.723562 27.989793 
C 145.723562 25.176889 144.605984 22.478816 142.616961 20.489793 
C 140.627937 18.500769 137.929864 17.383191 135.116961 17.383191 
C 132.304057 17.383191 129.605984 18.500769 127.616961 20.489793 
C 125.627937 22.478816 124.510359 25.176889 124.510359 27.989793 
C 124.510359 30.802696 125.627937 33.500769 127.616961 35.489793 
C 129.605984 37.478816 132.304057 38.596394 135.116961 38.596394 
z
" clip-path="url(#p6087c191ce)" style="fill: #e0e0e0; fill-opacity: 0.62"/>
   </g>
   <g id="PathCollection_8">
    <path d="M 104.575063 139.903212 
C 107.387966 139.903212 110.08604 138.785633 112.075063 136.79661 
C 114.064086 134.807587 115.181665 132.109514 115.181665 129.29661 
C 115.181665 126.483706 114.064086 123.785633 112.075063 121.79661 
C 110.08604 119.807587 107.387966 118.690008 104.575063 118.690008 
C 101.762159 118.690008 99.064086 119.807587 97.075063 121.79661 
C 95.08604 123.785633 93.968461 126.483706 93.968461 129.29661 
C 93.968461 132.109514 95.08604 134.807587 97.075063 136.79661 
C 99.064086 138.785633 101.762159 139.903212 104.575063 139.903212 
z
" clip-path="url(#p6087c191ce)" style="fill: #e0e0e0; fill-opacity: 0.62"/>
   </g>
   <g id="PathCollection_9">
    <path d="M 120.611796 117.451706 
C 123.4247 117.451706 126.122773 116.334128 128.111796 114.345105 
C 130.100819 112.356081 131.218398 109.658008 131.218398 106.845105 
C 131.218398 104.032201 130.100819 101.334128 128.111796 99.345105 
C 126.122773 97.356081 123.4247 96.238503 120.611796 96.238503 
C 117.798892 96.238503 115.100819 97.356081 113.111796 99.345105 
C 111.122773 101.334128 110.005194 104.032201 110.005194 106.845105 
C 110.005194 109.658008 111.122773 112.356081 113.111796 114.345105 
C 115.100819 116.334128 117.798892 117.451706 120.611796 117.451706 
z
" clip-path="url(#p6087c191ce)" style="fill: #e0e0e0; fill-opacity: 0.62"/>
   </g>
   <g id="PathCollection_10">
    <path d="M 134.368024 65.769917 
C 137.180928 65.769917 139.879001 64.652339 141.868024 62.663316 
C 143.857048 60.674292 144.974626 57.976219 144.974626 55.163316 
C 144.974626 52.350412 143.857048 49.652339 141.868024 47.663316 
C 139.879001 45.674292 137.180928 44.556714 134.368024 44.556714 
C 131.555121 44.556714 128.857048 45.674292 126.868024 47.663316 
C 124.879001 49.652339 123.761423 52.350412 123.761423 55.163316 
C 123.761423 57.976219 124.879001 60.674292 126.868024 62.663316 
C 128.857048 64.652339 131.555121 65.769917 134.368024 65.769917 
z
" clip-path="url(#p6087c191ce)" style="fill: #e0e0e0; fill-opacity: 0.62"/>
   </g>
   <g id="text_1">
    <!-- Class 10 -->
    <g transform="translate(8.373359 126.797299) scale(0.075 -0.075)">
     <defs>
      <path id="DejaVuSans-Bold-43" d="M 4288 256 
Q 3956 84 3597 -3 
Q 3238 -91 2847 -91 
Q 1681 -91 1000 561 
Q 319 1213 319 2328 
Q 319 3447 1000 4098 
Q 1681 4750 2847 4750 
Q 3238 4750 3597 4662 
Q 3956 4575 4288 4403 
L 4288 3438 
Q 3953 3666 3628 3772 
Q 3303 3878 2944 3878 
Q 2300 3878 1931 3465 
Q 1563 3053 1563 2328 
Q 1563 1606 1931 1193 
Q 2300 781 2944 781 
Q 3303 781 3628 887 
Q 3953 994 4288 1222 
L 4288 256 
z
" transform="scale(0.015625)"/>
      <path id="DejaVuSans-Bold-6c" d="M 538 4863 
L 1656 4863 
L 1656 0 
L 538 0 
L 538 4863 
z
" transform="scale(0.015625)"/>
      <path id="DejaVuSans-Bold-61" d="M 2106 1575 
Q 1756 1575 1579 1456 
Q 1403 1338 1403 1106 
Q 1403 894 1545 773 
Q 1688 653 1941 653 
Q 2256 653 2472 879 
Q 2688 1106 2688 1447 
L 2688 1575 
L 2106 1575 
z
M 3816 1997 
L 3816 0 
L 2688 0 
L 2688 519 
Q 2463 200 2181 54 
Q 1900 -91 1497 -91 
Q 953 -91 614 226 
Q 275 544 275 1050 
Q 275 1666 698 1953 
Q 1122 2241 2028 2241 
L 2688 2241 
L 2688 2328 
Q 2688 2594 2478 2717 
Q 2269 2841 1825 2841 
Q 1466 2841 1156 2769 
Q 847 2697 581 2553 
L 581 3406 
Q 941 3494 1303 3539 
Q 1666 3584 2028 3584 
Q 2975 3584 3395 3211 
Q 3816 2838 3816 1997 
z
" transform="scale(0.015625)"/>
      <path id="DejaVuSans-Bold-73" d="M 3272 3391 
L 3272 2541 
Q 2913 2691 2578 2766 
Q 2244 2841 1947 2841 
Q 1628 2841 1473 2761 
Q 1319 2681 1319 2516 
Q 1319 2381 1436 2309 
Q 1553 2238 1856 2203 
L 2053 2175 
Q 2913 2066 3209 1816 
Q 3506 1566 3506 1031 
Q 3506 472 3093 190 
Q 2681 -91 1863 -91 
Q 1516 -91 1145 -36 
Q 775 19 384 128 
L 384 978 
Q 719 816 1070 734 
Q 1422 653 1784 653 
Q 2113 653 2278 743 
Q 2444 834 2444 1013 
Q 2444 1163 2330 1236 
Q 2216 1309 1875 1350 
L 1678 1375 
Q 931 1469 631 1722 
Q 331 1975 331 2491 
Q 331 3047 712 3315 
Q 1094 3584 1881 3584 
Q 2191 3584 2531 3537 
Q 2872 3491 3272 3391 
z
" transform="scale(0.015625)"/>
      <path id="DejaVuSans-Bold-20" transform="scale(0.015625)"/>
      <path id="DejaVuSans-Bold-31" d="M 750 831 
L 1813 831 
L 1813 3847 
L 722 3622 
L 722 4441 
L 1806 4666 
L 2950 4666 
L 2950 831 
L 4013 831 
L 4013 0 
L 750 0 
L 750 831 
z
" transform="scale(0.015625)"/>
      <path id="DejaVuSans-Bold-30" d="M 2944 2338 
Q 2944 3213 2780 3570 
Q 2616 3928 2228 3928 
Q 1841 3928 1675 3570 
Q 1509 3213 1509 2338 
Q 1509 1453 1675 1090 
Q 1841 728 2228 728 
Q 2613 728 2778 1090 
Q 2944 1453 2944 2338 
z
M 4147 2328 
Q 4147 1169 3647 539 
Q 3147 -91 2228 -91 
Q 1306 -91 806 539 
Q 306 1169 306 2328 
Q 306 3491 806 4120 
Q 1306 4750 2228 4750 
Q 3147 4750 3647 4120 
Q 4147 3491 4147 2328 
z
" transform="scale(0.015625)"/>
     </defs>
     <use xlink:href="#DejaVuSans-Bold-43"/>
     <use xlink:href="#DejaVuSans-Bold-6c" transform="translate(73.388672 0)"/>
     <use xlink:href="#DejaVuSans-Bold-61" transform="translate(107.666016 0)"/>
     <use xlink:href="#DejaVuSans-Bold-73" transform="translate(175.146484 0)"/>
     <use xlink:href="#DejaVuSans-Bold-73" transform="translate(234.667969 0)"/>
     <use xlink:href="#DejaVuSans-Bold-20" transform="translate(294.189453 0)"/>
     <use xlink:href="#DejaVuSans-Bold-31" transform="translate(329.003906 0)"/>
     <use xlink:href="#DejaVuSans-Bold-30" transform="translate(398.583984 0)"/>
    </g>
   </g>
   <g id="text_2">
    <!-- n=25 -->
    <g style="fill: #444444" transform="translate(9.303732 17.564269) scale(0.065 -0.065)">
     <defs>
      <path id="DejaVuSans-6e" d="M 3513 2113 
L 3513 0 
L 2938 0 
L 2938 2094 
Q 2938 2591 2744 2837 
Q 2550 3084 2163 3084 
Q 1697 3084 1428 2787 
Q 1159 2491 1159 1978 
L 1159 0 
L 581 0 
L 581 3500 
L 1159 3500 
L 1159 2956 
Q 1366 3272 1645 3428 
Q 1925 3584 2291 3584 
Q 2894 3584 3203 3211 
Q 3513 2838 3513 2113 
z
" transform="scale(0.015625)"/>
      <path id="DejaVuSans-3d" d="M 678 2906 
L 4684 2906 
L 4684 2381 
L 678 2381 
L 678 2906 
z
M 678 1631 
L 4684 1631 
L 4684 1100 
L 678 1100 
L 678 1631 
z
" transform="scale(0.015625)"/>
      <path id="DejaVuSans-32" d="M 1228 531 
L 3431 531 
L 3431 0 
L 469 0 
L 469 531 
Q 828 903 1448 1529 
Q 2069 2156 2228 2338 
Q 2531 2678 2651 2914 
Q 2772 3150 2772 3378 
Q 2772 3750 2511 3984 
Q 2250 4219 1831 4219 
Q 1534 4219 1204 4116 
Q 875 4013 500 3803 
L 500 4441 
Q 881 4594 1212 4672 
Q 1544 4750 1819 4750 
Q 2544 4750 2975 4387 
Q 3406 4025 3406 3419 
Q 3406 3131 3298 2873 
Q 3191 2616 2906 2266 
Q 2828 2175 2409 1742 
Q 1991 1309 1228 531 
z
" transform="scale(0.015625)"/>
      <path id="DejaVuSans-35" d="M 691 4666 
L 3169 4666 
L 3169 4134 
L 1269 4134 
L 1269 2991 
Q 1406 3038 1543 3061 
Q 1681 3084 1819 3084 
Q 2600 3084 3056 2656 
Q 3513 2228 3513 1497 
Q 3513 744 3044 326 
Q 2575 -91 1722 -91 
Q 1428 -91 1123 -41 
Q 819 9 494 109 
L 494 744 
Q 775 591 1075 516 
Q 1375 441 1709 441 
Q 2250 441 2565 725 
Q 2881 1009 2881 1497 
Q 2881 1984 2565 2268 
Q 2250 2553 1709 2553 
Q 1456 2553 1204 2497 
Q 953 2441 691 2322 
L 691 4666 
z
" transform="scale(0.015625)"/>
     </defs>
     <use xlink:href="#DejaVuSans-6e"/>
     <use xlink:href="#DejaVuSans-3d" transform="translate(63.378906 0)"/>
     <use xlink:href="#DejaVuSans-32" transform="translate(147.167969 0)"/>
     <use xlink:href="#DejaVuSans-35" transform="translate(210.791016 0)"/>
    </g>
   </g>
   <g id="PathCollection_11">
    <path d="M 60.860719 70.594282 
C 62.40141 70.594282 63.879206 69.982159 64.968639 68.892726 
C 66.058072 67.803293 66.670194 66.325498 66.670194 64.784807 
C 66.670194 63.244116 66.058072 61.766321 64.968639 60.676888 
C 63.879206 59.587455 62.40141 58.975332 60.860719 58.975332 
C 59.320029 58.975332 57.842233 59.587455 56.7528 60.676888 
C 55.663367 61.766321 55.051244 63.244116 55.051244 64.784807 
C 55.051244 66.325498 55.663367 67.803293 56.7528 68.892726 
C 57.842233 69.982159 59.320029 70.594282 60.860719 70.594282 
z
" clip-path="url(#p6087c191ce)" style="fill: #333333; fill-opacity: 0.82"/>
   </g>
   <g id="PathCollection_12">
    <path d="M 68.340541 66.284578 
C 69.881232 66.284578 71.359027 65.672455 72.44846 64.583022 
C 73.537893 63.493589 74.150016 62.015794 74.150016 60.475103 
C 74.150016 58.934412 73.537893 57.456617 72.44846 56.367184 
C 71.359027 55.277751 69.881232 54.665628 68.340541 54.665628 
C 66.79985 54.665628 65.322055 55.277751 64.232622 56.367184 
C 63.143189 57.456617 62.531066 58.934412 62.531066 60.475103 
C 62.531066 62.015794 63.143189 63.493589 64.232622 64.583022 
C 65.322055 65.672455 66.79985 66.284578 68.340541 66.284578 
z
" clip-path="url(#p6087c191ce)" style="fill: #333333; fill-opacity: 0.82"/>
   </g>
   <g id="PathCollection_13">
    <path d="M 53.387803 66.272492 
C 54.928494 66.272492 56.40629 65.660369 57.495722 64.570936 
C 58.585155 63.481503 59.197278 62.003707 59.197278 60.463017 
C 59.197278 58.922326 58.585155 57.44453 57.495722 56.355097 
C 56.40629 55.265664 54.928494 54.653542 53.387803 54.653542 
C 51.847113 54.653542 50.369317 55.265664 49.279884 56.355097 
C 48.190451 57.44453 47.578328 58.922326 47.578328 60.463017 
C 47.578328 62.003707 48.190451 63.481503 49.279884 64.570936 
C 50.369317 65.660369 51.847113 66.272492 53.387803 66.272492 
z
" clip-path="url(#p6087c191ce)" style="fill: #333333; fill-opacity: 0.82"/>
   </g>
   <g id="PathCollection_14">
    <path d="M 60.853811 79.227504 
C 62.394502 79.227504 63.872298 78.615381 64.961731 77.525948 
C 66.051163 76.436515 66.663286 74.95872 66.663286 73.418029 
C 66.663286 71.877338 66.051163 70.399543 64.961731 69.31011 
C 63.872298 68.220677 62.394502 67.608554 60.853811 67.608554 
C 59.313121 67.608554 57.835325 68.220677 56.745892 69.31011 
C 55.656459 70.399543 55.044336 71.877338 55.044336 73.418029 
C 55.044336 74.95872 55.656459 76.436515 56.745892 77.525948 
C 57.835325 78.615381 59.313121 79.227504 60.853811 79.227504 
z
" clip-path="url(#p6087c191ce)" style="fill: #3050f8; fill-opacity: 0.82"/>
   </g>
   <g id="PathCollection_15">
    <path d="M 75.811732 70.606368 
C 77.352422 70.606368 78.830218 69.994245 79.919651 68.904813 
C 81.009084 67.81538 81.621207 66.337584 81.621207 64.796893 
C 81.621207 63.256203 81.009084 61.778407 79.919651 60.688974 
C 78.830218 59.599541 77.352422 58.987418 75.811732 58.987418 
C 74.271041 58.987418 72.793245 59.599541 71.703812 60.688974 
C 70.614379 61.778407 70.002256 63.256203 70.002256 64.796893 
C 70.002256 66.337584 70.614379 67.81538 71.703812 68.904813 
C 72.793245 69.994245 74.271041 70.606368 75.811732 70.606368 
z
" clip-path="url(#p6087c191ce)" style="fill: #333333; fill-opacity: 0.82"/>
   </g>
   <g id="PathCollection_16">
    <path d="M 83.293281 66.296665 
C 84.833972 66.296665 86.311767 65.684542 87.4012 64.595109 
C 88.490633 63.505676 89.102756 62.02788 89.102756 60.487189 
C 89.102756 58.946499 88.490633 57.468703 87.4012 56.37927 
C 86.311767 55.289837 84.833972 54.677714 83.293281 54.677714 
C 81.75259 54.677714 80.274795 55.289837 79.185362 56.37927 
C 78.095929 57.468703 77.483806 58.946499 77.483806 60.487189 
C 77.483806 62.02788 78.095929 63.505676 79.185362 64.595109 
C 80.274795 65.684542 81.75259 66.296665 83.293281 66.296665 
z
" clip-path="url(#p6087c191ce)" style="fill: #333333; fill-opacity: 0.82"/>
   </g>
   <g id="PathCollection_17">
    <path d="M 75.804825 79.23959 
C 77.345516 79.23959 78.823311 78.627467 79.912744 77.538035 
C 81.002177 76.448602 81.6143 74.970806 81.6143 73.430115 
C 81.6143 71.889425 81.002177 70.411629 79.912744 69.322196 
C 78.823311 68.232763 77.345516 67.62064 75.804825 67.62064 
C 74.264134 67.62064 72.786338 68.232763 71.696906 69.322196 
C 70.607473 70.411629 69.99535 71.889425 69.99535 73.430115 
C 69.99535 74.970806 70.607473 76.448602 71.696906 77.538035 
C 72.786338 78.627467 74.264134 79.23959 75.804825 79.23959 
z
" clip-path="url(#p6087c191ce)" style="fill: #333333; fill-opacity: 0.82"/>
   </g>
   <g id="PathCollection_18">
    <path d="M 90.766197 70.618455 
C 92.306888 70.618455 93.784684 70.006332 94.874116 68.916899 
C 95.963549 67.827466 96.575672 66.349671 96.575672 64.80898 
C 96.575672 63.268289 95.963549 61.790494 94.874116 60.701061 
C 93.784684 59.611628 92.306888 58.999505 90.766197 58.999505 
C 89.225506 58.999505 87.747711 59.611628 86.658278 60.701061 
C 85.568845 61.790494 84.956722 63.268289 84.956722 64.80898 
C 84.956722 66.349671 85.568845 67.827466 86.658278 68.916899 
C 87.747711 70.006332 89.225506 70.618455 90.766197 70.618455 
z
" clip-path="url(#p6087c191ce)" style="fill: #333333; fill-opacity: 0.82"/>
   </g>
   <g id="PathCollection_19">
    <path d="M 90.759291 79.251677 
C 92.299982 79.251677 93.777777 78.639554 94.86721 77.550121 
C 95.956643 76.460688 96.568766 74.982893 96.568766 73.442202 
C 96.568766 71.901511 95.956643 70.423716 94.86721 69.334283 
C 93.777777 68.24485 92.299982 67.632727 90.759291 67.632727 
C 89.2186 67.632727 87.740805 68.24485 86.651372 69.334283 
C 85.561939 70.423716 84.949816 71.901511 84.949816 73.442202 
C 84.949816 74.982893 85.561939 76.460688 86.651372 77.550121 
C 87.740805 78.639554 89.2186 79.251677 90.759291 79.251677 
z
" clip-path="url(#p6087c191ce)" style="fill: #333333; fill-opacity: 0.82"/>
   </g>
   <g id="PathCollection_20">
    <path d="M 83.279468 83.561381 
C 84.820159 83.561381 86.297954 82.949258 87.387387 81.859825 
C 88.47682 80.770392 89.088943 79.292597 89.088943 77.751906 
C 89.088943 76.211215 88.47682 74.733419 87.387387 73.643987 
C 86.297954 72.554554 84.820159 71.942431 83.279468 71.942431 
C 81.738777 71.942431 80.260981 72.554554 79.171549 73.643987 
C 78.082116 74.733419 77.469993 76.211215 77.469993 77.751906 
C 77.469993 79.292597 78.082116 80.770392 79.171549 81.859825 
C 80.260981 82.949258 81.738777 83.561381 83.279468 83.561381 
z
" clip-path="url(#p6087c191ce)" style="fill: #333333; fill-opacity: 0.82"/>
   </g>
   <g id="PathCollection_21">
    <path d="M 98.232207 83.575194 
C 99.772898 83.575194 101.250693 82.963071 102.340126 81.873638 
C 103.429559 80.784206 104.041682 79.30641 104.041682 77.765719 
C 104.041682 76.225028 103.429559 74.747233 102.340126 73.6578 
C 101.250693 72.568367 99.772898 71.956244 98.232207 71.956244 
C 96.691516 71.956244 95.213721 72.568367 94.124288 73.6578 
C 93.034855 74.747233 92.422732 76.225028 92.422732 77.765719 
C 92.422732 79.30641 93.034855 80.784206 94.124288 81.873638 
C 95.213721 82.963071 96.691516 83.575194 98.232207 83.575194 
z
" clip-path="url(#p6087c191ce)" style="fill: #ff2000; fill-opacity: 0.82"/>
   </g>
   <g id="PathCollection_22">
    <path d="M 45.907979 70.582196 
C 47.44867 70.582196 48.926465 69.970073 50.015898 68.88064 
C 51.105331 67.791207 51.717454 66.313411 51.717454 64.77272 
C 51.717454 63.23203 51.105331 61.754234 50.015898 60.664801 
C 48.926465 59.575368 47.44867 58.963245 45.907979 58.963245 
C 44.367288 58.963245 42.889493 59.575368 41.80006 60.664801 
C 40.710627 61.754234 40.098504 63.23203 40.098504 64.77272 
C 40.098504 66.313411 40.710627 67.791207 41.80006 68.88064 
C 42.889493 69.970073 44.367288 70.582196 45.907979 70.582196 
z
" clip-path="url(#p6087c191ce)" style="fill: #ff2000; fill-opacity: 0.82"/>
   </g>
   <g id="PathCollection_23">
    <path d="M 53.392983 57.63927 
C 54.933674 57.63927 56.411469 57.027147 57.500902 55.937714 
C 58.590335 54.848282 59.202458 53.370486 59.202458 51.829795 
C 59.202458 50.289104 58.590335 48.811309 57.500902 47.721876 
C 56.411469 46.632443 54.933674 46.02032 53.392983 46.02032 
C 51.852292 46.02032 50.374497 46.632443 49.285064 47.721876 
C 48.195631 48.811309 47.583508 50.289104 47.583508 51.829795 
C 47.583508 53.370486 48.195631 54.848282 49.285064 55.937714 
C 50.374497 57.027147 51.852292 57.63927 53.392983 57.63927 
z
" clip-path="url(#p6087c191ce)" style="fill: #ff2000; fill-opacity: 0.82"/>
   </g>
   <g id="PathCollection_24">
    <path d="M 105.71203 79.263763 
C 107.252721 79.263763 108.730516 78.65164 109.819949 77.562207 
C 110.909382 76.472775 111.521505 74.994979 111.521505 73.454288 
C 111.521505 71.913598 110.909382 70.435802 109.819949 69.346369 
C 108.730516 68.256936 107.252721 67.644813 105.71203 67.644813 
C 104.171339 67.644813 102.693544 68.256936 101.604111 69.346369 
C 100.514678 70.435802 99.902555 71.913598 99.902555 73.454288 
C 99.902555 74.994979 100.514678 76.472775 101.604111 77.562207 
C 102.693544 78.65164 104.171339 79.263763 105.71203 79.263763 
z
" clip-path="url(#p6087c191ce)" style="fill: #ff8000; fill-opacity: 0.82"/>
   </g>
   <g id="PathCollection_25">
    <path d="M 110.021735 86.743585 
C 111.562426 86.743585 113.040221 86.131462 114.129654 85.042029 
C 115.219087 83.952596 115.83121 82.474801 115.83121 80.93411 
C 115.83121 79.393419 115.219087 77.915624 114.129654 76.826191 
C 113.040221 75.736758 111.562426 75.124635 110.021735 75.124635 
C 108.481044 75.124635 107.003249 75.736758 105.913816 76.826191 
C 104.824383 77.915624 104.21226 79.393419 104.21226 80.93411 
C 104.21226 82.474801 104.824383 83.952596 105.913816 85.042029 
C 107.003249 86.131462 108.481044 86.743585 110.021735 86.743585 
z
" clip-path="url(#p6087c191ce)" style="fill: #ff2000; fill-opacity: 0.82"/>
   </g>
   <g id="PathCollection_26">
    <path d="M 101.400599 71.78394 
C 102.94129 71.78394 104.419085 71.171817 105.508518 70.082384 
C 106.597951 68.992951 107.210074 67.515156 107.210074 65.974465 
C 107.210074 64.433774 106.597951 62.955978 105.508518 61.866546 
C 104.419085 60.777113 102.94129 60.16499 101.400599 60.16499 
C 99.859908 60.16499 98.382113 60.777113 97.29268 61.866546 
C 96.203247 62.955978 95.591124 64.433774 95.591124 65.974465 
C 95.591124 67.515156 96.203247 68.992951 97.29268 70.082384 
C 98.382113 71.171817 99.859908 71.78394 101.400599 71.78394 
z
" clip-path="url(#p6087c191ce)" style="fill: #ff2000; fill-opacity: 0.82"/>
   </g>
   <g id="PathCollection_27">
    <path d="M 113.191854 74.952332 
C 114.732545 74.952332 116.21034 74.340209 117.299773 73.250777 
C 118.389206 72.161344 119.001329 70.683548 119.001329 69.142857 
C 119.001329 67.602167 118.389206 66.124371 117.299773 65.034938 
C 116.21034 63.945505 114.732545 63.333382 113.191854 63.333382 
C 111.651163 63.333382 110.173368 63.945505 109.083935 65.034938 
C 107.994502 66.124371 107.382379 67.602167 107.382379 69.142857 
C 107.382379 70.683548 107.994502 72.161344 109.083935 73.250777 
C 110.173368 74.340209 111.651163 74.952332 113.191854 74.952332 
z
" clip-path="url(#p6087c191ce)" style="fill: #ff2000; fill-opacity: 0.82"/>
   </g>
   <g id="text_3">
    <!-- C1 -->
    <g style="fill: #ffffff" transform="translate(57.643923 66.026526) scale(0.045 -0.045)">
     <use xlink:href="#DejaVuSans-Bold-43"/>
     <use xlink:href="#DejaVuSans-Bold-31" transform="translate(73.388672 0)"/>
    </g>
   </g>
   <g id="text_4">
    <!-- C2 -->
    <g style="fill: #ffffff" transform="translate(65.123744 61.716822) scale(0.045 -0.045)">
     <defs>
      <path id="DejaVuSans-Bold-32" d="M 1844 884 
L 3897 884 
L 3897 0 
L 506 0 
L 506 884 
L 2209 2388 
Q 2438 2594 2547 2791 
Q 2656 2988 2656 3200 
Q 2656 3528 2436 3728 
Q 2216 3928 1850 3928 
Q 1569 3928 1234 3808 
Q 900 3688 519 3450 
L 519 4475 
Q 925 4609 1322 4679 
Q 1719 4750 2100 4750 
Q 2938 4750 3402 4381 
Q 3866 4013 3866 3353 
Q 3866 2972 3669 2642 
Q 3472 2313 2841 1759 
L 1844 884 
z
" transform="scale(0.015625)"/>
     </defs>
     <use xlink:href="#DejaVuSans-Bold-43"/>
     <use xlink:href="#DejaVuSans-Bold-32" transform="translate(73.388672 0)"/>
    </g>
   </g>
   <g id="text_5">
    <!-- C9 -->
    <g style="fill: #ffffff" transform="translate(50.171006 61.704735) scale(0.045 -0.045)">
     <defs>
      <path id="DejaVuSans-Bold-39" d="M 641 103 
L 641 966 
Q 928 831 1190 764 
Q 1453 697 1709 697 
Q 2247 697 2547 995 
Q 2847 1294 2900 1881 
Q 2688 1725 2447 1647 
Q 2206 1569 1925 1569 
Q 1209 1569 770 1986 
Q 331 2403 331 3084 
Q 331 3838 820 4291 
Q 1309 4744 2131 4744 
Q 3044 4744 3544 4128 
Q 4044 3513 4044 2388 
Q 4044 1231 3459 570 
Q 2875 -91 1856 -91 
Q 1528 -91 1228 -42 
Q 928 6 641 103 
z
M 2125 2350 
Q 2441 2350 2600 2554 
Q 2759 2759 2759 3169 
Q 2759 3575 2600 3781 
Q 2441 3988 2125 3988 
Q 1809 3988 1650 3781 
Q 1491 3575 1491 3169 
Q 1491 2759 1650 2554 
Q 1809 2350 2125 2350 
z
" transform="scale(0.015625)"/>
     </defs>
     <use xlink:href="#DejaVuSans-Bold-43"/>
     <use xlink:href="#DejaVuSans-Bold-39" transform="translate(73.388672 0)"/>
    </g>
   </g>
   <g id="text_6">
    <!-- N1 -->
    <g style="fill: #ffffff" transform="translate(57.405335 74.659748) scale(0.045 -0.045)">
     <defs>
      <path id="DejaVuSans-Bold-4e" d="M 588 4666 
L 1931 4666 
L 3628 1466 
L 3628 4666 
L 4769 4666 
L 4769 0 
L 3425 0 
L 1728 3200 
L 1728 0 
L 588 0 
L 588 4666 
z
" transform="scale(0.015625)"/>
     </defs>
     <use xlink:href="#DejaVuSans-Bold-4e"/>
     <use xlink:href="#DejaVuSans-Bold-31" transform="translate(83.691406 0)"/>
    </g>
   </g>
   <g id="text_7">
    <!-- C3 -->
    <g style="fill: #ffffff" transform="translate(72.594935 66.038612) scale(0.045 -0.045)">
     <defs>
      <path id="DejaVuSans-Bold-33" d="M 2981 2516 
Q 3453 2394 3698 2092 
Q 3944 1791 3944 1325 
Q 3944 631 3412 270 
Q 2881 -91 1863 -91 
Q 1503 -91 1142 -33 
Q 781 25 428 141 
L 428 1069 
Q 766 900 1098 814 
Q 1431 728 1753 728 
Q 2231 728 2486 893 
Q 2741 1059 2741 1369 
Q 2741 1688 2480 1852 
Q 2219 2016 1709 2016 
L 1228 2016 
L 1228 2791 
L 1734 2791 
Q 2188 2791 2409 2933 
Q 2631 3075 2631 3366 
Q 2631 3634 2415 3781 
Q 2200 3928 1806 3928 
Q 1516 3928 1219 3862 
Q 922 3797 628 3669 
L 628 4550 
Q 984 4650 1334 4700 
Q 1684 4750 2022 4750 
Q 2931 4750 3382 4451 
Q 3834 4153 3834 3553 
Q 3834 3144 3618 2883 
Q 3403 2622 2981 2516 
z
" transform="scale(0.015625)"/>
     </defs>
     <use xlink:href="#DejaVuSans-Bold-43"/>
     <use xlink:href="#DejaVuSans-Bold-33" transform="translate(73.388672 0)"/>
    </g>
   </g>
   <g id="text_8">
    <!-- C4 -->
    <g style="fill: #ffffff" transform="translate(80.076484 61.728908) scale(0.045 -0.045)">
     <defs>
      <path id="DejaVuSans-Bold-34" d="M 2356 3675 
L 1038 1722 
L 2356 1722 
L 2356 3675 
z
M 2156 4666 
L 3494 4666 
L 3494 1722 
L 4159 1722 
L 4159 850 
L 3494 850 
L 3494 0 
L 2356 0 
L 2356 850 
L 288 850 
L 288 1881 
L 2156 4666 
z
" transform="scale(0.015625)"/>
     </defs>
     <use xlink:href="#DejaVuSans-Bold-43"/>
     <use xlink:href="#DejaVuSans-Bold-34" transform="translate(73.388672 0)"/>
    </g>
   </g>
   <g id="text_9">
    <!-- C8 -->
    <g style="fill: #ffffff" transform="translate(72.588028 74.671834) scale(0.045 -0.045)">
     <defs>
      <path id="DejaVuSans-Bold-38" d="M 2228 2088 
Q 1891 2088 1709 1903 
Q 1528 1719 1528 1375 
Q 1528 1031 1709 848 
Q 1891 666 2228 666 
Q 2563 666 2741 848 
Q 2919 1031 2919 1375 
Q 2919 1722 2741 1905 
Q 2563 2088 2228 2088 
z
M 1350 2484 
Q 925 2613 709 2878 
Q 494 3144 494 3541 
Q 494 4131 934 4440 
Q 1375 4750 2228 4750 
Q 3075 4750 3515 4442 
Q 3956 4134 3956 3541 
Q 3956 3144 3739 2878 
Q 3522 2613 3097 2484 
Q 3572 2353 3814 2058 
Q 4056 1763 4056 1313 
Q 4056 619 3595 264 
Q 3134 -91 2228 -91 
Q 1319 -91 855 264 
Q 391 619 391 1313 
Q 391 1763 633 2058 
Q 875 2353 1350 2484 
z
M 1631 3419 
Q 1631 3141 1786 2991 
Q 1941 2841 2228 2841 
Q 2509 2841 2662 2991 
Q 2816 3141 2816 3419 
Q 2816 3697 2662 3845 
Q 2509 3994 2228 3994 
Q 1941 3994 1786 3844 
Q 1631 3694 1631 3419 
z
" transform="scale(0.015625)"/>
     </defs>
     <use xlink:href="#DejaVuSans-Bold-43"/>
     <use xlink:href="#DejaVuSans-Bold-38" transform="translate(73.388672 0)"/>
    </g>
   </g>
   <g id="text_10">
    <!-- C5 -->
    <g style="fill: #ffffff" transform="translate(87.5494 66.050699) scale(0.045 -0.045)">
     <defs>
      <path id="DejaVuSans-Bold-35" d="M 678 4666 
L 3669 4666 
L 3669 3781 
L 1638 3781 
L 1638 3059 
Q 1775 3097 1914 3117 
Q 2053 3138 2203 3138 
Q 3056 3138 3531 2711 
Q 4006 2284 4006 1522 
Q 4006 766 3489 337 
Q 2972 -91 2053 -91 
Q 1656 -91 1267 -14 
Q 878 63 494 219 
L 494 1166 
Q 875 947 1217 837 
Q 1559 728 1863 728 
Q 2300 728 2551 942 
Q 2803 1156 2803 1522 
Q 2803 1891 2551 2103 
Q 2300 2316 1863 2316 
Q 1603 2316 1309 2248 
Q 1016 2181 678 2041 
L 678 4666 
z
" transform="scale(0.015625)"/>
     </defs>
     <use xlink:href="#DejaVuSans-Bold-43"/>
     <use xlink:href="#DejaVuSans-Bold-35" transform="translate(73.388672 0)"/>
    </g>
   </g>
   <g id="text_11">
    <!-- C6 -->
    <g style="fill: #ffffff" transform="translate(87.542494 74.683921) scale(0.045 -0.045)">
     <defs>
      <path id="DejaVuSans-Bold-36" d="M 2316 2303 
Q 2000 2303 1842 2098 
Q 1684 1894 1684 1484 
Q 1684 1075 1842 870 
Q 2000 666 2316 666 
Q 2634 666 2792 870 
Q 2950 1075 2950 1484 
Q 2950 1894 2792 2098 
Q 2634 2303 2316 2303 
z
M 3803 4544 
L 3803 3681 
Q 3506 3822 3243 3889 
Q 2981 3956 2731 3956 
Q 2194 3956 1894 3657 
Q 1594 3359 1544 2772 
Q 1750 2925 1990 3001 
Q 2231 3078 2516 3078 
Q 3231 3078 3670 2659 
Q 4109 2241 4109 1563 
Q 4109 813 3618 361 
Q 3128 -91 2303 -91 
Q 1394 -91 895 523 
Q 397 1138 397 2266 
Q 397 3422 980 4083 
Q 1563 4744 2578 4744 
Q 2900 4744 3203 4694 
Q 3506 4644 3803 4544 
z
" transform="scale(0.015625)"/>
     </defs>
     <use xlink:href="#DejaVuSans-Bold-43"/>
     <use xlink:href="#DejaVuSans-Bold-36" transform="translate(73.388672 0)"/>
    </g>
   </g>
   <g id="text_12">
    <!-- C7 -->
    <g style="fill: #ffffff" transform="translate(80.062671 78.993625) scale(0.045 -0.045)">
     <defs>
      <path id="DejaVuSans-Bold-37" d="M 428 4666 
L 3944 4666 
L 3944 3988 
L 2125 0 
L 953 0 
L 2675 3781 
L 428 3781 
L 428 4666 
z
" transform="scale(0.015625)"/>
     </defs>
     <use xlink:href="#DejaVuSans-Bold-43"/>
     <use xlink:href="#DejaVuSans-Bold-37" transform="translate(73.388672 0)"/>
    </g>
   </g>
   <g id="text_13">
    <!-- O1 -->
    <g style="fill: #ffffff" transform="translate(94.753848 79.007438) scale(0.045 -0.045)">
     <defs>
      <path id="DejaVuSans-Bold-4f" d="M 2719 3878 
Q 2169 3878 1866 3472 
Q 1563 3066 1563 2328 
Q 1563 1594 1866 1187 
Q 2169 781 2719 781 
Q 3272 781 3575 1187 
Q 3878 1594 3878 2328 
Q 3878 3066 3575 3472 
Q 3272 3878 2719 3878 
z
M 2719 4750 
Q 3844 4750 4481 4106 
Q 5119 3463 5119 2328 
Q 5119 1197 4481 553 
Q 3844 -91 2719 -91 
Q 1597 -91 958 553 
Q 319 1197 319 2328 
Q 319 3463 958 4106 
Q 1597 4750 2719 4750 
z
" transform="scale(0.015625)"/>
     </defs>
     <use xlink:href="#DejaVuSans-Bold-4f"/>
     <use xlink:href="#DejaVuSans-Bold-31" transform="translate(85.009766 0)"/>
    </g>
   </g>
   <g id="text_14">
    <!-- O5 -->
    <g style="fill: #ffffff" transform="translate(42.42962 66.014439) scale(0.045 -0.045)">
     <use xlink:href="#DejaVuSans-Bold-4f"/>
     <use xlink:href="#DejaVuSans-Bold-35" transform="translate(85.009766 0)"/>
    </g>
   </g>
   <g id="text_15">
    <!-- O6 -->
    <g style="fill: #ffffff" transform="translate(49.914624 53.071514) scale(0.045 -0.045)">
     <use xlink:href="#DejaVuSans-Bold-4f"/>
     <use xlink:href="#DejaVuSans-Bold-36" transform="translate(85.009766 0)"/>
    </g>
   </g>
   <g id="text_16">
    <!-- P1 -->
    <g style="fill: #ffffff" transform="translate(102.497342 74.696007) scale(0.045 -0.045)">
     <defs>
      <path id="DejaVuSans-Bold-50" d="M 588 4666 
L 2584 4666 
Q 3475 4666 3951 4270 
Q 4428 3875 4428 3144 
Q 4428 2409 3951 2014 
Q 3475 1619 2584 1619 
L 1791 1619 
L 1791 0 
L 588 0 
L 588 4666 
z
M 1791 3794 
L 1791 2491 
L 2456 2491 
Q 2806 2491 2997 2661 
Q 3188 2831 3188 3144 
Q 3188 3456 2997 3625 
Q 2806 3794 2456 3794 
L 1791 3794 
z
" transform="scale(0.015625)"/>
     </defs>
     <use xlink:href="#DejaVuSans-Bold-50"/>
     <use xlink:href="#DejaVuSans-Bold-31" transform="translate(73.291016 0)"/>
    </g>
   </g>
   <g id="text_17">
    <!-- O2 -->
    <g style="fill: #ffffff" transform="translate(106.543376 82.175829) scale(0.045 -0.045)">
     <use xlink:href="#DejaVuSans-Bold-4f"/>
     <use xlink:href="#DejaVuSans-Bold-32" transform="translate(85.009766 0)"/>
    </g>
   </g>
   <g id="text_18">
    <!-- O3 -->
    <g style="fill: #ffffff" transform="translate(97.92224 67.216183) scale(0.045 -0.045)">
     <use xlink:href="#DejaVuSans-Bold-4f"/>
     <use xlink:href="#DejaVuSans-Bold-33" transform="translate(85.009766 0)"/>
    </g>
   </g>
   <g id="text_19">
    <!-- O4 -->
    <g style="fill: #ffffff" transform="translate(109.713495 70.384576) scale(0.045 -0.045)">
     <use xlink:href="#DejaVuSans-Bold-4f"/>
     <use xlink:href="#DejaVuSans-Bold-34" transform="translate(85.009766 0)"/>
    </g>
   </g>
   <g id="text_20">
    <!-- Y46 -->
    <g transform="translate(51.796808 31.832853) scale(0.065 -0.065)">
     <defs>
      <path id="DejaVuSans-Bold-59" d="M -63 4666 
L 1253 4666 
L 2316 3003 
L 3378 4666 
L 4697 4666 
L 2919 1966 
L 2919 0 
L 1716 0 
L 1716 1966 
L -63 4666 
z
" transform="scale(0.015625)"/>
     </defs>
     <use xlink:href="#DejaVuSans-Bold-59"/>
     <use xlink:href="#DejaVuSans-Bold-34" transform="translate(72.412109 0)"/>
     <use xlink:href="#DejaVuSans-Bold-36" transform="translate(141.992188 0)"/>
    </g>
   </g>
   <g id="text_21">
    <!-- F182 -->
    <g transform="translate(100.217217 46.117394) scale(0.065 -0.065)">
     <defs>
      <path id="DejaVuSans-Bold-46" d="M 588 4666 
L 3834 4666 
L 3834 3756 
L 1791 3756 
L 1791 2888 
L 3713 2888 
L 3713 1978 
L 1791 1978 
L 1791 0 
L 588 0 
L 588 4666 
z
" transform="scale(0.015625)"/>
     </defs>
     <use xlink:href="#DejaVuSans-Bold-46"/>
     <use xlink:href="#DejaVuSans-Bold-31" transform="translate(68.310547 0)"/>
     <use xlink:href="#DejaVuSans-Bold-38" transform="translate(137.890625 0)"/>
     <use xlink:href="#DejaVuSans-Bold-32" transform="translate(207.470703 0)"/>
    </g>
   </g>
   <g id="text_22">
    <!-- A217 -->
    <g transform="translate(123.670028 84.392498) scale(0.065 -0.065)">
     <defs>
      <path id="DejaVuSans-Bold-41" d="M 3419 850 
L 1538 850 
L 1241 0 
L 31 0 
L 1759 4666 
L 3194 4666 
L 4922 0 
L 3713 0 
L 3419 850 
z
M 1838 1716 
L 3116 1716 
L 2478 3572 
L 1838 1716 
z
" transform="scale(0.015625)"/>
     </defs>
     <use xlink:href="#DejaVuSans-Bold-41"/>
     <use xlink:href="#DejaVuSans-Bold-32" transform="translate(77.392578 0)"/>
     <use xlink:href="#DejaVuSans-Bold-31" transform="translate(146.972656 0)"/>
     <use xlink:href="#DejaVuSans-Bold-37" transform="translate(216.552734 0)"/>
    </g>
   </g>
   <g id="text_23">
    <!-- I219 -->
    <g transform="translate(151.483329 73.388324) scale(0.065 -0.065)">
     <defs>
      <path id="DejaVuSans-Bold-49" d="M 588 4666 
L 1791 4666 
L 1791 0 
L 588 0 
L 588 4666 
z
" transform="scale(0.015625)"/>
     </defs>
     <use xlink:href="#DejaVuSans-Bold-49"/>
     <use xlink:href="#DejaVuSans-Bold-32" transform="translate(37.207031 0)"/>
     <use xlink:href="#DejaVuSans-Bold-31" transform="translate(106.787109 0)"/>
     <use xlink:href="#DejaVuSans-Bold-39" transform="translate(176.367188 0)"/>
    </g>
   </g>
   <g id="text_24">
    <!-- D48 -->
    <g transform="translate(28.349185 86.274991) scale(0.065 -0.065)">
     <defs>
      <path id="DejaVuSans-Bold-44" d="M 1791 3756 
L 1791 909 
L 2222 909 
Q 2959 909 3348 1275 
Q 3738 1641 3738 2338 
Q 3738 3031 3350 3393 
Q 2963 3756 2222 3756 
L 1791 3756 
z
M 588 4666 
L 1856 4666 
Q 2919 4666 3439 4514 
Q 3959 4363 4331 4000 
Q 4659 3684 4818 3271 
Q 4978 2859 4978 2338 
Q 4978 1809 4818 1395 
Q 4659 981 4331 666 
Q 3956 303 3431 151 
Q 2906 0 1856 0 
L 588 0 
L 588 4666 
z
" transform="scale(0.015625)"/>
     </defs>
     <use xlink:href="#DejaVuSans-Bold-44"/>
     <use xlink:href="#DejaVuSans-Bold-34" transform="translate(83.007812 0)"/>
     <use xlink:href="#DejaVuSans-Bold-38" transform="translate(152.587891 0)"/>
    </g>
   </g>
   <g id="text_25">
    <!-- C215 -->
    <g transform="translate(141.240765 105.52124) scale(0.065 -0.065)">
     <use xlink:href="#DejaVuSans-Bold-43"/>
     <use xlink:href="#DejaVuSans-Bold-32" transform="translate(73.388672 0)"/>
     <use xlink:href="#DejaVuSans-Bold-31" transform="translate(142.96875 0)"/>
     <use xlink:href="#DejaVuSans-Bold-35" transform="translate(212.548828 0)"/>
    </g>
   </g>
   <g id="text_26">
    <!-- S216 -->
    <g transform="translate(125.992586 29.783386) scale(0.065 -0.065)">
     <defs>
      <path id="DejaVuSans-Bold-53" d="M 3834 4519 
L 3834 3531 
Q 3450 3703 3084 3790 
Q 2719 3878 2394 3878 
Q 1963 3878 1756 3759 
Q 1550 3641 1550 3391 
Q 1550 3203 1689 3098 
Q 1828 2994 2194 2919 
L 2706 2816 
Q 3484 2659 3812 2340 
Q 4141 2022 4141 1434 
Q 4141 663 3683 286 
Q 3225 -91 2284 -91 
Q 1841 -91 1394 -6 
Q 947 78 500 244 
L 500 1259 
Q 947 1022 1364 901 
Q 1781 781 2169 781 
Q 2563 781 2772 912 
Q 2981 1044 2981 1288 
Q 2981 1506 2839 1625 
Q 2697 1744 2272 1838 
L 1806 1941 
Q 1106 2091 782 2419 
Q 459 2747 459 3303 
Q 459 4000 909 4375 
Q 1359 4750 2203 4750 
Q 2588 4750 2994 4692 
Q 3400 4634 3834 4519 
z
" transform="scale(0.015625)"/>
     </defs>
     <use xlink:href="#DejaVuSans-Bold-53"/>
     <use xlink:href="#DejaVuSans-Bold-32" transform="translate(72.021484 0)"/>
     <use xlink:href="#DejaVuSans-Bold-31" transform="translate(141.601562 0)"/>
     <use xlink:href="#DejaVuSans-Bold-36" transform="translate(211.181641 0)"/>
    </g>
   </g>
   <g id="text_27">
    <!-- G218 -->
    <g transform="translate(95.123657 131.090204) scale(0.065 -0.065)">
     <defs>
      <path id="DejaVuSans-Bold-47" d="M 4781 347 
Q 4331 128 3847 18 
Q 3363 -91 2847 -91 
Q 1681 -91 1000 561 
Q 319 1213 319 2328 
Q 319 3456 1012 4103 
Q 1706 4750 2913 4750 
Q 3378 4750 3804 4662 
Q 4231 4575 4609 4403 
L 4609 3438 
Q 4219 3659 3833 3768 
Q 3447 3878 3059 3878 
Q 2341 3878 1952 3476 
Q 1563 3075 1563 2328 
Q 1563 1588 1938 1184 
Q 2313 781 3003 781 
Q 3191 781 3352 804 
Q 3513 828 3641 878 
L 3641 1784 
L 2906 1784 
L 2906 2591 
L 4781 2591 
L 4781 347 
z
" transform="scale(0.015625)"/>
     </defs>
     <use xlink:href="#DejaVuSans-Bold-47"/>
     <use xlink:href="#DejaVuSans-Bold-32" transform="translate(82.080078 0)"/>
     <use xlink:href="#DejaVuSans-Bold-31" transform="translate(151.660156 0)"/>
     <use xlink:href="#DejaVuSans-Bold-38" transform="translate(221.240234 0)"/>
    </g>
   </g>
   <g id="text_28">
    <!-- G220 -->
    <g transform="translate(111.16039 108.638698) scale(0.065 -0.065)">
     <use xlink:href="#DejaVuSans-Bold-47"/>
     <use xlink:href="#DejaVuSans-Bold-32" transform="translate(82.080078 0)"/>
     <use xlink:href="#DejaVuSans-Bold-32" transform="translate(151.660156 0)"/>
     <use xlink:href="#DejaVuSans-Bold-30" transform="translate(221.240234 0)"/>
    </g>
   </g>
   <g id="text_29">
    <!-- R221 -->
    <g transform="translate(125.081657 56.956909) scale(0.065 -0.065)">
     <defs>
      <path id="DejaVuSans-Bold-52" d="M 2297 2597 
Q 2675 2597 2839 2737 
Q 3003 2878 3003 3200 
Q 3003 3519 2839 3656 
Q 2675 3794 2297 3794 
L 1791 3794 
L 1791 2597 
L 2297 2597 
z
M 1791 1766 
L 1791 0 
L 588 0 
L 588 4666 
L 2425 4666 
Q 3347 4666 3776 4356 
Q 4206 4047 4206 3378 
Q 4206 2916 3982 2619 
Q 3759 2322 3309 2181 
Q 3556 2125 3751 1926 
Q 3947 1728 4147 1325 
L 4800 0 
L 3519 0 
L 2950 1159 
Q 2778 1509 2601 1637 
Q 2425 1766 2131 1766 
L 1791 1766 
z
" transform="scale(0.015625)"/>
     </defs>
     <use xlink:href="#DejaVuSans-Bold-52"/>
     <use xlink:href="#DejaVuSans-Bold-32" transform="translate(77.001953 0)"/>
     <use xlink:href="#DejaVuSans-Bold-32" transform="translate(146.582031 0)"/>
     <use xlink:href="#DejaVuSans-Bold-31" transform="translate(216.162109 0)"/>
    </g>
   </g>
   <g id="patch_47">
    <path d="M 1.860746 138.878135 
L 184.213899 138.878135 
L 184.213899 1.402809 
L 1.860746 1.402809 
L 1.860746 138.878135 
z
" clip-path="url(#p6087c191ce)" style="fill: none; opacity: 0.85; stroke-dasharray: 3.25,3.25; stroke-dashoffset: 0; stroke: #bdbdbd; stroke-width: 0.65; stroke-linejoin: miter"/>
   </g>
  </g>
 </g>
 <defs>
  <clipPath id="p6087c191ce">
   <rect x="0" y="0" width="186.074646" height="140.280945"/>
  </clipPath>
 </defs>
</svg>
